<?xml version="1.0" encoding="utf-8"?>
<!-- Generator: Adobe Illustrator 19.0.0, SVG Export Plug-In . SVG Version: 6.00 Build 0)  -->
<svg version="1.1" id="Layer_1" xmlns="http://www.w3.org/2000/svg" xmlns:xlink="http://www.w3.org/1999/xlink" x="0px" y="0px"
	 viewBox="-644.2 456.8 797 169.1" style="enable-background:new -644.2 456.8 797 169.1;" xml:space="preserve">
<style type="text/css">
	.st0{fill:#202123;}
</style>
<path class="st0" d="M-559.6,456.8c-46.7,0-84.6,37.9-84.6,84.6c0,18.8,6.1,36.2,16.5,50.2l75-75.1h-30.8
	c-20.7,0-19.1-27.2-19.1-27.2h49.9c46.4,0,46.4,45,46.4,45v51.4c-27.5,0-27-16.8-27-16.8v-33.3l-75,74.8
	c13.8,9.7,30.6,15.4,48.7,15.4c46.7,0,84.6-37.9,84.6-84.6S-512.9,456.8-559.6,456.8L-559.6,456.8z"/>
<g>
	<path class="st0" d="M-413.6,563.4v-44.1h31.6v8.3h-22v9.6h21.6v8.3H-404v18.3h-9.6V563.4z"/>
	<path class="st0" d="M-355.4,564.2c-3.3,0-6.2-0.4-8.7-1.2s-4.6-2.1-6.2-3.7c-2.1-1.7-3.3-3.7-4.2-5.8c-0.8-2.1-1.2-4.6-1.2-7.5
		v-26.6h9.6v26.2c0,2.9,0.8,5.8,2.5,7.5c2.1,2.1,4.6,2.9,8.3,2.9c3.7,0,6.2-0.8,7.9-2.9c1.7-2.1,2.5-4.6,2.5-7.5v-26.2h9.6v26.6
		c0,2.9-0.4,5.4-1.2,7.5c-0.8,2.1-2.1,4.2-3.7,5.8c-1.7,1.7-3.7,2.9-6.2,3.7C-349.1,563.8-352,564.2-355.4,564.2z"/>
	<path class="st0" d="M-316.7,563.4v-35.8h-12.9v-8.3h35.3v8.3h-12.9v36.2h-9.6V563.4z"/>
	<path class="st0" d="M-268,564.2c-3.3,0-6.2-0.4-8.7-1.2s-4.6-2.1-6.2-3.7c-1.7-1.7-2.9-3.7-3.7-5.8c-0.8-2.1-1.2-4.6-1.2-7.5
		v-26.6h9.6v26.2c0,2.9,0.8,5.8,2.5,7.5c1.7,2.1,4.6,2.9,7.9,2.9c3.3,0,6.2-0.8,7.9-2.9c1.7-2.1,2.5-4.6,2.5-7.5v-26.2h9.6v26.6
		c0,2.9-0.4,5.4-1.2,7.5c-0.8,2.1-2.1,4.2-3.7,5.8c-1.7,1.7-3.7,2.9-6.2,3.7S-264.7,564.2-268,564.2z"/>
	<path class="st0" d="M-214.4,563.4l-8.7-15.8h-7.1v15.8h-9.6v-44.1h20.8c2.5,0,4.6,0.4,6.2,1.2c1.7,0.8,3.3,1.7,4.6,2.9
		s2.1,2.9,2.9,4.6c0.8,1.7,0.8,3.7,0.8,5.8s-0.4,3.7-0.8,5c-0.4,1.2-0.4,2.5-1.2,3.7c-0.8,1.2-2.1,2.1-3.3,2.5
		c-1.2,0.8-2.5,1.2-3.7,1.2l10,17.1H-214.4z M-219.8,539.7c2.1,0,3.3-0.4,4.6-1.7c1.2-1.2,2.1-2.5,2.1-4.6c0-1.7-0.8-3.3-2.1-4.6
		c-1.2-1.2-2.9-1.2-4.6-1.2h-10v12.1C-229.8,539.7-219.8,539.7-219.8,539.7z"/>
	<path class="st0" d="M-196.5,563.4v-44.1h31.6v8.3h-22v9.6h21.6v8.3h-21.6v10h22v8.3h-31.6V563.4z"/>
	<path class="st0" d="M-140.8,563.4v-44.1h9.6v44.5h-9.6V563.4z"/>
	<path class="st0" d="M-91.7,563.4l-21.2-29.1v29.1h-9.6v-44.1h9.6l20.4,27.9v-27.9h9.6v44.5h-8.7V563.4z"/>
	<path class="st0" d="M-58,564.2c-4.2,0-7.9-0.8-11.2-2.1c-2.9-1.2-5.8-2.9-7.9-5l5-7.1c1.7,1.7,3.3,2.9,5.8,4.2
		c2.5,1.2,5,1.7,8.3,1.7c2.5,0,4.6-0.4,5.8-1.7c1.2-0.8,2.1-2.1,2.1-3.3c0-1.2-0.8-2.1-2.1-2.9c-1.2-0.8-2.9-1.2-4.6-1.7
		c-2.1-0.4-3.7-0.8-6.2-1.7c-2.5-0.8-4.2-1.2-6.2-2.1c-2.1-0.8-3.3-2.5-4.6-4.2c-1.2-1.7-2.1-3.7-2.1-6.7c0-1.7,0.4-3.7,1.2-5.4
		c0.8-1.7,2.1-2.9,3.3-4.2c1.2-1.2,3.3-2.1,5.4-2.9c2.1-0.4,4.6-0.8,7.1-0.8c7.1,0,12.9,2.1,17.5,6.2l-5.4,7.1
		c-1.7-1.7-3.7-2.9-6.2-3.7s-4.2-1.2-6.7-1.2c-2.1,0-3.7,0.4-4.6,1.2c-1.2,0.8-1.7,2.1-1.7,3.3c0,1.2,0.8,2.1,2.1,2.5
		c1.2,0.8,2.9,1.2,4.6,1.7c2.1,0.4,3.7,0.8,6.2,1.7c2.1,0.4,4.2,1.2,6.2,2.5c2.1,0.8,3.3,2.5,4.6,4.2c1.2,1.7,2.1,3.7,2.1,6.7
		c0,2.1-0.4,3.7-1.2,5.8c-0.8,1.7-1.7,3.3-3.3,4.6c-1.7,1.2-3.3,2.1-5.4,2.9C-52.6,564.2-55.1,564.2-58,564.2z"/>
	<path class="st0" d="M-33.9,563.4v-44.1h9.6v44.5h-9.6V563.4z"/>
	<path class="st0" d="M5.6,564.6c-3.3,0-6.2-0.4-9.1-1.7c-2.9-1.2-5.4-2.5-7.5-4.6c-2.1-2.1-3.7-4.6-5-7.1c-1.2-2.9-1.7-5.8-1.7-9.6
		c0-3.3,0.4-6.7,1.7-9.6s2.9-5.4,5-7.1s4.6-3.3,7.5-4.6c2.9-1.7,5.8-2.1,9.1-2.1c2.5,0,4.6,0.4,6.2,0.8c2.1,0.4,3.7,1.2,5,2.1
		c1.7,0.8,2.9,2.1,4.2,3.3c1.2,1.2,2.1,2.5,2.9,3.7l-7.9,4.2c-0.8-1.7-2.5-2.9-4.2-4.2c-1.7-1.2-3.7-1.7-6.2-1.7
		c-2.1,0-3.7,0.4-5.4,1.2s-3.3,1.7-4.6,2.9c-1.2,1.2-2.1,2.9-2.9,4.6c-0.8,1.7-0.8,3.7-0.8,5.8s0.4,4.2,0.8,5.8
		c0.8,1.7,1.7,3.3,2.9,4.6c1.2,1.2,2.9,2.5,4.6,2.9c1.7,1.2,3.3,1.2,5.4,1.2s3.7-0.4,5.4-1.2c1.7-0.8,2.9-1.7,3.7-2.5v-5H3.1v-8.3
		h21.2v17.1c-2.1,2.5-5,4.6-8.3,6.2C13.1,563.8,9.8,564.6,5.6,564.6z"/>
	<path class="st0" d="M62.6,563.4v-18.3H41.8v18.7h-9.6v-44.5h9.6v17.5h20.8v-17.5h9.6v44.5h-9.6V563.4z"/>
	<path class="st0" d="M90.8,563.4v-35.8H78v-8.3h35.3v8.3h-12.9v36.2h-9.6V563.4z"/>
	<path class="st0" d="M134.9,564.2c-4.2,0-7.9-0.8-11.2-2.1c-2.9-1.2-5.8-2.9-7.9-5l5-7.1c1.7,1.7,3.3,2.9,5.8,4.2
		c2.5,1.2,5,1.7,8.3,1.7c2.5,0,4.6-0.4,5.8-1.7c1.2-0.8,2.1-2.1,2.1-3.3c0-1.2-0.8-2.1-2.1-2.9s-2.9-1.2-4.6-1.7
		c-2.1-0.4-3.7-0.8-6.2-1.7s-4.2-1.2-6.2-2.1c-2.1-0.8-3.3-2.5-4.6-4.2c-1.2-1.7-2.1-3.7-2.1-6.7c0-1.7,0.4-3.7,1.2-5.4
		c0.8-1.7,2.1-2.9,3.3-4.2c1.2-1.2,3.3-2.1,5.4-2.9c2.1-0.8,4.6-1.2,7.1-1.2c7.1,0,12.9,2.1,17.5,6.2l-5.4,7.1
		c-1.7-1.7-3.7-2.9-6.2-3.7c-2.5-0.8-4.2-0.8-6.7-0.8c-2.1,0-3.7,0.4-4.6,1.2c-1.2,0.8-1.7,2.1-1.7,3.3c0,1.2,0.8,2.1,2.1,2.5
		c1.2,0.8,2.9,1.2,4.6,1.7c2.1,0.4,3.7,0.8,6.2,1.7c2.1,0.4,4.2,1.2,6.2,2.5c2.1,0.8,3.3,2.5,4.6,4.2c1.2,1.7,2.1,3.7,2.1,6.7
		c0,2.1-0.4,3.7-1.2,5.8c-0.8,1.7-1.7,3.3-3.3,4.6c-1.7,1.2-3.3,2.1-5.4,2.9C140.3,564.2,137.8,564.2,134.9,564.2z"/>
</g>
</svg>
