<?xml version="1.0" encoding="utf-8"?>
<!-- Generator: Adobe Illustrator 19.0.0, SVG Export Plug-In . SVG Version: 6.00 Build 0)  -->
<svg version="1.1" id="Layer_1" xmlns="http://www.w3.org/2000/svg" xmlns:xlink="http://www.w3.org/1999/xlink" x="0px" y="0px"
	 viewBox="-757.2 757.7 796.9 169" style="enable-background:new -757.2 757.7 796.9 169;" xml:space="preserve">
<style type="text/css">
	.st0{fill:#F7F9F9;}
</style>
<path class="st0" d="M-672.6,757.7c-46.7,0-84.6,37.9-84.6,84.6c0,18.8,6.1,36.2,16.5,50.2l75-75.1h-30.8
	c-20.7,0-19.1-27.2-19.1-27.2h49.9c46.4,0,46.4,45,46.4,45v51.4c-27.5,0-27-16.8-27-16.8v-33.3l-75,74.8
	c13.8,9.7,30.6,15.4,48.7,15.4c46.7,0,84.6-37.9,84.6-84.6S-625.9,757.7-672.6,757.7L-672.6,757.7z"/>
<g>
	<path class="st0" d="M-526.6,864.3v-44.1h31.6v8.3h-22v9.6h21.6v8.3H-517v18.3h-9.6V864.3z"/>
	<path class="st0" d="M-468.4,865.1c-3.3,0-6.2-0.4-8.7-1.2s-4.6-2.1-6.2-3.7c-2.1-1.7-3.3-3.7-4.2-5.8c-0.8-2.1-1.2-4.6-1.2-7.5
		v-26.6h9.6v26.2c0,2.9,0.8,5.8,2.5,7.5c2.1,2.1,4.6,2.9,8.3,2.9c3.7,0,6.2-0.8,7.9-2.9c1.7-2.1,2.5-4.6,2.5-7.5v-26.2h9.6v26.6
		c0,2.9-0.4,5.4-1.2,7.5c-0.8,2.1-2.1,4.2-3.7,5.8c-1.7,1.7-3.7,2.9-6.2,3.7C-462.1,864.7-465,865.1-468.4,865.1z"/>
	<path class="st0" d="M-429.7,864.3v-35.8h-12.9v-8.3h35.3v8.3h-12.9v36.2h-9.6v-0.4H-429.7z"/>
	<path class="st0" d="M-381,865.1c-3.3,0-6.2-0.4-8.7-1.2s-4.6-2.1-6.2-3.7c-1.7-1.7-2.9-3.7-3.7-5.8c-0.8-2.1-1.2-4.6-1.2-7.5
		v-26.6h9.6v26.2c0,2.9,0.8,5.8,2.5,7.5c1.7,2.1,4.6,2.9,7.9,2.9s6.2-0.8,7.9-2.9c1.7-2.1,2.5-4.6,2.5-7.5v-26.2h9.6v26.6
		c0,2.9-0.4,5.4-1.2,7.5c-0.8,2.1-2.1,4.2-3.7,5.8c-1.7,1.7-3.7,2.9-6.2,3.7S-377.7,865.1-381,865.1z"/>
	<path class="st0" d="M-327.4,864.3l-8.7-15.8h-7.1v15.8h-9.6v-44.1h20.8c2.5,0,4.6,0.4,6.2,1.2c1.7,0.8,3.3,1.7,4.6,2.9
		c1.3,1.2,2.1,2.9,2.9,4.6c0.8,1.7,0.8,3.7,0.8,5.8s-0.4,3.7-0.8,5c-0.4,1.2-0.4,2.5-1.2,3.7s-2.1,2.1-3.3,2.5
		c-1.2,0.8-2.5,1.2-3.7,1.2l10,17.1L-327.4,864.3L-327.4,864.3z M-332.8,840.6c2.1,0,3.3-0.4,4.6-1.7c1.2-1.2,2.1-2.5,2.1-4.6
		c0-1.7-0.8-3.3-2.1-4.6c-1.2-1.2-2.9-1.2-4.6-1.2h-10v12.1H-332.8z"/>
	<path class="st0" d="M-309.5,864.3v-44.1h31.6v8.3h-22v9.6h21.6v8.3h-21.6v10h22v8.3h-31.6V864.3z"/>
	<path class="st0" d="M-253.8,864.3v-44.1h9.6v44.5h-9.6V864.3z"/>
	<path class="st0" d="M-204.7,864.3l-21.2-29.1v29.1h-9.6v-44.1h9.6l20.4,27.9v-27.9h9.6v44.5h-8.7v-0.4H-204.7z"/>
	<path class="st0" d="M-171,865.1c-4.2,0-7.9-0.8-11.2-2.1c-2.9-1.2-5.8-2.9-7.9-5l5-7.1c1.7,1.7,3.3,2.9,5.8,4.2
		c2.5,1.2,5,1.7,8.3,1.7c2.5,0,4.6-0.4,5.8-1.7c1.2-0.8,2.1-2.1,2.1-3.3s-0.8-2.1-2.1-2.9c-1.2-0.8-2.9-1.2-4.6-1.7
		c-2.1-0.4-3.7-0.8-6.2-1.7c-2.5-0.8-4.2-1.2-6.2-2.1c-2.1-0.8-3.3-2.5-4.6-4.2c-1.2-1.7-2.1-3.7-2.1-6.7c0-1.7,0.4-3.7,1.2-5.4
		s2.1-2.9,3.3-4.2c1.2-1.2,3.3-2.1,5.4-2.9c2.1-0.4,4.6-0.8,7.1-0.8c7.1,0,12.9,2.1,17.5,6.2l-5.4,7.1c-1.7-1.7-3.7-2.9-6.2-3.7
		s-4.2-1.2-6.7-1.2c-2.1,0-3.7,0.4-4.6,1.2c-1.2,0.8-1.7,2.1-1.7,3.3s0.8,2.1,2.1,2.5c1.2,0.8,2.9,1.2,4.6,1.7
		c2.1,0.4,3.7,0.8,6.2,1.7c2.1,0.4,4.2,1.2,6.2,2.5c2.1,0.8,3.3,2.5,4.6,4.2c1.2,1.7,2.1,3.7,2.1,6.7c0,2.1-0.4,3.7-1.2,5.8
		c-0.8,1.7-1.7,3.3-3.3,4.6c-1.7,1.2-3.3,2.1-5.4,2.9C-165.6,865.1-168.1,865.1-171,865.1z"/>
	<path class="st0" d="M-146.9,864.3v-44.1h9.6v44.5h-9.6V864.3z"/>
	<path class="st0" d="M-107.4,865.5c-3.3,0-6.2-0.4-9.1-1.7c-2.9-1.2-5.4-2.5-7.5-4.6s-3.7-4.6-5-7.1c-1.2-2.9-1.7-5.8-1.7-9.6
		c0-3.3,0.4-6.7,1.7-9.6s2.9-5.4,5-7.1s4.6-3.3,7.5-4.6c2.9-1.7,5.8-2.1,9.1-2.1c2.5,0,4.6,0.4,6.2,0.8c2.1,0.4,3.7,1.2,5,2.1
		c1.7,0.8,2.9,2.1,4.2,3.3c1.2,1.2,2.1,2.5,2.9,3.7l-7.9,4.2c-0.8-1.7-2.5-2.9-4.2-4.2c-1.7-1.2-3.7-1.7-6.2-1.7
		c-2.1,0-3.7,0.4-5.4,1.2c-1.7,0.8-3.3,1.7-4.6,2.9c-1.2,1.2-2.1,2.9-2.9,4.6c-0.8,1.7-0.8,3.7-0.8,5.8s0.4,4.2,0.8,5.8
		c0.8,1.7,1.7,3.3,2.9,4.6c1.2,1.2,2.9,2.5,4.6,2.9c1.7,1.2,3.3,1.2,5.4,1.2s3.7-0.4,5.4-1.2s2.9-1.7,3.7-2.5v-5h-11.6v-8.3h21.2
		v17.1c-2.1,2.5-5,4.6-8.3,6.2C-99.9,864.7-103.2,865.5-107.4,865.5z"/>
	<path class="st0" d="M-50.4,864.3V846h-20.8v18.7h-9.6v-44.5h9.6v17.5h20.8v-17.5h9.6v44.5h-9.6V864.3z"/>
	<path class="st0" d="M-22.2,864.3v-35.8H-35v-8.3H0.3v8.3h-12.9v36.2h-9.6V864.3z"/>
	<path class="st0" d="M21.9,865.1c-4.2,0-7.9-0.8-11.2-2.1c-2.9-1.2-5.8-2.9-7.9-5l5-7.1c1.7,1.7,3.3,2.9,5.8,4.2
		c2.5,1.2,5,1.7,8.3,1.7c2.5,0,4.6-0.4,5.8-1.7c1.2-0.8,2.1-2.1,2.1-3.3s-0.8-2.1-2.1-2.9s-2.9-1.2-4.6-1.7
		c-2.1-0.4-3.7-0.8-6.2-1.7s-4.2-1.2-6.2-2.1c-2.1-0.8-3.3-2.5-4.6-4.2c-1.2-1.7-2.1-3.7-2.1-6.7c0-1.7,0.4-3.7,1.2-5.4
		c0.8-1.7,2.1-2.9,3.3-4.2c1.2-1.2,3.3-2.1,5.4-2.9c2.1-0.8,4.6-1.2,7.1-1.2c7.1,0,12.9,2.1,17.5,6.2l-5.4,7.1
		c-1.7-1.7-3.7-2.9-6.2-3.7s-4.2-0.8-6.7-0.8c-2.1,0-3.7,0.4-4.6,1.2c-1.2,0.8-1.7,2.1-1.7,3.3s0.8,2.1,2.1,2.5
		c1.2,0.8,2.9,1.2,4.6,1.7c2.1,0.4,3.7,0.8,6.2,1.7c2.1,0.4,4.2,1.2,6.2,2.5c2.1,0.8,3.3,2.5,4.6,4.2c1.2,1.7,2.1,3.7,2.1,6.7
		c0,2.1-0.4,3.7-1.2,5.8c-0.8,1.7-1.7,3.3-3.3,4.6c-1.7,1.2-3.3,2.1-5.4,2.9C27.3,865.1,24.8,865.1,21.9,865.1z"/>
</g>
</svg>
