<?xml version="1.0" encoding="utf-8"?>
<!-- Generator: Adobe Illustrator 19.0.0, SVG Export Plug-In . SVG Version: 6.00 Build 0)  -->
<svg version="1.1" id="Layer_1" xmlns="http://www.w3.org/2000/svg" xmlns:xlink="http://www.w3.org/1999/xlink" x="0px" y="0px"
	 viewBox="-609.2 923.7 981.9 169" style="enable-background:new -609.2 923.7 981.9 169;" xml:space="preserve">
<style type="text/css">
	.st0{fill:#F7F9F9;}
</style>
<path class="st0" d="M-524.6,923.7c-46.7,0-84.6,37.9-84.6,84.6c0,18.8,6.1,36.2,16.5,50.2l75-75.1h-30.8
	c-20.7,0-19.1-27.2-19.1-27.2h49.9c46.4,0,46.4,45,46.4,45v51.4c-27.5,0-27-16.8-27-16.8v-33.3l-75,74.8
	c13.8,9.7,30.6,15.4,48.7,15.4c46.7,0,84.6-37.9,84.6-84.6S-477.9,923.7-524.6,923.7L-524.6,923.7z"/>
<g>
	<path class="st0" d="M-374.2,1037.1v-58.2h41.7v10.9h-29v12.7h28.5v10.9h-28.5v24.1h-12.7V1037.1z"/>
	<path class="st0" d="M-297.4,1038.2c-4.4,0-8.2-0.5-11.5-1.6c-3.3-1.1-6.1-2.8-8.2-4.9c-2.8-2.2-4.4-4.9-5.5-7.6
		c-1.1-2.8-1.6-6.1-1.6-9.9v-35.1h12.7v34.6c0,3.8,1.1,7.6,3.3,9.9c2.8,2.8,6.1,3.8,10.9,3.8c4.9,0,8.2-1.1,10.4-3.8
		c2.2-2.8,3.3-6.1,3.3-9.9v-34.6h12.7v35.1c0,3.8-0.5,7.1-1.6,9.9c-1.1,2.8-2.8,5.5-4.9,7.6c-2.2,2.2-4.9,3.8-8.2,4.9
		C-289.1,1037.6-293,1038.2-297.4,1038.2z"/>
	<path class="st0" d="M-246.4,1037.1v-47.2h-17v-10.9h46.6v10.9h-17v47.7h-12.7v-0.5H-246.4z"/>
	<path class="st0" d="M-182.2,1038.2c-4.4,0-8.2-0.5-11.5-1.6c-3.3-1.1-6.1-2.8-8.2-4.9c-2.2-2.2-3.8-4.9-4.9-7.6
		c-1.1-2.8-1.6-6.1-1.6-9.9v-35.1h12.7v34.6c0,3.8,1.1,7.6,3.3,9.9c2.2,2.8,6.1,3.8,10.4,3.8c4.4,0,8.2-1.1,10.4-3.8
		c2.2-2.8,3.3-6.1,3.3-9.9v-34.6h12.7v35.1c0,3.8-0.5,7.1-1.6,9.9c-1.1,2.8-2.8,5.5-4.9,7.6c-2.2,2.2-4.9,3.8-8.2,4.9
		C-173.5,1037.6-177.8,1038.2-182.2,1038.2z"/>
	<path class="st0" d="M-111.5,1037.1l-11.5-20.8h-9.4v20.8H-145v-58.2h27.4c3.3,0,6.1,0.5,8.2,1.6c2.2,1.1,4.4,2.2,6.1,3.8
		c1.7,1.6,2.8,3.8,3.8,6.1c1.1,2.2,1.1,4.9,1.1,7.6c0,2.8-0.5,4.9-1.1,6.6c-0.5,1.6-0.5,3.3-1.6,4.9c-1.1,1.6-2.8,2.8-4.4,3.3
		c-1.6,1.1-3.3,1.6-4.9,1.6l13.2,22.6L-111.5,1037.1L-111.5,1037.1z M-118.6,1005.8c2.8,0,4.4-0.5,6.1-2.2c1.6-1.6,2.8-3.3,2.8-6.1
		c0-2.2-1.1-4.4-2.8-6.1c-1.6-1.6-3.8-1.6-6.1-1.6h-13.2v16H-118.6z"/>
	<path class="st0" d="M-87.9,1037.1v-58.2h41.7v10.9h-29v12.7h28.5v10.9h-28.5v13.2h29v10.9h-41.7V1037.1z"/>
	<path class="st0" d="M-14.4,1037.1v-58.2h12.7v58.7h-12.7V1037.1z"/>
	<path class="st0" d="M50.4,1037.1l-28-38.4v38.4H9.7v-58.2h12.7l26.9,36.8v-36.8H62v58.7H50.5v-0.5H50.4z"/>
	<path class="st0" d="M94.8,1038.2c-5.5,0-10.4-1.1-14.8-2.8c-3.8-1.6-7.6-3.8-10.4-6.6l6.6-9.4c2.2,2.2,4.4,3.8,7.6,5.5
		c3.3,1.6,6.6,2.2,10.9,2.2c3.3,0,6.1-0.5,7.6-2.2c1.6-1.1,2.8-2.8,2.8-4.4s-1.1-2.8-2.8-3.8c-1.6-1.1-3.8-1.6-6.1-2.2
		c-2.8-0.5-4.9-1.1-8.2-2.2c-3.3-1.1-5.5-1.6-8.2-2.8c-2.8-1.1-4.4-3.3-6.1-5.5c-1.6-2.2-2.8-4.9-2.8-8.8c0-2.2,0.5-4.9,1.6-7.1
		c1.1-2.2,2.8-3.8,4.4-5.5c1.6-1.6,4.4-2.8,7.1-3.8c2.8-0.5,6.1-1.1,9.4-1.1c9.4,0,17,2.8,23.1,8.2l-7.1,9.4
		c-2.2-2.2-4.9-3.8-8.2-4.9s-5.5-1.6-8.8-1.6c-2.8,0-4.9,0.5-6.1,1.6c-1.6,1.1-2.2,2.8-2.2,4.4s1.1,2.8,2.8,3.3
		c1.6,1.1,3.8,1.6,6.1,2.2c2.8,0.5,4.9,1.1,8.2,2.2c2.8,0.5,5.5,1.6,8.2,3.3c2.8,1.1,4.4,3.3,6.1,5.5c1.6,2.2,2.8,4.9,2.8,8.8
		c0,2.8-0.5,4.9-1.6,7.6c-1.1,2.2-2.2,4.4-4.4,6.1c-2.2,1.6-4.4,2.8-7.1,3.8C101.9,1038.2,98.6,1038.2,94.8,1038.2z"/>
	<path class="st0" d="M126.6,1037.1v-58.2h12.7v58.7h-12.7V1037.1z"/>
	<path class="st0" d="M178.7,1038.7c-4.4,0-8.2-0.5-12-2.2c-3.8-1.6-7.1-3.3-9.9-6.1s-4.9-6.1-6.6-9.4c-1.6-3.8-2.2-7.6-2.2-12.7
		c0-4.4,0.5-8.8,2.2-12.7c1.7-3.8,3.8-7.1,6.6-9.4s6.1-4.4,9.9-6.1c3.8-2.2,7.6-2.8,12-2.8c3.3,0,6.1,0.5,8.2,1.1
		c2.8,0.5,4.9,1.6,6.6,2.8c2.2,1.1,3.8,2.8,5.5,4.4c1.6,1.6,2.8,3.3,3.8,4.9l-10.4,5.5c-1.1-2.2-3.3-3.8-5.5-5.5
		c-2.2-1.6-4.9-2.2-8.2-2.2c-2.8,0-4.9,0.5-7.1,1.6c-2.2,1.1-4.4,2.2-6.1,3.8c-1.6,1.6-2.8,3.8-3.8,6.1c-1.1,2.2-1.1,4.9-1.1,7.6
		c0,2.8,0.5,5.5,1.1,7.6c1.1,2.2,2.2,4.4,3.8,6.1c1.6,1.6,3.8,3.3,6.1,3.8c2.2,1.6,4.4,1.6,7.1,1.6s4.9-0.5,7.1-1.6
		c2.2-1.1,3.8-2.2,4.9-3.3v-6.6h-15.3v-10.9h28v22.6c-2.8,3.3-6.6,6.1-10.9,8.2C188.6,1037.6,184.2,1038.7,178.7,1038.7z"/>
	<path class="st0" d="M253.9,1037.1V1013h-27.4v24.7h-12.7v-58.7h12.7v23.1h27.4v-23.1h12.7v58.7h-12.7
		C253.9,1037.6,253.9,1037.1,253.9,1037.1z"/>
	<path class="st0" d="M291.1,1037.1v-47.2h-16.9v-10.9h46.6v10.9h-17v47.7h-12.7V1037.1z"/>
	<path class="st0" d="M349.2,1038.2c-5.5,0-10.4-1.1-14.8-2.8c-3.8-1.6-7.6-3.8-10.4-6.6l6.6-9.4c2.2,2.2,4.4,3.8,7.6,5.5
		c3.3,1.6,6.6,2.2,10.9,2.2c3.3,0,6.1-0.5,7.6-2.2c1.6-1.1,2.8-2.8,2.8-4.4s-1.1-2.8-2.8-3.8c-1.7-1.1-3.8-1.6-6.1-2.2
		c-2.8-0.5-4.9-1.1-8.2-2.2s-5.5-1.6-8.2-2.8c-2.8-1.1-4.4-3.3-6.1-5.5c-1.6-2.2-2.8-4.9-2.8-8.8c0-2.2,0.5-4.9,1.6-7.1
		c1.1-2.2,2.8-3.8,4.4-5.5c1.6-1.6,4.4-2.8,7.1-3.8c2.8-1.1,6.1-1.6,9.4-1.6c9.4,0,17,2.8,23.1,8.2l-7.1,9.4
		c-2.2-2.2-4.9-3.8-8.2-4.9c-3.3-1.1-5.5-1.1-8.8-1.1c-2.8,0-4.9,0.5-6.1,1.6c-1.6,1.1-2.2,2.8-2.2,4.4s1.1,2.8,2.8,3.3
		c1.6,1.1,3.8,1.6,6.1,2.2c2.8,0.5,4.9,1.1,8.2,2.2c2.8,0.5,5.5,1.6,8.2,3.3c2.8,1.1,4.4,3.3,6.1,5.5c1.6,2.2,2.8,4.9,2.8,8.8
		c0,2.8-0.5,4.9-1.6,7.6c-1.1,2.2-2.2,4.4-4.4,6.1c-2.2,1.6-4.4,2.8-7.1,3.8C356.3,1038.2,353,1038.2,349.2,1038.2z"/>
</g>
</svg>
