<?xml version="1.0" encoding="utf-8"?>
<!-- Generator: Adobe Illustrator 19.0.0, SVG Export Plug-In . SVG Version: 6.00 Build 0)  -->
<svg version="1.1" id="Layer_1" xmlns="http://www.w3.org/2000/svg" xmlns:xlink="http://www.w3.org/1999/xlink" x="0px" y="0px"
	 viewBox="0 0 500 205.9" style="enable-background:new 0 0 500 205.9;" xml:space="preserve">
<style type="text/css">
	.st0{fill:#202123;}
</style>
<g id="XMLID_32_">
	<path id="XMLID_33_" class="st0" d="M0,1h19c0.3,0.5,0.4,1.6,0.4,2.8c0,1.1-0.2,2.3-0.4,2.8H6.4v7.6H18c0.3,0.5,0.4,1.6,0.4,2.8
		c0,1.2-0.2,2.2-0.4,2.7H6.4v11.2c-0.6,0.3-1.7,0.6-3.2,0.6c-1.5,0-2.6-0.2-3.2-0.6V1z"/>
	<path id="XMLID_35_" class="st0" d="M31.7,19.8c0,4.5,1.9,6.6,6.1,6.6c4.6,0,6.4-2.6,6.4-6.8V1.4C44.9,1,46,0.8,47.4,0.8
		c1.5,0,2.6,0.2,3.2,0.6v17.9c0,8.1-3.9,13-13,13c-8.4,0-12.3-4.1-12.3-11.9v-19C25.9,1,27,0.8,28.5,0.8c1.5,0,2.6,0.2,3.2,0.6V19.8
		z"/>
	<path id="XMLID_37_" class="st0" d="M71.3,6.6v24.2c-0.6,0.3-1.7,0.6-3.2,0.6s-2.6-0.2-3.2-0.6V6.6h-8.6c-0.3-0.6-0.5-1.7-0.5-2.9
		c0-1.2,0.2-2.3,0.5-2.8h23.6c0.3,0.6,0.5,1.7,0.5,2.8c0,1.1-0.2,2.3-0.5,2.9H71.3z"/>
	<path id="XMLID_39_" class="st0" d="M92.3,19.8c0,4.5,1.9,6.6,6.1,6.6c4.6,0,6.4-2.6,6.4-6.8V1.4c0.6-0.3,1.7-0.6,3.1-0.6
		c1.5,0,2.6,0.2,3.2,0.6v17.9c0,8.1-3.9,13-13,13c-8.4,0-12.3-4.1-12.3-11.9v-19c0.6-0.3,1.7-0.6,3.2-0.6c1.5,0,2.6,0.2,3.2,0.6
		V19.8z"/>
	<path id="XMLID_41_" class="st0" d="M119.4,1.3c2.3-0.5,5.8-0.8,8.9-0.8c8.5,0,13.6,2.8,13.6,10c0,4.4-1.9,7.3-4.8,8.9l7.1,11.5
		c-0.6,0.4-1.7,0.6-3.4,0.6c-1.9,0-3.1-0.2-4-0.6l-5.9-10h-0.7c-1.4,0-3.4-0.1-4.4-0.3v10.3c-0.6,0.3-1.7,0.6-3.2,0.6
		c-1.5,0-2.6-0.2-3.2-0.6V1.3z M125.8,6.3v8.9c0.9,0.2,2.4,0.3,3.7,0.3c3.7,0,6-1.3,6-4.6c0-3.4-2.4-4.8-6.6-4.8
		C127.7,6,126.7,6.1,125.8,6.3z"/>
	<path id="XMLID_44_" class="st0" d="M170.3,1c0.3,0.5,0.4,1.6,0.4,2.7c0,1.1-0.2,2.2-0.4,2.7h-13.7v6.9h12.7
		c0.3,0.6,0.4,1.5,0.4,2.7c0,1.1-0.2,2.1-0.4,2.7h-12.7v7.1h14.1c0.3,0.5,0.4,1.6,0.4,2.7c0,1.2-0.2,2.3-0.4,2.8h-20.4V1H170.3z"/>
	<path id="XMLID_46_" class="st0" d="M215.3,15.8c0,10.7-5.7,16.4-14.4,16.4c-9.3,0-14.4-5.4-14.4-16.4c0-9.9,6-15.8,14.4-15.8
		C209.5,0,215.3,5.5,215.3,15.8z M200.9,26.6c5.1,0,7.8-3.9,7.8-10.8c0-6.4-3.1-10.2-7.8-10.2c-5.1,0-7.8,3.7-7.8,10.2
		C193.1,22.7,196,26.6,200.9,26.6z"/>
	<path id="XMLID_49_" class="st0" d="M222.7,1h19c0.3,0.5,0.4,1.6,0.4,2.8c0,1.1-0.2,2.3-0.4,2.8h-12.6v7.6h11.6
		c0.3,0.5,0.4,1.6,0.4,2.8c0,1.2-0.2,2.2-0.4,2.7h-11.6v11.2c-0.6,0.3-1.7,0.6-3.2,0.6c-1.5,0-2.6-0.2-3.2-0.6V1z"/>
</g>
<g id="XMLID_1_">
	<path id="XMLID_2_" class="st0" d="M11.9,155.8c-1,1.5-2.4,2.2-4.2,0.7c-4.9-4.3-6-9.6-3.8-19.2C8.9,116,20.2,84,27.1,70.9
		c1.1-2.1,2.5-2.2,3.5-0.6c2.4,4,2.6,9.1-1.4,19.8c-4.6,12.5-11.4,30.7-17.4,50.5c13-21.2,34.4-50.5,48.8-67.9
		c1-1.1,2.4-1.5,3.5,0.1c2.8,4,3.5,7.5,0,18.1C59.5,104,53.7,121,48.4,141.3c14.1-23,41.1-58.8,53.4-71.9c1.7-1.7,3.1-1.4,3.3,0.6
		c0.8,4.9-1,10.9-8.1,20.2c-10.2,13.4-30.8,39-47.7,65c-1.1,1.7-2.4,2.4-4.2,0.7c-4.7-4.3-6.4-9.3-4.3-19.2
		c2.2-10.3,7-25.7,11.6-38.8C39.9,114.2,23.7,136.9,11.9,155.8z"/>
	<path id="XMLID_6_" class="st0" d="M100.1,152.5c11.6,0.6,21.7-10.6,27.7-19.8c0.7-1.1,1.8-1.1,2.4,0.1c0.6,1.1,0.1,5-2.4,8.6
		c-5.9,8.5-16.6,14.9-27.3,15.1c-17.7,0.3-23.8-17.1-14.8-35.1c9.1-18,23.3-25.2,30.3-21.2c3.5,2.1,6,4.2,8.2,7.2
		c2.5,3.3,1.4,11.8-4.5,19c-6.8,8.4-16.2,12-25.9,4C89.4,143.3,92.7,152.1,100.1,152.5z M111.7,120.5c4.5-5.9,7.5-13.1,5.6-14.6
		c-2.9-2.4-14.5,6-21.1,19.2c-0.4,0.8-0.8,1.7-1.1,2.4C101.9,131.8,107.6,125.8,111.7,120.5z"/>
	<path id="XMLID_9_" class="st0" d="M145.1,155.9c-7.4,0-12.1-3.8-14.6-9.9c-1.3,2.9-2.8,6.3-4,9.2c-0.6,1.4-1.4,1.5-2.2,0.4
		c-2.1-2.8-3.5-6.8-0.7-15.3c3.8-11.6,31.1-63.2,40.7-76.5c1.3-1.8,2.4-1.8,3.5,0.1c2.1,3.9,2.1,10.2-3.6,20.6
		c-2.1,3.9-8.1,13.5-12.4,21.2c4-3.6,8.4-5.9,12-5.9c11.8,0,12.4,16.4,4.7,33.5C161.8,147.9,153.2,155.9,145.1,155.9z M151.4,111.1
		c-6.3,6.6-13,18.1-18.1,28.9c0.3,4,2.1,8.5,5.9,9.3c4.9,1.1,11.3-3.1,19.4-19.2c7.9-15.8,6.3-24.3,3.1-24.5
		C158.6,105.3,155.6,106.8,151.4,111.1z"/>
	<path id="XMLID_12_" class="st0" d="M224.8,78.7c-0.6-1.5-0.4-2.4,1.4-2.6c9.6-1.3,16.6-6.8,25.7-8.2c8.9-1.4,15.9,3.2,21.1,12.3
		c12.8,22.3-12,63-49.4,75.4c-4,1.4-6.6,1-8.9-1c-1.7-1.4-3.9-3.2-5.9-6c-2.6-3.6-3.3-5.7-0.4-14.8c4.3-13.1,15.9-34.9,25.5-49.2
		C228.5,84.2,225.7,80.8,224.8,78.7z M237.7,97.8c-7,12.4-18.3,30.9-22.3,43.8c-1.8,5.9-0.8,7.8,3.3,6.3
		c38.1-14.5,55.6-54.4,47.4-67.5c-4.9-7.8-15.1-0.4-24.8,2.8C242,86.6,241.2,91.6,237.7,97.8z"/>
	<path id="XMLID_15_" class="st0" d="M291.1,152.5c11.6,0.6,21.7-10.6,27.7-19.8c0.7-1.1,1.8-1.1,2.4,0.1c0.6,1.1,0.1,5-2.4,8.6
		c-5.9,8.5-16.6,14.9-27.3,15.1c-17.7,0.3-23.8-17.1-14.8-35.1c9.1-18,23.3-25.2,30.3-21.2c3.5,2.1,6,4.2,8.2,7.2
		c2.5,3.3,1.4,11.8-4.5,19c-6.8,8.4-16.2,12-25.9,4C280.3,143.3,283.7,152.1,291.1,152.5z M302.6,120.5c4.5-5.9,7.5-13.1,5.6-14.6
		c-2.9-2.4-14.5,6-21.1,19.2c-0.4,0.8-0.8,1.7-1.1,2.4C292.9,131.8,298.6,125.8,302.6,120.5z"/>
	<path id="XMLID_20_" class="st0" d="M337.3,107.5c0.7-5.4,2.1-8.1,5-10.7c3.1-2.8,6.3-3.3,7.5-2.1c1.4,1.4,0.7,2.9-1.1,6.1
		c-0.6,0.8-1,1.7-1.5,2.6c-1,12.8,1.7,23.7,1.3,33.3c-0.3,5.4-1.3,11.3-6.3,14.6c9.3-3.5,15.2-11.8,18.7-19.4c0.7-1.5,2.1-1.1,2.6,0
		c0.6,1.3,0.4,4.9-2,9.2c-5.3,9.6-14.8,14.9-24.7,15.3c-8.1,0.3-15.9-1.8-20.6-10.5c-3.3-6.3-2.9-15.5,1.8-19.4
		c1.7-1.4,2.8-0.8,2.9,1.4c0.1,1.1,0.1,2.2,0.3,3.3C327,123.7,333.3,114.6,337.3,107.5z M322.6,139c2.1,8.1,6.1,13.8,10.7,12.4
		c6.4-2,4.3-23.8,3.8-35C333,123.8,327.9,131.5,322.6,139z"/>
	<path id="XMLID_23_" class="st0" d="M358.2,136.1c3.5-10.2,12.7-26.6,17.8-33.9c1.3-1.7,2.2-2.1,3.3-0.8c2.1,2.2,3.2,8.2-0.1,15.2
		c-2.9,6.1-8.8,15.6-11.7,22.6c-3.3,8.1-3.1,13.5,1.4,13.2c6.3-0.3,13.9-9.5,18.1-19.1c0.7-1.3,1.7-1.1,2.2,0c1.1,2.2,0.7,5.2-1,8.6
		c-4.2,8.6-13,14.5-20.8,14.5C357,156.5,354.3,147.5,358.2,136.1z M389.3,99.7c-1.8,2-5.7,1.5-7.8-2.1c-2.2-3.8-1.5-7.9,0.7-10.3
		c2.2-2.4,6.3-0.7,8.1,3.1C392.1,94,391.1,97.8,389.3,99.7z"/>
	<path id="XMLID_26_" class="st0" d="M416.8,160.1c-7.7,18.7-17.6,40.8-28.9,45.3c-2.8,1.1-5.6,0.7-8.1-2.9
		c-2.9-4.2-5.4-9.1-2.8-17.3c4-12.5,16-21.1,29.8-26.3c1.4-3.1,2.6-6.4,4-9.6c-4,4-8.9,7-14.1,7c-12.8,0-15.3-17.4-4-34.2
		c10.9-16.2,22.2-22.4,29.3-22.4c5.6,0,8.4,4.3,8.2,9.2c1.7-2.8,3.2-5.3,4.6-7.7c1.1-2,2.5-2.1,3.5-0.8c2.1,2.5,3.2,8.5-0.3,15.3
		c-4.2,8.4-13,25.2-18.8,38.8c11.7-5.9,19.4-13.5,25-20.9c0.8-1.1,2.1-1.1,2.4,0.3c0.3,1.3-0.4,4.3-2.8,8.1
		C438.4,150.3,428.4,155.9,416.8,160.1z M382.6,197.6c1.8,2.6,12.8-11.8,21.9-33C386.4,175.1,380.3,194.2,382.6,197.6z M424.2,106.7
		c-4.3-0.3-14.5,8.6-22.2,20.8c-7.5,12-9.1,24.3-3.5,24.4c5.4,0.1,12.5-8.6,19.7-20.9C427,115.6,428.2,107,424.2,106.7z"/>
	<path id="XMLID_30_" class="st0" d="M484.5,99.7c4.6,0.7,8.9,7.5,5.4,14.8c-2.9,6.1-9.8,16.4-13,23.7c-3.6,8.1-2.8,14.6,2.2,14.4
		c5.7-0.3,12.5-9.5,17.8-19.2c0.7-1.3,1.7-1.3,2.4-0.1c1,1.5,0.7,4.7-1.3,8.8c-3.8,7.8-12.5,14.9-20.6,14.9
		c-11.8,0-14.6-8.6-10.6-20.8c4.6-13.7,16.9-28.4,14.4-29.6c-1.4-0.6-9.5,3.3-18.4,13.1c-8.2,8.9-14.4,22.3-20.4,35.4
		c-0.6,1.3-1.4,1.8-2.6,0.6c-2.8-2.8-3.6-7.4-1.4-14.4c2.8-8.8,13.5-28.2,22.3-41.1c1-1.5,2.1-1.4,2.9,0c2.1,3.5,2,8.2,0.4,13.2
		C470.5,106.7,479.9,99,484.5,99.7z"/>
</g>
</svg>
