<?xml version="1.0" encoding="utf-8"?>
<!-- Generator: Adobe Illustrator 19.0.0, SVG Export Plug-In . SVG Version: 6.00 Build 0)  -->
<svg version="1.1" id="Layer_1" xmlns="http://www.w3.org/2000/svg" xmlns:xlink="http://www.w3.org/1999/xlink" x="0px" y="0px"
	 viewBox="0 0 405 405" enable-background="new 0 0 405 405" xml:space="preserve">
<path fill="#FFFFFF" d="M403.4,77.9c-14.8,6.6-30.7,11-47.4,13c17-10.2,30.1-26.4,36.3-45.6c-15.9,9.4-33.6,16.3-52.4,20
	c-15-16-36.5-26-60.2-26c-45.5,0-82.5,36.9-82.5,82.4c0,6.5,0.7,12.8,2.1,18.8C130.9,137,70.2,104.2,29.5,54.3
	c-7.1,12.2-11.2,26.3-11.2,41.5c0,28.6,14.6,53.8,36.7,68.6c-13.5-0.4-26.2-4.1-37.3-10.3c0,0.3,0,0.7,0,1
	c0,39.9,28.4,73.3,66.1,80.8c-6.9,1.9-14.2,2.9-21.7,2.9c-5.3,0-10.5-0.5-15.5-1.5c10.5,32.8,40.9,56.6,77,57.3
	c-28.2,22.1-63.8,35.3-102.4,35.3c-6.7,0-13.2-0.4-19.7-1.2c36.5,23.4,79.8,37,126.4,37c151.7,0,234.6-125.6,234.6-234.6
	c0-3.6-0.1-7.1-0.2-10.7C378.4,108.9,392.4,94.4,403.4,77.9z"/>
</svg>
