<?xml version="1.0" encoding="utf-8"?>
<!-- Generator: Adobe Illustrator 19.0.0, SVG Export Plug-In . SVG Version: 6.00 Build 0)  -->
<svg version="1.1" id="Layer_1" xmlns="http://www.w3.org/2000/svg" xmlns:xlink="http://www.w3.org/1999/xlink" x="0px" y="0px"
	 viewBox="0 0 180 180" enable-background="new 0 0 180 180" xml:space="preserve">
<line fill="none" stroke="#202123" stroke-width="7" stroke-linecap="round" stroke-linejoin="round" stroke-miterlimit="10" x1="20.9" y1="150.6" x2="34.5" y2="137"/>
<g>
	<path fill="none" stroke="#202123" stroke-width="7" stroke-linecap="round" stroke-linejoin="round" stroke-miterlimit="10" d="
		M18.7,122C9.6,110,4.3,95.5,4.3,80C4.3,38.2,42.7,4.3,90,4.3c14.4,0,27.9,3.1,39.8,8.6l-90.4,90.1l30.5,30.5l93.2-93.1
		c8,11.5,12.6,25.1,12.6,39.5c0,19-7.9,36.4-21,49.6l9.5,44.7l-42.9-23.9c-9.7,3.3-20.2,5.2-31.2,5.2c-10.9,0-21.4-1.8-31-5.1"/>
	
		<polygon fill="#FFFFFF" stroke="#202123" stroke-width="7" stroke-linecap="round" stroke-linejoin="round" stroke-miterlimit="10" points="
		39.4,103.1 26.5,145.5 69.9,133.6 	"/>
</g>
<line fill="none" stroke="#202123" stroke-width="7" stroke-linejoin="round" stroke-miterlimit="10" x1="50" y1="93" x2="79" y2="122"/>
</svg>
