<?xml version="1.0" encoding="utf-8"?>
<!-- Generator: Adobe Illustrator 19.0.0, SVG Export Plug-In . SVG Version: 6.00 Build 0)  -->
<svg version="1.1" id="Layer_1" xmlns="http://www.w3.org/2000/svg" xmlns:xlink="http://www.w3.org/1999/xlink" x="0px" y="0px"
	 viewBox="0 0 180 180" enable-background="new 0 0 180 180" xml:space="preserve">
<path fill="none" stroke="#202123" stroke-width="7" stroke-linecap="round" stroke-linejoin="round" stroke-miterlimit="10" d="
	M173.4,97.7c-3.3,12-9.8,23-18.7,32l9.7,42.1l-43.2-21.2c-9.7,3.4-20.2,5.2-31.3,5.2c-14,0-27.3-3-38.9-8.2L75,124.1l31.6-14.1
	c20.4-9.8,25.1-36.8,9-52.8l0,0c-16-16-43.1-11.4-52.8,9L48.7,97.8l-27.8,27.8C10.6,113.1,4.2,96.7,4.2,80C4.2,40.5,38.4,8.1,82,4.5
	"/>
<line fill="none" stroke="#202123" stroke-width="7" stroke-linecap="round" stroke-linejoin="round" stroke-miterlimit="10" x1="48.7" y1="97.8" x2="75" y2="124.1"/>
<line fill="none" stroke="#202123" stroke-width="7" stroke-linecap="round" stroke-linejoin="round" stroke-miterlimit="10" x1="46.6" y1="115.6" x2="57.7" y2="126.7"/>
<line fill="none" stroke="#202123" stroke-width="7" stroke-linecap="round" stroke-linejoin="round" stroke-miterlimit="10" x1="77" y1="108.7" x2="109.4" y2="93.9"/>
<g>
	<g>
		
			<line fill="none" stroke="#202123" stroke-width="7" stroke-linecap="round" stroke-linejoin="round" stroke-miterlimit="10" x1="113.5" y1="5" x2="113.5" y2="33"/>
	</g>
	<g>
		
			<line fill="none" stroke="#202123" stroke-width="7" stroke-linecap="round" stroke-linejoin="round" stroke-miterlimit="10" x1="147" y1="66.5" x2="175" y2="66.5"/>
	</g>
	<g>
		
			<line fill="none" stroke="#202123" stroke-width="7" stroke-linecap="round" stroke-linejoin="round" stroke-miterlimit="10" x1="142.5" y1="49.8" x2="166.8" y2="35.8"/>
	</g>
	<g>
		
			<line fill="none" stroke="#202123" stroke-width="7" stroke-linecap="round" stroke-linejoin="round" stroke-miterlimit="10" x1="130.2" y1="37.5" x2="144.2" y2="13.2"/>
	</g>
</g>
<line fill="none" stroke="#202123" stroke-width="7" stroke-linecap="round" stroke-linejoin="round" stroke-miterlimit="10" x1="87" y1="91.7" x2="108.4" y2="81.9"/>
</svg>
