<?xml version="1.0" encoding="utf-8"?>
<!-- Generator: Adobe Illustrator 19.0.0, SVG Export Plug-In . SVG Version: 6.00 Build 0)  -->
<svg version="1.1" id="Layer_1" xmlns="http://www.w3.org/2000/svg" xmlns:xlink="http://www.w3.org/1999/xlink" x="0px" y="0px"
	 viewBox="0 0 135.6 102.1" style="enable-background:new 0 0 135.6 102.1;" xml:space="preserve">
<style type="text/css">
	.st0{fill:#F7F9F9;}
</style>
<g id="XMLID_2_">
	<path id="XMLID_3_" class="st0" d="M77.9,6.1c-0.5,0.2-0.9,0.5-1.4,0.8c0.4-0.2,0.8-0.4,1.2-0.6C77.7,6.2,77.8,6.2,77.9,6.1z"/>
	<path id="XMLID_16_" class="st0" d="M2.6,1.2c0.5,0.2,1,0.4,1.4,0.6C3.6,1.6,3.1,1.4,2.6,1.2z"/>
	<path id="XMLID_17_" class="st0" d="M71.7,10c0.7-0.5,1.4-1,2.1-1.5C73.1,9,72.4,9.5,71.7,10z"/>
	<path id="XMLID_18_" class="st0" d="M5,2C4.9,2,4.8,2,4.8,2C4.8,2,4.9,2,5,2C5,2,5,2,5,2z"/>
	<path id="XMLID_19_" class="st0" d="M74.4,8.2c0.5-0.3,1.1-0.7,1.6-1C75.5,7.5,74.9,7.8,74.4,8.2z"/>
	<path id="XMLID_20_" class="st0" d="M58.8,6.7c0.1,0,0.1,0.1,0.2,0.1C59,6.8,58.9,6.8,58.8,6.7z"/>
	<path id="XMLID_21_" class="st0" d="M133.5,1c0.7-0.3,1.4-0.6,2.1-1C134.9,0.3,134.2,0.7,133.5,1z"/>
	<path id="XMLID_22_" class="st0" d="M0,0L0,0c0.7,0.3,1.4,0.7,2.1,1C1.4,0.7,0.7,0.3,0,0z"/>
	<path id="XMLID_23_" class="st0" d="M131.5,1.7c0.5-0.2,0.9-0.4,1.4-0.5C132.4,1.4,132,1.6,131.5,1.7z"/>
	<path id="XMLID_24_" class="st0" d="M130.8,2c-0.1,0-0.1,0-0.2,0.1c0,0,0,0,0,0C130.6,2,130.7,2,130.8,2z"/>
	<path id="XMLID_25_" class="st0" d="M59.6,7.2c0.5,0.3,1.1,0.6,1.6,1C60.6,7.8,60.1,7.5,59.6,7.2z"/>
	<path id="XMLID_26_" class="st0" d="M61.8,8.5c0.7,0.5,1.4,0.9,2.1,1.5C63.2,9.5,62.5,9,61.8,8.5z"/>
	<path id="XMLID_27_" class="st0" d="M59.1,6.9C59.1,6.9,59.1,6.9,59.1,6.9C59,6.9,59.1,6.9,59.1,6.9C59.1,6.9,59.1,6.9,59.1,6.9z"
		/>
	<path id="XMLID_28_" class="st0" d="M20.3,95.5c-0.2,0-0.3,0-0.5,0.1C20,95.5,20.2,95.5,20.3,95.5z"/>
	<path id="XMLID_29_" class="st0" d="M120.6,95.8c0.1,0,0.1,0,0.2,0c-0.2,0-0.3,0-0.5,0C120.4,95.8,120.5,95.8,120.6,95.8z"/>
	<path id="XMLID_30_" class="st0" d="M124.2,95.6c-0.3,0-0.5,0-0.8,0.1C123.7,95.7,123.9,95.6,124.2,95.6z"/>
	<path id="XMLID_31_" class="st0" d="M8.6,95.2c-0.3-0.1-0.5-0.1-0.8-0.2C8.1,95.1,8.3,95.1,8.6,95.2z"/>
	<path id="XMLID_32_" class="st0" d="M122.5,95.7c-0.3,0-0.5,0-0.8,0C121.9,95.8,122.2,95.8,122.5,95.7z"/>
	<path id="XMLID_33_" class="st0" d="M90.5,94.9c-0.2,0-0.4,0.1-0.6,0.1C90.1,94.9,90.3,94.9,90.5,94.9z"/>
	<path id="XMLID_34_" class="st0" d="M127.8,95c-0.3,0.1-0.5,0.1-0.8,0.2C127.2,95.1,127.5,95.1,127.8,95z"/>
	<path id="XMLID_35_" class="st0" d="M6.8,94.7c-0.3-0.1-0.5-0.1-0.8-0.2C6.2,94.6,6.5,94.6,6.8,94.7z"/>
	<path id="XMLID_36_" class="st0" d="M88.4,95.3c-0.2,0-0.4,0.1-0.6,0.1C88,95.4,88.2,95.4,88.4,95.3z"/>
	<path id="XMLID_37_" class="st0" d="M126,95.4c-0.3,0-0.5,0.1-0.8,0.1C125.4,95.4,125.7,95.4,126,95.4z"/>
	<path id="XMLID_38_" class="st0" d="M22.6,95.2c-0.1,0-0.2,0-0.4,0C22.4,95.2,22.5,95.2,22.6,95.2z"/>
	<path id="XMLID_39_" class="st0" d="M105.1,94.2c-0.7-0.1-1.5-0.1-2.2-0.2C103.6,94.1,104.4,94.1,105.1,94.2z"/>
	<path id="XMLID_40_" class="st0" d="M108,94.5c-0.8-0.1-1.5-0.2-2.3-0.3C106.4,94.3,107.2,94.4,108,94.5z"/>
	<path id="XMLID_41_" class="st0" d="M15,95.8c0.1,0,0.2,0,0.3,0c-0.2,0-0.3,0-0.5,0C14.8,95.8,14.9,95.8,15,95.8z"/>
	<path id="XMLID_42_" class="st0" d="M92.8,94.5c-0.1,0-0.2,0-0.3,0C92.6,94.5,92.7,94.5,92.8,94.5z"/>
	<path id="XMLID_43_" class="st0" d="M99,93.9c-0.1,0-0.3,0-0.4,0C98.7,93.9,98.9,93.9,99,93.9z"/>
	<path id="XMLID_44_" class="st0" d="M96.8,94c-0.1,0-0.2,0-0.4,0C96.6,94,96.7,94,96.8,94z"/>
	<path id="XMLID_45_" class="st0" d="M95,94.2c-0.2,0-0.4,0-0.6,0.1C94.6,94.2,94.8,94.2,95,94.2z"/>
	<path id="XMLID_46_" class="st0" d="M17.6,95.7c-0.1,0-0.3,0-0.4,0C17.4,95.7,17.5,95.7,17.6,95.7z"/>
	<path id="XMLID_47_" class="st0" d="M10.4,95.5c-0.3,0-0.5-0.1-0.8-0.1C9.9,95.4,10.1,95.4,10.4,95.5z"/>
	<path id="XMLID_48_" class="st0" d="M115.7,95.5c-0.2,0-0.3,0-0.5-0.1C115.4,95.5,115.6,95.5,115.7,95.5z"/>
	<path id="XMLID_49_" class="st0" d="M118.4,95.7c-0.1,0-0.3,0-0.4,0C118.1,95.7,118.2,95.7,118.4,95.7z"/>
	<path id="XMLID_50_" class="st0" d="M12.2,95.7c-0.3,0-0.5,0-0.8-0.1C11.6,95.6,11.9,95.7,12.2,95.7z"/>
	<path id="XMLID_51_" class="st0" d="M110.4,94.8c-0.7-0.1-1.4-0.2-2.1-0.3C109.1,94.7,109.8,94.7,110.4,94.8z"/>
	<path id="XMLID_52_" class="st0" d="M13.9,95.8c-0.3,0-0.5,0-0.8,0C13.4,95.8,13.6,95.8,13.9,95.8z"/>
	<path id="XMLID_53_" class="st0" d="M129.6,94.5c-0.3,0.1-0.5,0.1-0.8,0.2C129.1,94.6,129.4,94.6,129.6,94.5z"/>
	<path id="XMLID_54_" class="st0" d="M113.3,95.2c-0.1,0-0.3,0-0.4,0C113.1,95.2,113.2,95.2,113.3,95.2z"/>
	<path id="XMLID_55_" class="st0" d="M50.1,3.1c-0.5-0.1-1-0.3-1.5-0.4C49.2,2.8,49.7,3,50.1,3.1z"/>
	<path id="XMLID_56_" class="st0" d="M42.2,1.7c-0.6,0-1.2-0.1-1.8-0.1C41,1.7,41.6,1.7,42.2,1.7z"/>
	<path id="XMLID_57_" class="st0" d="M36.3,1.7c-0.1,0-0.2,0-0.3,0C36.1,1.7,36.2,1.7,36.3,1.7z"/>
	<path id="XMLID_58_" class="st0" d="M24.3,3c-0.8,0.1-1.5,0.2-2.3,0.3C22.8,3.2,23.5,3.1,24.3,3z"/>
	<path id="XMLID_59_" class="st0" d="M33.6,1.9c-0.2,0-0.4,0-0.6,0.1C33.2,2,33.4,1.9,33.6,1.9z"/>
	<path id="XMLID_60_" class="st0" d="M46.1,2.2C45.6,2.1,45,2,44.5,2C45,2,45.6,2.1,46.1,2.2z"/>
	<path id="XMLID_61_" class="st0" d="M27.5,2.6c-0.9,0.1-1.8,0.2-2.7,0.3C25.7,2.9,26.6,2.7,27.5,2.6z"/>
	<path id="XMLID_62_" class="st0" d="M30.4,2.3c-0.2,0-0.4,0-0.5,0.1C30.1,2.3,30.3,2.3,30.4,2.3z"/>
	<path id="XMLID_63_" class="st0" d="M44,1.9c-0.5-0.1-1-0.1-1.5-0.1C43,1.8,43.5,1.8,44,1.9z"/>
	<path id="XMLID_64_" class="st0" d="M56.7,5.6c-0.5-0.3-1.1-0.5-1.6-0.7C55.6,5.1,56.1,5.3,56.7,5.6z"/>
	<path id="XMLID_65_" class="st0" d="M59.1,6.9C59.1,6.9,59,6.9,59.1,6.9C59,6.9,59,6.9,59.1,6.9c-0.1-0.1-0.2-0.1-0.2-0.1
		c-0.6-0.3-1.2-0.6-1.7-0.9C57.7,6.1,58.4,6.5,59.1,6.9z"/>
	<path id="XMLID_66_" class="st0" d="M54.5,4.6c-0.6-0.2-1.2-0.5-1.7-0.7C53.3,4.1,53.9,4.4,54.5,4.6z"/>
	<path id="XMLID_67_" class="st0" d="M85.6,96.1c-0.1,0-0.2,0.1-0.3,0.1C85.4,96.2,85.5,96.1,85.6,96.1z"/>
	<path id="XMLID_68_" class="st0" d="M48.2,2.6c-0.6-0.1-1.2-0.3-1.8-0.4C47,2.3,47.6,2.5,48.2,2.6z"/>
	<path id="XMLID_69_" class="st0" d="M52.6,3.9c-0.6-0.2-1.3-0.4-1.9-0.6C51.3,3.4,51.9,3.6,52.6,3.9z"/>
	<path id="XMLID_70_" class="st0" d="M133.5,93.1c-0.2,0.1-0.4,0.2-0.7,0.3C133.1,93.3,133.3,93.2,133.5,93.1z"/>
	<path id="XMLID_71_" class="st0" d="M2.7,93.3c-0.2-0.1-0.4-0.2-0.7-0.3C2.3,93.2,2.5,93.2,2.7,93.3z"/>
	<path id="XMLID_72_" class="st0" d="M38.9,1.6c0.3,0,0.7,0,1,0c-0.2,0-0.5,0-0.7,0C39.2,1.6,39.1,1.6,38.9,1.6z"/>
	<path id="XMLID_73_" class="st0" d="M6.1,2.4C5.7,2.3,5.3,2.1,5,2c0,0,0,0,0,0C5.3,2.1,5.7,2.3,6.1,2.4z"/>
	<path id="XMLID_74_" class="st0" d="M33,94c0.8,0,1.7-0.1,2.5-0.1C34.6,93.9,33.8,94,33,94z"/>
	<path id="XMLID_75_" class="st0" d="M131.5,93.9c-0.3,0.1-0.5,0.2-0.8,0.3C131,94,131.3,94,131.5,93.9z"/>
	<path id="XMLID_76_" class="st0" d="M4.8,94.1C4.5,94,4.3,94,4,93.9C4.3,94,4.5,94,4.8,94.1z"/>
	<path id="XMLID_77_" class="st0" d="M21.5,3.3c-0.8,0.1-1.7,0.1-2.5,0.2C19.9,3.5,20.7,3.4,21.5,3.3z"/>
	<path id="XMLID_78_" class="st0" d="M13.9,3.6c-0.3,0-0.7,0-1.1-0.1C13.2,3.5,13.5,3.6,13.9,3.6z"/>
	<path id="XMLID_79_" class="st0" d="M8.1,2.9C7.6,2.8,7.2,2.7,6.8,2.6C7.2,2.7,7.6,2.8,8.1,2.9z"/>
	<path id="XMLID_80_" class="st0" d="M18.4,3.6c-0.8,0-1.6,0.1-2.4,0.1C16.8,3.6,17.6,3.6,18.4,3.6z"/>
	<path id="XMLID_81_" class="st0" d="M15.8,3.6c-0.3,0-0.7,0-1,0C15.1,3.6,15.4,3.6,15.8,3.6z"/>
	<path id="XMLID_82_" class="st0" d="M10,3.2C9.6,3.2,9.2,3.1,8.8,3C9.2,3.1,9.6,3.2,10,3.2z"/>
	<path id="XMLID_83_" class="st0" d="M11.9,3.5c-0.4,0-0.7-0.1-1.1-0.1C11.2,3.4,11.6,3.4,11.9,3.5z"/>
	<path id="XMLID_84_" class="st0" d="M105.7,2.3c-0.2,0-0.4,0-0.5-0.1C105.3,2.3,105.5,2.3,105.7,2.3z"/>
	<path id="XMLID_85_" class="st0" d="M47.8,95.5c-0.2-0.1-0.4-0.1-0.6-0.2C47.4,95.4,47.6,95.4,47.8,95.5z"/>
	<path id="XMLID_86_" class="st0" d="M99.5,1.7c-0.1,0-0.2,0-0.3,0C99.3,1.7,99.4,1.7,99.5,1.7z"/>
	<path id="XMLID_87_" class="st0" d="M102.6,2c-0.2,0-0.4,0-0.6-0.1C102.2,1.9,102.4,2,102.6,2z"/>
	<path id="XMLID_88_" class="st0" d="M95.1,1.7c-0.6,0-1.2,0-1.8,0.1C94,1.7,94.5,1.7,95.1,1.7z"/>
	<path id="XMLID_89_" class="st0" d="M45.6,95c-0.2,0-0.4-0.1-0.6-0.1C45.3,94.9,45.4,94.9,45.6,95z"/>
	<path id="XMLID_90_" class="st0" d="M50.3,96.2c-0.1,0-0.2-0.1-0.3-0.1C50.1,96.1,50.2,96.2,50.3,96.2z"/>
	<path id="XMLID_91_" class="st0" d="M119.6,3.6c-0.8,0-1.6,0-2.4-0.1C117.9,3.6,118.7,3.6,119.6,3.6z"/>
	<path id="XMLID_92_" class="st0" d="M116.6,3.5c-0.8-0.1-1.7-0.1-2.5-0.2C114.9,3.4,115.7,3.5,116.6,3.5z"/>
	<path id="XMLID_93_" class="st0" d="M93.1,1.8c-0.5,0-1,0.1-1.5,0.1C92.1,1.8,92.6,1.8,93.1,1.8z"/>
	<path id="XMLID_94_" class="st0" d="M41.2,94.2c-0.2,0-0.4,0-0.6-0.1C40.8,94.2,41,94.2,41.2,94.2z"/>
	<path id="XMLID_95_" class="st0" d="M113.6,3.3c-0.8-0.1-1.5-0.2-2.3-0.3C112.1,3.1,112.8,3.2,113.6,3.3z"/>
	<path id="XMLID_96_" class="st0" d="M43.1,94.5c-0.1,0-0.2,0-0.3,0C42.9,94.5,43,94.5,43.1,94.5z"/>
	<path id="XMLID_97_" class="st0" d="M110.8,3c-0.9-0.1-1.8-0.2-2.7-0.3C108.9,2.7,109.8,2.9,110.8,3z"/>
	<path id="XMLID_98_" class="st0" d="M84.9,3.2c-0.6,0.2-1.3,0.4-1.9,0.6C83.6,3.6,84.3,3.4,84.9,3.2z"/>
	<path id="XMLID_99_" class="st0" d="M91,2c-0.5,0.1-1,0.1-1.5,0.2C90,2.1,90.5,2,91,2z"/>
	<path id="XMLID_100_" class="st0" d="M58.4,99.4c-0.2-0.1-0.4-0.2-0.6-0.3C58,99.2,58.2,99.3,58.4,99.4z"/>
	<path id="XMLID_101_" class="st0" d="M61.2,100.7c-0.3-0.1-0.5-0.3-0.8-0.4C60.7,100.4,60.9,100.6,61.2,100.7z"/>
	<path id="XMLID_102_" class="st0" d="M80.5,4.9c-0.5,0.2-1.1,0.5-1.6,0.7C79.4,5.3,80,5.1,80.5,4.9z"/>
	<path id="XMLID_103_" class="st0" d="M78.5,5.8c-0.2,0.1-0.4,0.2-0.6,0.3c-0.1,0-0.1,0.1-0.2,0.1C77.9,6.1,78.2,5.9,78.5,5.8z"/>
	<path id="XMLID_105_" class="st0" d="M95.6,1.6c0.3,0,0.7,0,1,0c-0.1,0-0.2,0-0.3,0C96.1,1.6,95.8,1.6,95.6,1.6z"/>
	<path id="XMLID_106_" class="st0" d="M89.2,2.2c-0.6,0.1-1.2,0.2-1.8,0.4C88,2.5,88.6,2.3,89.2,2.2z"/>
	<path id="XMLID_107_" class="st0" d="M52.9,97.1c-0.2-0.1-0.5-0.2-0.7-0.2C52.4,96.9,52.7,97,52.9,97.1z"/>
	<path id="XMLID_108_" class="st0" d="M86.9,2.7c-0.5,0.1-1,0.2-1.5,0.4C85.9,3,86.4,2.8,86.9,2.7z"/>
	<path id="XMLID_109_" class="st0" d="M82.8,3.9c-0.6,0.2-1.2,0.4-1.7,0.7C81.6,4.4,82.2,4.1,82.8,3.9z"/>
	<path id="XMLID_110_" class="st0" d="M55.3,98c-0.2-0.1-0.3-0.1-0.5-0.2C55,97.9,55.1,97.9,55.3,98z"/>
	<path id="XMLID_111_" class="st0" d="M120.8,3.6c-0.3,0-0.7,0-1,0C120.1,3.6,120.5,3.6,120.8,3.6z"/>
	<path id="XMLID_112_" class="st0" d="M75.2,100.3c-0.2,0.1-0.5,0.2-0.8,0.4C74.7,100.6,74.9,100.4,75.2,100.3z"/>
	<path id="XMLID_113_" class="st0" d="M130.6,2C130.6,2,130.6,2,130.6,2c-0.4,0.1-0.7,0.2-1.1,0.3C129.9,2.3,130.2,2.1,130.6,2z"/>
	<path id="XMLID_114_" class="st0" d="M100.1,93.9c0.9,0,1.7,0,2.5,0.1C101.8,94,100.9,93.9,100.1,93.9z"/>
	<path id="XMLID_115_" class="st0" d="M32.7,94c-0.8,0-1.5,0.1-2.2,0.2C31.2,94.1,32,94.1,32.7,94z"/>
	<path id="XMLID_116_" class="st0" d="M37,93.9c-0.1,0-0.3,0-0.4,0C36.7,93.9,36.8,93.9,37,93.9z"/>
	<path id="XMLID_117_" class="st0" d="M128.7,2.6c-0.4,0.1-0.8,0.2-1.2,0.3C127.9,2.8,128.3,2.7,128.7,2.6z"/>
	<path id="XMLID_118_" class="st0" d="M27.1,94.6c-0.7,0.1-1.3,0.2-2,0.3C25.8,94.7,26.5,94.7,27.1,94.6z"/>
	<path id="XMLID_119_" class="st0" d="M83.3,96.8c-0.2,0.1-0.5,0.2-0.7,0.2C82.9,97,83.1,96.9,83.3,96.8z"/>
	<path id="XMLID_120_" class="st0" d="M126.7,3c-0.4,0.1-0.8,0.2-1.2,0.2C125.9,3.2,126.3,3.1,126.7,3z"/>
	<path id="XMLID_121_" class="st0" d="M29.9,94.2c-0.8,0.1-1.5,0.2-2.3,0.3C28.4,94.4,29.1,94.3,29.9,94.2z"/>
	<path id="XMLID_122_" class="st0" d="M80.8,97.8c-0.2,0.1-0.3,0.1-0.5,0.2C80.4,97.9,80.6,97.9,80.8,97.8z"/>
	<path id="XMLID_123_" class="st0" d="M77.8,99.1c-0.2,0.1-0.4,0.2-0.6,0.3C77.4,99.3,77.6,99.2,77.8,99.1z"/>
	<path id="XMLID_124_" class="st0" d="M124.7,3.3c-0.4,0-0.7,0.1-1.1,0.1C124,3.4,124.4,3.4,124.7,3.3z"/>
	<path id="XMLID_125_" class="st0" d="M39.1,94c-0.1,0-0.2,0-0.4,0C38.9,94,39,94,39.1,94z"/>
	<path id="XMLID_126_" class="st0" d="M122.8,3.5c-0.4,0-0.7,0.1-1.1,0.1C122.1,3.6,122.4,3.5,122.8,3.5z"/>
	<g id="XMLID_1_">
		<path id="XMLID_4_" class="st0" d="M131.8,2c0.8,0,1.7,0,2.4,0C133.5,2,132.6,2,131.8,2z"/>
		<path id="XMLID_7_" class="st0" d="M61.3,8.2c-0.5-0.3-1.1-0.7-1.7-1c-0.2-0.1-0.4-0.2-0.5-0.3c0,0,0,0,0,0
			c1.4,0.8,2.8,1.8,4.2,2.8c-1.4-1-2.9-2-4.3-2.8c-0.7-0.4-1.3-0.7-2-1.1c-0.1-0.1-0.3-0.1-0.4-0.2c-0.5-0.3-1.1-0.5-1.6-0.7
			c-0.2-0.1-0.4-0.2-0.6-0.2c-0.6-0.2-1.2-0.5-1.7-0.7c-0.1,0-0.1-0.1-0.2-0.1c-0.6-0.2-1.3-0.4-1.9-0.6c-0.2-0.1-0.3-0.1-0.5-0.1
			c-0.5-0.1-1-0.3-1.5-0.4c-0.2,0-0.3-0.1-0.5-0.1c-0.6-0.1-1.2-0.3-1.8-0.4c-0.1,0-0.2,0-0.3,0C45.6,2.1,45,2,44.5,2
			c-0.2,0-0.3,0-0.5-0.1c-0.5-0.1-1-0.1-1.5-0.1c-0.1,0-0.2,0-0.3,0c-0.6,0-1.2-0.1-1.8-0.1c-0.2,0-0.3,0-0.5,0c-0.3,0-0.7,0-1,0
			c-0.9,0-1.8,0-2.6,0.1c-0.1,0-0.2,0-0.3,0c-0.8,0-1.6,0.1-2.5,0.2c-0.2,0-0.4,0-0.6,0.1c-0.9,0.1-1.7,0.2-2.6,0.3
			c-0.2,0-0.4,0-0.5,0.1c-0.8,0.1-1.6,0.2-2.3,0.3c-0.9,0.1-1.8,0.2-2.7,0.3c-0.2,0-0.4,0-0.5,0.1c-0.8,0.1-1.5,0.2-2.3,0.3
			c-0.2,0-0.3,0-0.5,0c-0.8,0.1-1.7,0.1-2.5,0.2c-0.2,0-0.4,0-0.6,0c-0.8,0-1.6,0.1-2.4,0.1c-0.1,0-0.1,0-0.2,0c0,0,0,0-0.1,0
			c-0.3,0-0.7,0-1,0c-0.3,0-0.6,0-0.9,0c-0.3,0-0.7,0-1.1-0.1c-0.3,0-0.6,0-0.9-0.1c-0.4,0-0.7-0.1-1.1-0.1c-0.3,0-0.5-0.1-0.8-0.1
			C9.6,3.2,9.2,3.1,8.8,3C8.6,3,8.3,2.9,8.1,2.9C7.6,2.8,7.2,2.7,6.8,2.6C6.6,2.5,6.3,2.4,6.1,2.4C5.7,2.3,5.5,2.1,5.1,2
			C5.1,2,4.9,2,4.9,2C4.6,1.9,4.4,1.8,4.1,1.7c-0.5-0.2-1-0.4-1.5-0.6C2.5,1.1,2.4,1,2.2,1C1.5,0.7,0.3,0.3,0.3,0c0,0.6,0,1.3,0,1.9
			c0,30.1,0,60.1,0,90.2c0,0.4,1.2,0.7,1.9,1c0.2,0.1,0.4,0.2,0.6,0.3c0.4,0.2,0.8,0.4,1.3,0.5C4.3,94,4.6,94,4.8,94.1
			c0.4,0.1,0.8,0.3,1.1,0.4c0.3,0.1,0.5,0.1,0.8,0.2c0.3,0.1,0.7,0.2,1,0.3c0.3,0.1,0.5,0.1,0.8,0.2c0.3,0.1,0.7,0.1,1,0.2
			c0.3,0,0.5,0.1,0.8,0.1c0.3,0,0.6,0.1,0.9,0.1c0.3,0,0.5,0,0.8,0.1c0.3,0,0.6,0.1,0.9,0.1c0.3,0,0.5,0,0.8,0c0.3,0,0.6,0,0.9,0
			c0.2,0,0.3,0,0.5,0c0.6,0,1.3,0,1.9-0.1c0.1,0,0.3,0,0.4,0c0.7,0,1.5-0.1,2.2-0.2c0.2,0,0.3,0,0.5-0.1c0.6-0.1,1.3-0.1,1.9-0.2
			c0.1,0,0.2,0,0.4,0c0.8-0.1,1.7-0.2,2.5-0.3c0.6-0.1,1.3-0.2,2-0.3c0.2,0,0.3,0,0.5-0.1c0.7-0.1,1.5-0.2,2.3-0.3
			c0.2,0,0.4,0,0.6-0.1c0.7-0.1,1.5-0.1,2.2-0.2c0.1,0,0.2,0,0.3,0c0.8,0,1.7-0.1,2.5-0.1c0.1,0,0.2,0,0.3,0c0.2,0,0.5,0,0.8,0
			c0.1,0,0.3,0,0.4,0c0.6,0,1.2,0,1.8,0.1c0.1,0,0.2,0,0.4,0c0.5,0,1,0.1,1.5,0.1c0.2,0,0.4,0,0.6,0.1c0.5,0.1,1.1,0.1,1.6,0.2
			c0.1,0,0.2,0,0.3,0c0.6,0.1,1.3,0.2,2,0.4c0.2,0,0.4,0.1,0.6,0.1c0.5,0.1,1,0.2,1.6,0.4c0.2,0,0.4,0.1,0.6,0.2
			c0.7,0.2,1.4,0.4,2.1,0.6c0.1,0,0.2,0.1,0.3,0.1c0.6,0.2,1.3,0.4,1.9,0.6c0.2,0.1,0.5,0.2,0.7,0.2c0.6,0.2,1.3,0.5,1.9,0.7
			c0.2,0.1,0.3,0.1,0.5,0.2c0.8,0.3,1.6,0.7,2.4,1.1c0.2,0.1,0.4,0.2,0.6,0.3c0.7,0.3,1.3,0.6,2,1c0.3,0.1,0.7,0.2,1,0.4
			c0.9,0.4,1.9,0.9,2.9,1.4c0-28.4,0-56.7,0-85.1c0-2.4,0-4.7,0-7.1c-1-0.5-1.6-1-2.3-1.5C61.8,8.4,61.5,8.3,61.3,8.2z"/>
		<path id="XMLID_13_" class="st0" d="M133.4,1c-0.2,0.1-0.3,0.2-0.6,0.2c-0.5,0.2-0.9,0.4-1.4,0.5c-0.2,0.1-0.5,0.2-0.7,0.2
			c-0.1,0-0.3,0.1-0.3,0.1c0,0,0,0,0,0c-0.4,0-0.7,0.2-1,0.3c-0.3,0.1-0.5,0.1-0.7,0.2c-0.4,0.1-0.8,0.2-1.2,0.3
			C127.2,2.9,127,3,126.7,3c-0.4,0.1-0.8,0.2-1.1,0.2c-0.3,0-0.6,0.1-0.8,0.1c-0.4,0-0.7,0.1-1.1,0.1c-0.3,0-0.6,0-0.9,0.1
			c-0.4,0-0.7,0.1-1.1,0.1c-0.3,0-0.6,0-0.9,0c-0.3,0-0.7,0-1,0c0,0,0,0-0.1,0c-0.1,0-0.1,0-0.2,0c-0.8,0-1.6,0-2.4-0.1
			c-0.2,0-0.4,0-0.6,0c-0.8-0.1-1.7-0.1-2.5-0.2c-0.2,0-0.3,0-0.5,0c-0.8-0.1-1.5-0.2-2.3-0.3c-0.2,0-0.4,0-0.5-0.1
			c-0.9-0.1-1.8-0.2-2.7-0.3c-0.8-0.1-1.6-0.2-2.3-0.3c-0.2,0-0.4,0-0.5-0.1c-0.8-0.1-1.7-0.2-2.6-0.3c-0.2,0-0.4,0-0.6-0.1
			c-0.8-0.1-1.6-0.1-2.5-0.2c-0.1,0-0.2,0-0.3,0c-0.9,0-1.8-0.1-2.6-0.1c-0.3,0-0.7,0-1,0c-0.2,0-0.3,0-0.5,0c-0.6,0-1.2,0-1.8,0.1
			c-0.1,0-0.2,0-0.3,0c-0.5,0-1,0.1-1.5,0.1c-0.2,0-0.4,0-0.5,0.1c-0.5,0.1-1,0.1-1.5,0.2c-0.1,0-0.2,0-0.3,0
			c-0.6,0.1-1.2,0.2-1.8,0.4c-0.2,0-0.3,0.1-0.5,0.1c-0.5,0.1-1,0.2-1.5,0.4c-0.2,0-0.3,0.1-0.5,0.1c-0.6,0.2-1.3,0.4-1.9,0.6
			c-0.1,0-0.1,0.1-0.2,0.1c-0.6,0.2-1.2,0.4-1.7,0.7c-0.2,0.1-0.4,0.2-0.6,0.2c-0.5,0.2-1.1,0.5-1.6,0.7c-0.1,0.1-0.3,0.1-0.4,0.2
			c-0.3,0.1-0.5,0.3-0.8,0.4c-0.4,0.2-0.8,0.4-1.2,0.6C76.3,7,76.2,7.1,76,7.2c-0.5,0.3-1.1,0.6-1.6,1c-0.2,0.1-0.6,0.2-0.8,0.4
			C72.9,9,72.3,9.5,71.3,10c0,2.4,0,4.7,0,7.1c0,28.4,0,56.7,0,85.1c1-0.5,2-1,2.9-1.4c0.3-0.1,0.6-0.2,0.8-0.4
			c0.7-0.3,1.4-0.7,2.1-1c0.2-0.1,0.4-0.2,0.6-0.3c0.8-0.4,1.7-0.7,2.5-1.1c0.2-0.1,0.3-0.1,0.5-0.2c0.6-0.3,1.3-0.5,1.9-0.7
			c0.2-0.1,0.5-0.2,0.7-0.2c0.7-0.2,1.3-0.5,2-0.7c0.1,0,0.2-0.1,0.3-0.1c0.7-0.2,1.4-0.4,2.2-0.6c0.2-0.1,0.4-0.1,0.6-0.1
			c0.5-0.1,1.1-0.3,1.6-0.4c0.2,0,0.4-0.1,0.6-0.1c0.7-0.1,1.3-0.3,2-0.4c0.1,0,0.2,0,0.3,0c0.6-0.1,1.1-0.2,1.6-0.2
			c0.2,0,0.4,0,0.6-0.1c0.5-0.1,1-0.1,1.5-0.1c0.1,0,0.2,0,0.4,0c0.6,0,1.2-0.1,1.8-0.1c0.1,0,0.3,0,0.4,0c0.3,0,0.5,0,0.8,0
			c0.1,0,0.2,0,0.3,0c0.9,0,1.7,0,2.5,0.1c0.1,0,0.2,0,0.3,0c0.8,0,1.5,0.1,2.2,0.2c0.2,0,0.4,0,0.6,0.1c0.8,0.1,1.5,0.2,2.3,0.3
			c0.1,0,0.3,0,0.4,0.1c0.7,0.1,1.4,0.2,2.1,0.3c0.8,0.1,1.7,0.2,2.5,0.3c0.1,0,0.3,0,0.4,0c0.6,0.1,1.3,0.2,1.9,0.2
			c0.2,0,0.3,0,0.5,0.1c0.7,0.1,1.5,0.1,2.2,0.2c0.1,0,0.3,0,0.4,0c0.6,0,1.3,0.1,1.9,0.1c0.2,0,0.3,0,0.5,0c0.3,0,0.6,0,0.9,0
			c0.3,0,0.5,0,0.8,0c0.3,0,0.6,0,0.9-0.1c0.3,0,0.5,0,0.8-0.1c0.3,0,0.6-0.1,0.9-0.1c0.3,0,0.5-0.1,0.8-0.1c0.3-0.1,0.7-0.1,1-0.2
			c0.3-0.1,0.5-0.1,0.8-0.2c0.3-0.1,0.7-0.2,1-0.3c0.3-0.1,0.5-0.1,0.8-0.2c0.4-0.1,0.8-0.2,1.1-0.4c0.3-0.1,0.5-0.2,0.8-0.3
			c0.4-0.2,0.9-0.3,1.3-0.5c0.2-0.1,0.3-0.2,0.6-0.3c0.7-0.3,1.9-0.6,1.9-1c0-30.1,0-60.1,0-90.2c0-0.6,0-1.3,0-1.9
			C135.3,0.3,134.1,0.7,133.4,1z M131.8,2c0.8,0,1.7,0,2.4,0C133.5,2,132.6,2,131.8,2z"/>
	</g>
</g>
</svg>
