<?xml version="1.0" encoding="utf-8"?>
<!-- Generator: Adobe Illustrator 19.0.0, SVG Export Plug-In . SVG Version: 6.00 Build 0)  -->
<svg version="1.1" id="Capa_1" xmlns="http://www.w3.org/2000/svg" xmlns:xlink="http://www.w3.org/1999/xlink" x="0px" y="0px"
	 viewBox="-230 231.9 38.1 38.1" style="enable-background:new -230 231.9 38.1 38.1;" xml:space="preserve">
<style type="text/css">
	.st0{fill:#F7F9F9;}
</style>
<g>
	<path class="st0" d="M-191.9,251v12.4c0,1-0.8,1.8-1.8,1.8h-4c-0.3,0-0.5-0.1-0.8-0.2l-3.2-1.5v2c0,1-0.8,1.8-1.8,1.8h-24.8
		c-1,0-1.8-0.8-1.8-1.8v-16.7c0-1,0.8-1.8,1.8-1.8h24.8c1,0,1.8,0.8,1.8,1.8v2l3.2-1.5c0.2-0.1,0.5-0.2,0.8-0.2h4
		C-192.7,249.1-191.9,250-191.9,251z M-209.1,245.4c3,0,5.4-2.4,5.4-5.4s-2.4-5.4-5.4-5.4c-3,0-5.4,2.4-5.4,5.4
		S-212.1,245.4-209.1,245.4z M-223.6,245.4c3,0,5.4-2.4,5.4-5.4s-2.4-5.4-5.4-5.4s-5.4,2.4-5.4,5.4S-226.6,245.4-223.6,245.4z"/>
</g>
</svg>
