<?xml version="1.0" encoding="utf-8"?>
<!-- Generator: Adobe Illustrator 19.0.0, SVG Export Plug-In . SVG Version: 6.00 Build 0)  -->
<svg version="1.1" xmlns="http://www.w3.org/2000/svg" xmlns:xlink="http://www.w3.org/1999/xlink" x="0px" y="0px"
	 viewBox="0 0 507.8 466.7" style="enable-background:new 0 0 507.8 466.7;" xml:space="preserve">
<style type="text/css">
	.st0{fill:#202123;stroke:#F7F9F9;stroke-width:14;stroke-linecap:round;stroke-linejoin:round;stroke-miterlimit:10;}
	.st1{fill:#F7F9F9;}
	.st2{fill:#F7F9F9;stroke:#F7F9F9;stroke-width:14;stroke-linecap:round;stroke-linejoin:round;stroke-miterlimit:10;}
	.st3{fill:#F7F9F9;stroke:#FFFFFF;stroke-width:14;stroke-linecap:round;stroke-linejoin:round;stroke-miterlimit:10;}
	.st4{fill:#202123;}
	.st5{fill:none;stroke:#F7F9F9;stroke-width:8;stroke-miterlimit:10;}
</style>
<g id="envelope_base">
	<path id="XMLID_1_" class="st0" d="M456.5,446.9H103.3V253.3L266.5,154c6.3-3.5,14.1-3.6,20.4-0.2l169.6,99.4V446.9z"/>
</g>
<g id="envelope_top">
	<g id="letter">
		<g id="XMLID_6_">
			<polygon id="XMLID_4_" class="st0" points="423.7,363.1 136,363.1 136,7 364.2,7 423.7,61.7 			"/>
			<polygon id="XMLID_8_" class="st0" points="363.5,61.7 423.7,61.7 364.2,7 			"/>
		</g>
		<g id="XMLID_13_">
			<path id="XMLID_14_" class="st1" d="M220.1,198.9c1.8-2.5,3.9-5.2,6.2-8c2.3-2.9,5.4-6.2,9.2-9.9c3.8-3.7,7-6.4,9.4-8.1
				c2.4-1.6,4.8-2.5,6.9-2.5c0.5,0,1.1,0.1,1.8,0.3s1.3,0.6,1.9,1.1s1.1,1.3,1.5,2.3c0.4,1,0.6,2.3,0.6,3.8c0,3.1-0.4,6.1-1.3,9.1
				c-0.9,3-2.5,6.5-4.9,10.7c-2.4,4.2-4,7.9-4.8,10.9c-0.8,3.1-1.2,6.3-1.2,9.6c0,1.8,0.3,3.3,0.8,4.4c0.5,1.1,1.2,1.6,2.1,1.6
				c1.1,0,2.2-0.2,3.4-0.7s2.4-1,3.6-1.8c1.2-0.7,2.4-1.6,3.6-2.5c1.2-0.9,2.3-1.9,3.3-2.9c2.5-2.3,4.9-4.9,7.3-7.9l1.1,17.9
				c-0.8,0.6-1.8,1.3-3.1,2.2c-1.2,0.9-2.6,1.8-4.1,2.8c-1.5,1-3.1,2-4.9,3c-1.8,1-3.5,1.9-5.3,2.7c-1.8,0.8-3.5,1.4-5.3,1.9
				c-1.8,0.5-3.5,0.8-5.1,0.8c-2.5,0-4.7-0.6-6.6-1.9c-1.9-1.3-3.4-2.9-4.6-4.8c-1.2-1.9-2.1-4.1-2.7-6.4s-0.9-4.5-0.9-6.5
				c0-1.5,0.2-3.1,0.6-4.9c0.4-1.8,0.9-3.6,1.5-5.4c0.6-1.8,1.2-3.6,2-5.3c0.7-1.7,1.4-3.3,2-4.6c0.6-1.4,1.2-2.5,1.6-3.3
				c0.5-0.9,0.8-1.4,0.9-1.5l-1.4-0.2c-0.8,0.5-2.1,1.7-3.9,3.7c-1.8,2-3.9,4.5-6.2,7.6s-4.7,6.5-7.1,10.3
				c-2.4,3.8-4.7,7.7-6.6,11.8c-1,2-1.8,3.7-2.4,5.2c-0.6,1.5-1.2,2.7-1.9,3.6c-0.6,0.9-1.3,1.6-2,2.1c-0.7,0.5-1.6,0.7-2.8,0.7
				c-1.5,0-2.7-0.4-3.5-1.2c-0.9-0.8-1.5-1.9-2-3.2c-0.4-1.3-0.7-2.8-0.9-4.5c-0.1-1.7-0.2-3.4-0.2-5.2c0-3.1,0-7.1,0.1-12.1
				s0.3-10.5,0.6-16.6c0.4-6.1,1-12.4,2-18.9c1-6.5,1.9-13,2.8-19.4c0.9-6.4,2.3-12.6,4.2-18.4s4.1-11,6.8-15.4
				c2.7-4.4,5.8-8,9.4-10.6c3.6-2.6,7.7-3.9,12.4-3.9c2.4,0,4.4,0.4,6,1.1c1.5,0.7,2.8,1.7,3.7,3.1c0.9,1.3,1.6,2.9,1.9,4.7
				c0.4,1.8,0.5,3.9,0.5,6.1c0,3.4-0.5,7.1-1.4,11.2s-2.2,8.3-3.7,12.7c-1.5,4.4-3.3,8.9-5.3,13.4c-2,4.5-4,8.9-6.1,13.1
				c-2.1,4.2-4.1,8.2-6.1,12c-2,3.8-3.8,7.1-5.3,9.9L220.1,198.9z M226.1,156.5c2.7-6.9,4.6-12.7,5.8-17.4s1.8-8.2,1.8-10.4
				c0-3.4-0.5-5.1-1.4-5.1c-1.2,0-2.9,1.9-5.2,5.7c-2.3,3.8-5,9.4-8.1,16.6c-0.8,2.5-1.5,5-2.1,7.7c-0.7,2.6-1.2,5.3-1.5,7.9
				c-0.4,2.6-0.8,5.2-1.1,7.8s-0.7,5-1,7.2c-1,5.3-1.7,10.5-2.3,15.7c1.2-2.8,2.5-5.9,4-9.2c1.4-3.3,2.9-6.6,4.3-9.9
				c1.4-3.3,2.7-6.3,3.9-9.2C224.3,161,225.3,158.5,226.1,156.5z"/>
			<path id="XMLID_17_" class="st1" d="M310.4,225.7c-1.6,1.5-3.6,3.1-6,4.8s-5,3.2-7.8,4.6c-2.8,1.4-5.6,2.6-8.5,3.5
				c-2.9,0.9-5.6,1.4-8.3,1.4c-2.3,0-4.3-0.3-5.9-1c-1.6-0.7-2.9-1.6-3.9-2.7c-1-1.2-1.7-2.6-2.1-4.3c-0.4-1.7-0.6-3.5-0.6-5.6
				c0-2.8,0.3-6.1,0.9-9.9c1.3-7.8,2.1-12.2,2.5-13.2c0.6-1.9,1.8-6.2,3.7-12.8c1.7-5.4,2.8-8.9,3.2-10.5c0.2-1.1,0.8-2.2,1.9-3.1
				c0.9-0.8,2-1.5,3.1-2c1.2-0.5,2.4-0.9,3.6-1.2c1.3-0.2,2.4-0.4,3.4-0.4c1.9,0,3.1,0.3,3.8,1c0.7,0.7,1,1.6,1,2.8
				c0,1-0.2,2.4-0.7,4.2c-0.5,1.8-1,3.9-1.6,6.2c-0.6,2.3-1.5,5.3-2.6,8.9c-1.2,3.6-1.9,6.7-2.4,9.3c-0.4,2.6-1,5.1-1.6,7.6
				c-0.6,2.5-1,4.8-1,6.9c0,2,0.2,3.6,0.7,4.8c0.4,1.2,1.4,1.8,2.8,1.8c1.6,0,3.4-0.6,5.4-1.7c2-1.1,4-2.5,6-4.1c2-1.6,4-3.2,5.9-5
				c1.9-1.7,3.6-3.2,5.1-4.4V225.7z M280.3,155c0-1,0.2-2.2,0.7-3.5c0.4-1.3,1.2-2.6,2.2-3.7c1-1.2,2.4-2.1,4-2.9
				c1.7-0.8,3.8-1.2,6.3-1.2c1.6,0,3.1,0.2,4.4,0.5c1.4,0.4,2.6,0.9,3.6,1.7c1,0.7,1.9,1.7,2.5,3c0.6,1.2,0.9,2.7,0.9,4.4
				c0,1.5-0.2,3-0.7,4.5c-0.5,1.5-1.3,2.7-2.4,3.9c-1.1,1.1-2.4,2.1-4.1,2.8c-1.6,0.7-3.6,1.1-5.9,1.1c-4,0-6.9-0.9-8.8-2.8
				C281.2,160.6,280.3,158.1,280.3,155z"/>
			<path id="XMLID_21_" class="st1" d="M341.8,228.8c-0.1,0.2-0.2,0.6-0.2,1.2c-0.1,0.6-0.2,1.3-0.5,2.2c-0.2,0.9-0.6,1.8-1,2.7
				c-0.4,0.9-1.1,1.8-2,2.6c-0.9,0.8-2,1.5-3.3,2c-1.3,0.5-3,0.8-5.1,0.8c-1.7,0-3.2-0.2-4.5-0.6c-1.3-0.4-2.5-1-3.5-1.8
				c-1-0.8-1.7-1.9-2.3-3.1c-0.5-1.3-0.8-2.8-0.8-4.5c0-1.5,0.2-2.9,0.7-4.3c0.5-1.4,1.2-2.7,2.2-3.8c1-1.1,2.3-2,3.8-2.6
				c1.6-0.7,3.4-1,5.6-1c3.5,0,6.2,0.9,8.1,2.6c1.9,1.7,2.8,4.2,2.8,7.3C341.9,228.5,341.9,228.7,341.8,228.8z M330.1,205.5
				c0.4-4.6,1.1-9.4,2-14.3c0.9-4.9,2-9.8,3.4-14.7c1.4-4.9,2.7-9.7,4-14.5c1.3-4.8,2.6-9.4,3.8-13.8c1.2-4.4,2.4-8.6,3.5-12.5
				c1.1-3.9,2.1-7.4,2.9-10.5c0.6-2.2,1.5-3.9,2.7-5.2c1.2-1.3,2.4-2.4,3.9-3.1s2.9-1.2,4.5-1.5s3.1-0.4,4.6-0.4
				c0.8,0,1.5,0.1,2.1,0.3c0.7,0.2,1.2,0.5,1.7,1c0.5,0.5,0.8,1.1,1.1,2c0.2,0.8,0.4,1.9,0.4,3.2c0,0.9-0.1,1.9-0.2,3
				c-0.1,1.1-0.3,2.4-0.6,3.9c-1.6,5.2-3.1,10.4-4.7,15.7c-1.6,5.3-3.7,11-6.3,17c-2.6,6-5.6,12.6-8.9,19.8
				c-3.3,7.2-7.1,15.5-11.2,24.8c-0.1,0.5-0.3,1-0.7,1.4c-0.4,0.4-0.8,0.8-1.4,1.1c-0.5,0.3-1.1,0.5-1.8,0.7
				c-0.6,0.2-1.2,0.2-1.8,0.2c-0.9,0-1.6-0.2-2.2-0.5c-0.6-0.4-0.9-1-0.9-1.8C329.9,206.3,330,206,330.1,205.5z"/>
		</g>
	</g>
	<g id="XMLID_9_">
		<polygon id="XMLID_2_" class="st2" points="104.3,262.7 280.7,371.5 103.9,446.7 		"/>
		<polygon id="XMLID_5_" class="st2" points="456.3,262.7 279.9,371.5 456.7,446.7 		"/>
	</g>
	<path id="XMLID_7_" class="st3" d="M103.1,446.7l164.8-94c7.1-4.1,17-4.1,24.1,0l164.8,94H103.1z"/>
	<g id="XMLID_11_">
		<path id="XMLID_23_" class="st4" d="M279.9,349.7c4.2,0,8.5,1,12,3l164.8,94H103.1l164.8-94C271.4,350.8,275.6,349.7,279.9,349.7
			 M279.9,329.7c-7.8,0-15.4,2-22,5.7l-164.8,94c-7.9,4.5-11.7,13.7-9.4,22.5c2.3,8.8,10.3,14.9,19.3,14.9h353.6
			c9.1,0,17-6.1,19.3-14.9c2.3-8.8-1.5-18-9.4-22.5l-164.8-94C295.3,331.7,287.7,329.7,279.9,329.7L279.9,329.7z"/>
	</g>
</g>
<g id="stars">
	<g id="XMLID_30_">
		<g id="XMLID_27_">
			<line id="XMLID_12_" class="st5" x1="28.9" y1="371.8" x2="46.8" y2="445.7"/>
			<line id="XMLID_31_" class="st5" x1="5.4" y1="389" x2="70.3" y2="428.5"/>
			<line id="XMLID_32_" class="st5" x1="0.9" y1="417.7" x2="74.8" y2="399.8"/>
			<line id="XMLID_33_" class="st5" x1="18.1" y1="441.2" x2="57.6" y2="376.3"/>
		</g>
		<g id="XMLID_3_">
			<line id="XMLID_34_" class="st5" x1="488.4" y1="7.2" x2="469.4" y2="59.9"/>
			<line id="XMLID_28_" class="st5" x1="461.2" y1="12.1" x2="497.6" y2="55.1"/>
			<line id="XMLID_29_" class="st5" x1="451.7" y1="38.6" x2="507.1" y2="28.6"/>
		</g>
	</g>
</g>
</svg>
