<svg xmlns="http://www.w3.org/2000/svg" version="1.1" x="0" y="0" viewBox="0 0 158.4 172.3" xml:space="preserve"><style type="text/css">
	.st0{display:none;fill:rgba(247, 249, 249, 1);}
	.st1{fill:rgba(247, 249, 249, 1);}
</style><polygon class="st0" points="384.7 186.1 217.4 136.5 217.4 80.8 384.7 36.1 "/><path class="st1" d="M158.4 79.2C158.4 35.5 122.9 0 79.2 0 35.5 0 0 35.5 0 79.2s35.5 79.2 79.2 79.2c8.2 0 16.1-1.2 23.5-3.5l41.3 17.4 0-47.5C153 111.9 158.4 96.2 158.4 79.2zM98.7 137.3L98.7 137.3 98.7 137.3zM100.7 106.2c0 2.5-3.1 4.9-5.6 4.9H34.3c-2.5 0-3.6-2.5-3.6-4.9V71.4c0-0.6 5.1-19.7 5.1-19.7 0.8-2.8 3.1-4.5 6-4.5h33.9v8h3v-8h14.7c2.9 0 5.3 2 5.3 4.9v1.6c0 3.1-2.6 5.4-5.7 5.4H47.1l-2.7 12h50.7c2.5 0 5.6 2.2 5.6 4.6V106.2zM108.7 100.1h-5v-19h5V100.1zM128.7 106.7c0 1.1-1.3 1.9-2.3 1.3l-13.7-7.4V81.2l13.7-7.4c1-0.5 2.3 0.2 2.3 1.3V106.7zM133 112.3L133 112.3 133 112.3z"/></svg>