<svg xmlns="http://www.w3.org/2000/svg" version="1.1" x="0" y="0" viewBox="0 0 158.4 172.3" xml:space="preserve"><style type="text/css">
	.st0{fill:none;stroke:#E52B32;stroke-width:8;stroke-miterlimit:10;}
	.st1{display:none;fill:#FFFFFF;}
	.st2{fill:#E52B32;}
	.st3{fill:#FFFFFF;}
</style><line class="st0" x1="133.1" y1="112.3" x2="133" y2="112.3"/><line class="st0" x1="98.7" y1="137.3" x2="98.7" y2="137.3"/><polygon class="st1" points="384.7 186.1 217.4 136.5 217.4 80.8 384.7 36.1 "/><path class="st2" d="M143.9 124.8c9.1-12.9 14.5-28.6 14.5-45.6C158.4 35.5 122.9 0 79.2 0 35.5 0 0 35.5 0 79.2s35.5 79.2 79.2 79.2c8.2 0 16.1-1.2 23.5-3.5l41.3 17.4L143.9 124.8z"/><rect x="103.4" y="81.2" class="st3" width="5.8" height="19.4"/><path class="st3" d="M126.2 108l-13.7-7.4V81.2l13.7-7.4c1-0.5 2.2 0.2 2.2 1.3v31.6C128.4 107.8 127.2 108.5 126.2 108zM95.1 71.1H44.4l2.7-12H93c3.1 0 5.7-2.3 5.7-5.4v-1.6c0-2.9-2.4-4.9-5.3-4.9H78.7v8h-3v-8H41.8c-2.9 0-5.2 1.7-6 4.5 0 0-5.1 19.1-5.1 19.7v34.8c0 2.5 1.1 4.9 3.6 4.9h60.8c2.5 0 5.6-2.5 5.6-4.9V75.8C100.7 73.3 97.6 71.1 95.1 71.1z"/></svg>