<?xml version="1.0" encoding="utf-8"?>
<!-- Generator: Adobe Illustrator 19.0.0, SVG Export Plug-In . SVG Version: 6.00 Build 0)  -->
<svg version="1.1" id="Layer_1" xmlns="http://www.w3.org/2000/svg" xmlns:xlink="http://www.w3.org/1999/xlink" x="0px" y="0px"
	 viewBox="0 0 405 405" enable-background="new 0 0 405 405" xml:space="preserve">
<path id="Blue_1_" fill="#D9E4E8" d="M321.2,69H83.8C75.6,69,69,75.6,69,83.8v237.4c0,8.1,6.6,14.7,14.7,14.7h127.8V232.6h-34.8
	v-40.3h34.8v-29.7c0-34.5,21.1-53.2,51.8-53.2c14.7,0,27.4,1.1,31.1,1.6v36l-21.3,0c-16.7,0-20,7.9-20,19.6v25.7h39.9l-5.2,40.3
	h-34.7v103.4h68c8.1,0,14.7-6.6,14.7-14.7V83.8C335.9,75.6,329.3,69,321.2,69z"/>
</svg>
