<?xml version="1.0" encoding="utf-8"?>
<!-- Generator: Adobe Illustrator 19.0.0, SVG Export Plug-In . SVG Version: 6.00 Build 0)  -->
<svg version="1.1" id="Layer_1" xmlns="http://www.w3.org/2000/svg" xmlns:xlink="http://www.w3.org/1999/xlink" x="0px" y="0px"
	 viewBox="0 0 405 405" enable-background="new 0 0 405 405" xml:space="preserve">
<path id="White_2_" fill="#FFFFFF" d="M382.6,0H22.4C10,0,0,10,0,22.4v360.3C0,395,10,405,22.4,405h194V248.2h-52.8V187h52.8V142
	c0-52.3,31.9-80.8,78.6-80.8c22.4,0,41.6,1.7,47.2,2.4v54.7l-32.4,0c-25.4,0-30.3,12.1-30.3,29.8v39H340l-7.9,61.1h-52.6V405h103.2
	c12.3,0,22.4-10,22.4-22.4V22.4C405,10,395,0,382.6,0z"/>
</svg>
