<?xml version="1.0" encoding="utf-8"?>
<!-- Generator: Adobe Illustrator 19.1.0, SVG Export Plug-In . SVG Version: 6.00 Build 0)  -->
<svg version="1.1" id="Layer_1" xmlns="http://www.w3.org/2000/svg" xmlns:xlink="http://www.w3.org/1999/xlink" x="0px" y="0px"
	 viewBox="-849.4 490.5 272.4 114.5" style="enable-background:new -849.4 490.5 272.4 114.5;" xml:space="preserve">
<style type="text/css">
	.st0{fill:#F7F9F9;}
	.st1{display:none;}
	.st2{display:inline;}
	.st3{display:inline;fill:none;stroke:#00A651;stroke-width:0.1;}
</style>
<g id="XMLID_32_">
	<path id="XMLID_33_" class="st0" d="M-849.4,491h9.6c0.1,0.3,0.3,0.8,0.3,1.4c0,0.5-0.1,1.1-0.3,1.4h-6.3v3.8h5.8
		c0.1,0.3,0.3,0.8,0.3,1.4s-0.1,1.1-0.3,1.4h-5.8v5.7c-0.3,0.1-0.9,0.3-1.6,0.3c-0.8,0-1.3-0.1-1.6-0.3V491z"/>
	<path id="XMLID_35_" class="st0" d="M-833.6,500.5c0,2.3,1,3.3,3,3.3c2.3,0,3.2-1.3,3.2-3.4v-9.1c0.4-0.3,0.9-0.3,1.6-0.3
		s1.3,0.1,1.6,0.3v8.9c0,4-2,6.6-6.6,6.6c-4.2,0-6.2-2-6.2-5.9v-9.6c0.3-0.3,0.9-0.3,1.6-0.3c0.8,0,1.3,0.1,1.6,0.3L-833.6,500.5
		L-833.6,500.5z"/>
	<path id="XMLID_37_" class="st0" d="M-813.6,493.8v12.1c-0.3,0.1-0.9,0.3-1.6,0.3c-0.8,0-1.3-0.1-1.6-0.3v-12.1h-4.3
		c-0.1-0.3-0.3-0.9-0.3-1.5c0-0.6,0.1-1.1,0.3-1.4h11.8c0.1,0.3,0.3,0.9,0.3,1.4s-0.1,1.1-0.3,1.5H-813.6z"/>
	<path id="XMLID_39_" class="st0" d="M-803.2,500.5c0,2.3,1,3.3,3,3.3c2.3,0,3.2-1.3,3.2-3.4v-9.1c0.3-0.1,0.9-0.3,1.5-0.3
		c0.8,0,1.3,0.1,1.6,0.3v8.9c0,4-2,6.6-6.6,6.6c-4.2,0-6.2-2-6.2-5.9v-9.6c0.5-0.3,1-0.4,1.8-0.4c0.8,0,1.3,0.1,1.6,0.3V500.5
		L-803.2,500.5z"/>
	<path id="XMLID_41_" class="st0" d="M-789.6,491.1c1.1-0.3,2.9-0.4,4.4-0.4c4.3,0,6.8,1.4,6.8,5c0,2.3-1,3.7-2.4,4.4l3.5,5.8
		c-0.3,0.3-0.9,0.3-1.8,0.3c-1,0-1.5-0.1-2-0.3l-2.9-5h-0.4c-0.8,0-1.8,0-2.3-0.1v5.2c-0.3,0.1-0.9,0.3-1.6,0.3
		c-0.8,0-1.3-0.1-1.6-0.3L-789.6,491.1L-789.6,491.1z M-786.3,493.7v4.4c0.5,0.1,1.3,0.1,1.9,0.1c1.9,0,3-0.6,3-2.3
		c0-1.8-1.3-2.4-3.3-2.4C-785.4,493.5-785.9,493.5-786.3,493.7z"/>
	<path id="XMLID_44_" class="st0" d="M-764,491c0.1,0.3,0.3,0.8,0.3,1.4c0,0.6-0.1,1.1-0.3,1.4h-6.8v3.4h6.4
		c0.1,0.3,0.3,0.8,0.3,1.4c0,0.5-0.1,1-0.3,1.4h-6.4v3.5h7.1c0.1,0.3,0.3,0.8,0.3,1.4s-0.1,1.1-0.3,1.4H-774V491L-764,491z"/>
</g>
<g class="st1">
	<g class="st2">
		<path class="st0" d="M-805,568.2c-0.6,1.5-1.7,4.1-3.2,5.7c-1.8,1.4-4.4,4-5.1,4c-0.6-0.1,0.1-0.3-0.5-0.4c-0.5,0-1.5,1.4-2.2,2.3
			c-0.8,0.1-1.8,0.5-2.4,0.4c-0.5,0-1.7-1.2-2.3-2.2c-1.5-2.3-3.5-6.9-3.5-10.9c-0.4-5.4,0.1-13.6-0.4-19.2l-0.4-0.1
			c-1,3.9-1.7,7.7-3.3,12c-1.2,3.1-2.8,5.5-5.4,11.3c-0.3,0.8-0.6,1.4-1.2,2.2c-0.3,0.5-2.7,7.3-4.8,7.1c-0.8,0,0.1-0.5-0.5-0.5
			c-0.6-0.1,0,0.3-0.6,0.1c-0.4,0-4.5-2.4-6-4c-1.2-1-1.9-2.3-2.3-4c-0.4-1.8-0.1-5.1-0.1-5.9c0.6-10.8,7.8-31.3,9.5-38.1
			c0.5-0.1,1.4-0.4,2.1-0.4c2.7,0.3,2.1,2.6,2.1,4.1c0,0.3-1,3.6-1.4,6.7c-0.4,3-1,6.7-1.3,9.3c-0.3,2.1-0.5,4.8-1.2,8.2
			c-0.5,3.5-0.8,6.3-0.8,8.5v0.9c1.9-3.6,3.6-8.2,5.3-13.9c1.7-5.7,3.5-10.7,5.1-15.4c0.4-0.5,0.4-1.4,0.1-2.2l0.9-0.8
			c1,0.1,2.4,0,3,0.5c11.8,8,6.6,25.9,7.2,35.2h0.1c6-12.5,10.3-25.6,13.2-38.8c0.3-0.3,0.6-0.4,1.2-0.4c2.3,0.3,4.5,3.6,5.1,6
			c0.5,3,0.4,8.2,0.4,9C-799.1,552.5-802.8,563-805,568.2z"/>
		<path class="st0" d="M-786.5,580.5c-1,0.1-5.5-1.5-5.7-1.7c-0.5,0-0.1-0.1-0.8-0.1c-2.6,0-5.7-6.6-5.7-7.2c-0.1-1-0.4-2.4-0.4-3
			c0-0.8,0.4-3.7,0.5-5.4c0.6-2.6,1.9-5.3,3.3-8.5c0-0.3,6.6-12,8.7-12.2c0.6,0,1.7,0.4,2.3,0.6c1.3,0.3,2.8,1.9,4.2,3.2
			c0.4,0.4,1.4,0.5,1.9,1.4c0.5,0.8,1.2,2.2,1.2,2.8c0,0.6-1,4.1-1.9,5.4c-4.6,6.8-6.2,10-11.4,13.9c-0.5,0.4-0.6,2.7-0.6,3.2
			l0.1,3.2c6.7-1.3,12.2-6.2,18-9.8C-773.3,569-782.7,580.3-786.5,580.5z M-789.3,563.4c3.2-4.5,6.6-9.9,6.7-14.8
			C-785.9,553.4-787.9,558.5-789.3,563.4z"/>
		<path class="st0" d="M-745.4,557c-0.8,2.1-2.6,6.3-4.1,8.7c-2.6,4-4.5,8.4-7.8,11.6c-0.6,0.5-2.4,1.5-2.8,1.5
			c-0.6,0.1-2.6-0.1-3.5,0.3V579c0-0.1,0.1-0.4,0.1-0.4c-1.2-1.5-2.6-0.9-4.4-1.9c-0.4-0.3-0.3-0.8-0.9-0.8
			c-0.5,1.3-0.5,4.1-0.1,5.4c0,0.1,0,0.1-0.1,0.3l-0.5,0.3c-0.5,0-1.7-0.8-2.1-1.4c-0.4,0.4-0.5,0.6-0.5,1c-0.3,0-0.1-0.4-0.6-0.4
			c-1.7,0-2.3-4.5-2.3-5c-0.6-10.5,1.2-22.8,3.2-32.7c0-1.4,1.9-7.2,3-10.3c1-2.7,3.2-6.3,4.5-8.6c1.7-2.7,5.3-8.9,8.5-9.5
			c0.8,0.4,1.7,0.6,1.7,1.7c-0.1,0.4-1,6.8-1.9,10c-0.9,4.6-1.9,8.5-3.2,12.7c-0.1,1-0.4,2.4-0.6,3.5c-0.5,1.3-1.7,2.3-1,3.9
			c3.7-2.4,3.9-2.8,6.4-3.1c3,0,10.2,2.1,10.4,6.3C-744,550.6-744.9,554.7-745.4,557z M-761.1,556.8c-0.1-0.1-0.3-0.1-0.3-0.4v-0.1
			c-2.8,5.4-6.6,10.5-6.9,17.8c7.8-5.7,12.7-16.7,15.8-25C-756.1,549.5-759.1,554.6-761.1,556.8z M-758.5,525c0,0.3,0.5,0.5,0.4,0.8
			c-1.3,3.3-1.9,5.9-3.2,8.6c0.1-0.1,0.1-0.1,0.1-0.1l0.1,0.1c-1.4,4.5-2.6,8.9-3.6,12.9c-0.4,0.1-0.4,0.8-0.4,1
			c0-0.1,0-0.3,0.1-0.4c0-0.1,0-0.1,0.1-0.1c0.3,0.5,0.1,1.4,0.4,1.8c4.4-10.9,6-19.2,8.2-27.1c-0.1-0.1,0-0.4,0.1-0.4
			c0.1-0.1,0.1-0.1,0.1-0.1C-756.9,522.7-758,524-758.5,525z"/>
		<path class="st0" d="M-706.6,572.5c-3.6,4.6-6,6.9-9.4,6.9c-0.6,0.1-1.4-0.4-2.4-0.8c-0.4-0.3-1.3,0-2.1-0.1
			c-1-1.5-1.8-3.9-3.6-5.4c-1.2,1.7-0.5,4.5-0.1,7.2c-0.6-0.3-0.8-1-1.7-1.8c-0.4,0-0.5,0.5-0.8,0.8c-0.4-0.9-0.6-2.2-1.3-3.2
			c-0.3,0.5-0.4,1.2-0.5,1.8c-1.4-0.6-2.8-4.1-2.8-6.3c-0.6-7.5,4.4-24.4,4.1-25.2c0-0.8-2.3-1.9-3.1-3.1c-0.3-0.4-0.6-2.2-0.6-2.8
			c-0.3-3.2,2.1-9.6,6.2-12.7c0.4-0.4,1.8-0.8,2.6-1.2c0.4-0.4,0.4-1.7,1-1.7c0.5,0,1.4,0.9,2.3,1.2c5.7,1,6.8,1.3,9.8,3.2
			c3.6,2.3,4.9,3.5,6.3,5.1c2.6,2.7,3.9,7.5,4,10.4C-698.2,554.2-703.2,568.2-706.6,572.5z M-722.7,530.9l-0.4-0.9
			c-1,0.5-2.3,0.6-3,1c-2.8,1.9-3.9,7.2-3.9,9c0.1,1.7,0.8,3.6,3,5.5L-722.7,530.9z M-716.2,530.4c0.1,2.1-0.1,4.6,0.1,5.9
			c0.4,3.5-1.4,11.6-2.8,17.1c-1.4,5-4.2,14.3-4.2,14.8c0.1,0.4,0.1,0.5,0.4,0.6c0.1,0.1,0.1,0.1,0.1,0c0.6-0.1,1.4,0.1,2.1,0.1
			c4.5-0.3,8.1-4.5,10.9-8.6c0.4-0.6,0.4-1.8,0.5-2.1c1.8-5.4,3.6-8.5,3.3-13.6C-706.2,539.6-707.6,533.3-716.2,530.4z"/>
		<path class="st0" d="M-687.7,580.5c-1,0.1-5.5-1.5-5.7-1.7c-0.5,0-0.1-0.1-0.8-0.1c-2.6,0-5.7-6.6-5.7-7.2c-0.1-1-0.4-2.4-0.4-3
			c0-0.8,0.4-3.7,0.5-5.4c0.6-2.6,1.9-5.3,3.3-8.5c0-0.3,6.6-12,8.7-12.2c0.6,0,1.7,0.4,2.3,0.6c1.3,0.3,2.8,1.9,4.2,3.2
			c0.4,0.4,1.4,0.5,1.9,1.4c0.5,0.8,1.2,2.2,1.2,2.8c0,0.6-1,4.1-1.9,5.4c-4.6,6.8-6.2,10-11.4,13.9c-0.5,0.4-0.6,2.7-0.6,3.2
			l0.1,3.2c6.7-1.3,12.2-6.2,18-9.8C-674.5,569-683.9,580.3-687.7,580.5z M-690.5,563.4c3.2-4.5,6.6-9.9,6.7-14.8
			C-687.1,553.4-689.2,558.5-690.5,563.4z"/>
		<path class="st0" d="M-655.2,551.6c-0.6-0.4-1.7-1.4-2.6-1.7c-1.5-0.5-3.9-1-4.4-1c-2.2,0-4.1,1.8-4.1,3.2c0,0.5,2.1,6,3.2,8.7
			c1,3,1.8,5.7,2.2,8.4c0,0.5,1.7,3.3,1.7,4.5c0,0.6,0,2.6-0.6,3.6c-0.5,1-1.9,1.9-3.2,2.6c-1,0.6-3,0.9-3.5,0.9h-1.5
			c-5.3,0-6.7-5.1-8.4-9c-0.4-1-1.7-2.4-1.7-3c0-1.2,1.4-2.8,3.1-4.4c1.5,0.6,0.5,1.9,0.5,2.8c0,0.8-0.1,1.4-0.1,2.3
			c2.1,2.3,5.4,3.3,7.8,3.3c1.3,0,1.3,0.1,2.8-0.9c0-0.4,0-0.6-0.1-0.9c-1.7-2.3-9.5-17.8-9.5-23.3c0-4,3.2-7.2,7.3-7.2
			s11.2,4.4,11.2,9.9C-654.9,550.9-655,551.4-655.2,551.6z"/>
		<path class="st0" d="M-641.9,576.9c0,1.7-3.2,3.9-4,3.7c-0.6,0-0.5-0.8-1.2-0.8c-0.6,0,0,0.1-0.6,0.1c-0.6-0.1-1.9-1.3-2.6-1.3
			c-0.6-0.1,0.1,0.3-0.5,0.1c-0.4,0-2.3-2.8-3.1-4.2c-0.6-0.9-1.2-2.6-1.4-3.9c-0.4-1.7-0.4-4.5-0.4-5.1c0-0.5,0.4-2.6,0.6-3.6
			c0.4-5.7,2.7-13.5,7.8-18.5c2.8,0.3,4.6,4.5,4.6,6.6c0,0.6-5.4,21.2-5.4,22l-0.1,4.9c0.3,0.3,0.4,0.1,1,0.1c1.5,0,3.1-1,5.1-1.9
			L-641.9,576.9z M-645.5,539.4c-0.5-0.1-1.9-0.8-2.8-1.4c0.3-3.2,2.3-5.9,5.4-5.8c1,0,3.9,1,4.2,1.4c0.3,0.4,0.4,1,0.3,1.7
			C-638.4,537.9-644.1,539.4-645.5,539.4z"/>
		<path class="st0" d="M-617,575.8c-1.5,7.6-2.1,9.9-4.8,14.7c-2.1,4.4-8.6,13-15.2,14.1c-0.5,0.1-3.3,0.5-3.9,0.3
			c-4.9-0.6-6.7-2.6-9.6-7.5c0.3-0.3,0.8-0.1,1,0c2.1,1.9,5.1,4.8,6.7,4.8c0.4,0,1.7-1,2.3-1.4c5-2.7,9.4-9.6,10.9-14.4
			c0.5-1.2,1.2-2.8,1.5-4.5c0.9-4.5,2.1-13,4.4-19.4v-0.1c0,0.1-0.1,0-0.1-0.3c-2.3,3.9-5.4,9.6-8.1,14.3c-0.6,0.9-1.7,2.6-2.7,3.2
			c-0.1,0.3-0.8,0.6-1.4,0.6c-0.6,0-5.1-4.6-5.4-5.7c-0.3-0.9-0.3-2.4-0.3-3.1c0-2.1,0.9-5.5,1.4-6.8c0.5-2.3,2.1-6,3.3-8.4
			c1.4-2.6,9.1-15.4,11.1-15.4c0.8,0,4.8,1.2,6.7,2.1c0.9,0.5,2.1,2.6,1.8,3.9c1,0.3,2.3,0.4,3.2,1
			C-615.1,557.2-614.7,564.4-617,575.8z M-621.3,547c-1.3,0-12.5,19-13,20.5c-0.6,1.7-1.5,5.4-1.5,6v1.5c2.8-4,5.9-8,8.2-12.1
			c0.6-1,7.5-13.2,7.5-14.9C-620.3,547.5-620.8,547-621.3,547z"/>
		<path class="st0" d="M-582.2,576.7c-0.8,0.6-1.7,2.1-2.3,2.7c-0.5,0.4-1.9,0.3-2.6,0.3c-3.5,0-6-1.9-7.7-4.5s-2.6-5-2.2-9.6
			c0-4.4,2.1-9.4,1.7-13c-1.7,2.3-3.3,5.4-4.1,7.6l-0.1,0.3c-0.1,0.1,0,0.1,0.3,0.1c-0.5,1.4-0.5,0.9-0.3,0.9
			c-0.8,1.5-1.7,3.5-3.1,7.1c-1.3,3.6-2.3,5.8-3.2,7.8c-0.3,1,0.9,2.1,0.1,3.1c-0.5-0.3-1.2,0.6-1.4,1.2c-0.5,0.1-0.8-1-1.4-1
			c-0.5,0-0.1,0.3-0.8,0.3c-0.5,0-2.6-1.9-3.1-3c-0.8-1.4-0.6-5.4-0.6-5.9c0-3.6,1.2-9.4,2.2-13.6c1-4.4,2.6-8.7,3.9-13.2
			c0.1-0.3,0.1-0.8-0.1-1.2c1-0.3,2.6-0.8,3.2-0.8c1.9,0,3.9,0.5,3.9,2.6c0,0.6-0.8,6.9-1.7,10.8c1.9-3.2,4.1-7.6,6.7-10.7
			c0.4-0.6,2.3-0.6,2.8-0.6c0.5,0,3,0.5,4.2,0.9c0.9,1.3,1.7,5.1,1.7,7.6c0,0.5-0.5,5.5-0.9,8.4c-0.4,1.2-1,2.6-1.4,4.4
			c-0.3,1-0.8,4.4-1,5.8c-0.1,1.3-0.4,2.6-0.4,3c0,1.3,0.4,3,1.5,3c2.1,0,8.1-3.2,11.4-5C-578.5,572.7-580.6,575.1-582.2,576.7z"/>
	</g>
</g>
<g class="st1">
	<line class="st3" x1="-629.2" y1="491" x2="-629.2" y2="780.6"/>
	<line class="st3" x1="-849.2" y1="491" x2="-849.2" y2="780.6"/>
	<line class="st3" x1="-949" y1="580.3" x2="-529.5" y2="580.3"/>
	<line class="st3" x1="-949" y1="563.8" x2="-529.5" y2="563.8"/>
	<line class="st3" x1="-949" y1="555.8" x2="-529.5" y2="555.8"/>
	<line class="st3" x1="-949" y1="539.3" x2="-529.5" y2="539.3"/>
	<line class="st3" x1="-949" y1="531.3" x2="-529.5" y2="531.3"/>
	<line class="st3" x1="-949" y1="514.8" x2="-529.5" y2="514.8"/>
	<line class="st3" x1="-949" y1="506.8" x2="-529.5" y2="506.8"/>
</g>
<g>
	<path class="st0" d="M-849.4,580.2v-16.1c0.3-0.2,0.9-0.3,1.7-0.3c0.8,0,1.4,0.1,1.7,0.3v13h7c0.1,0.3,0.3,0.9,0.3,1.5
		c0,0.6-0.1,1.3-0.3,1.6H-849.4z"/>
	<path class="st0" d="M-836.1,564.1c0.3-0.2,0.9-0.3,1.7-0.3c0.8,0,1.4,0.1,1.7,0.3V580c-0.3,0.2-0.9,0.3-1.7,0.3
		c-0.8,0-1.4-0.1-1.7-0.3V564.1z"/>
	<path class="st0" d="M-822.7,577.6c0.2-1.6,0.5-3.1,0.9-4.5l2.8-8.9c0.4-0.2,1-0.3,1.8-0.3c0.9,0,1.4,0.1,1.7,0.3l-5.4,15.9
		c-0.5,0.1-1.3,0.2-2.1,0.2c-0.8,0-1.6-0.1-2.1-0.2l-5.3-15.9c0.3-0.2,0.9-0.3,1.8-0.3c0.8,0,1.4,0.1,1.8,0.3l2.9,9
		c0.4,1.4,0.7,2.9,1,4.5H-822.7z"/>
	<path class="st0" d="M-802.4,563.9c0.1,0.3,0.2,0.8,0.2,1.5c0,0.6-0.1,1.2-0.2,1.5h-7.4v3.7h6.8c0.1,0.3,0.2,0.8,0.2,1.4
		c0,0.6-0.1,1.1-0.2,1.4h-6.8v3.8h7.6c0.1,0.3,0.2,0.8,0.2,1.5c0,0.6-0.1,1.2-0.2,1.5h-11v-16.3H-802.4z"/>
</g>
<g>
	<path class="st0" d="M-849.4,520.6c0.6-0.3,1.7-0.5,3.2-0.5c1.5,0,2.6,0.2,3.2,0.5v29.3c-0.6,0.3-1.6,0.5-3.2,0.5
		c-1.5,0-2.6-0.2-3.2-0.5V520.6z"/>
	<path class="st0" d="M-829.8,549.9c-0.6,0.3-1.6,0.5-3,0.5c-1.4,0-2.4-0.2-3-0.5v-29.5c1-0.3,2.4-0.4,4.2-0.4
		c1.9,0,3.2,0.2,4.1,0.4l8.2,14.8c1.1,1.9,2.2,5.2,2.7,7.7h0.3v-22.4c0.6-0.3,1.5-0.5,3-0.5c1.4,0,2.4,0.2,3,0.5v29.5
		c-0.8,0.3-2.1,0.4-3.9,0.4c-1.9,0-3.1-0.2-3.9-0.4l-8.6-15.6c-1-1.7-2-4.8-2.6-7.7h-0.3V549.9z"/>
	<path class="st0" d="M-795.5,545.8c3.8,0,5.2-1.4,5.2-3.7c0-6.2-14.1-2.9-14.1-13.7c0-6,4-9.2,10.5-9.2c2.8,0,5.2,0.6,7.4,1.9
		c0.9,1.5,1.4,3.9,1.1,5.8c-2.3-1.4-5.2-2.4-8.1-2.4c-3.1,0-4.5,1.1-4.5,3.1c0,5.8,14,2.7,14,13.7c0,7.4-5.1,9.9-11.5,9.9
		c-3.1,0-6.1-0.6-8.4-1.7c-1-1.6-1.4-4.3-1.1-6.1C-802.6,544.8-798.6,545.8-795.5,545.8z"/>
	<path class="st0" d="M-778.7,520.6c0.6-0.3,1.7-0.5,3.2-0.5c1.5,0,2.6,0.2,3.2,0.5v29.3c-0.6,0.3-1.6,0.5-3.2,0.5
		c-1.5,0-2.6-0.2-3.2-0.5V520.6z"/>
	<path class="st0" d="M-751.4,551.2c-9.6,0-15.2-5.7-15.2-15.4c0-10.5,6.4-16.6,16.6-16.6c2.8,0,5.3,0.5,7.2,1.4
		c0.9,1.5,1.4,3.9,1.2,5.7c-2.2-1-4.7-1.6-7.5-1.6c-6.6,0-10.9,3-10.9,10.6c0,7.2,3.8,10.2,9.3,10.2c1.8,0,3.4-0.3,4.5-0.7v-6.7
		h-5.9c-0.3-0.5-0.4-1.6-0.4-2.7c0-1.1,0.2-2.2,0.4-2.7h11.7v16C-743.1,550.2-747.4,551.2-751.4,551.2z"/>
	<path class="st0" d="M-715.3,537.7H-728v12.2c-0.6,0.3-1.7,0.5-3.2,0.5c-1.5,0-2.5-0.2-3.2-0.5v-29.3c0.6-0.3,1.7-0.5,3.2-0.5
		c1.5,0,2.5,0.2,3.2,0.5v11.6h12.7v-11.6c0.6-0.3,1.7-0.5,3.2-0.5c1.5,0,2.5,0.2,3.2,0.5v29.3c-0.6,0.3-1.7,0.5-3.2,0.5
		c-1.5,0-2.5-0.2-3.2-0.5V537.7z"/>
	<path class="st0" d="M-689.2,525.9v24c-0.6,0.3-1.6,0.5-3.2,0.5c-1.5,0-2.6-0.2-3.2-0.5v-24h-8.5c-0.3-0.5-0.5-1.7-0.5-2.8
		c0-1.1,0.2-2.2,0.5-2.8h23.4c0.3,0.5,0.5,1.6,0.5,2.8c0,1.1-0.2,2.3-0.5,2.8H-689.2z"/>
	<path class="st0" d="M-668.3,545.8c3.8,0,5.2-1.4,5.2-3.7c0-6.2-14.1-2.9-14.1-13.7c0-6,4-9.2,10.5-9.2c2.8,0,5.2,0.6,7.4,1.9
		c0.9,1.5,1.4,3.9,1.1,5.8c-2.3-1.4-5.2-2.4-8.1-2.4c-3.1,0-4.5,1.1-4.5,3.1c0,5.8,14,2.7,14,13.7c0,7.4-5.1,9.9-11.5,9.9
		c-3.1,0-6.1-0.6-8.4-1.7c-1-1.6-1.4-4.3-1.1-6.1C-675.4,544.8-671.4,545.8-668.3,545.8z"/>
</g>
</svg>
