<?xml version="1.0" encoding="utf-8"?>
<!-- Generator: Adobe Illustrator 19.1.0, SVG Export Plug-In . SVG Version: 6.00 Build 0)  -->
<svg version="1.1" id="Layer_1" xmlns="http://www.w3.org/2000/svg" xmlns:xlink="http://www.w3.org/1999/xlink" x="0px" y="0px"
	 viewBox="-849.4 490.5 272.4 114.5" style="enable-background:new -849.4 490.5 272.4 114.5;" xml:space="preserve">
<style type="text/css">
	.st0{fill:#F7F9F9;}
	.st1{enable-background:new    ;}
</style>
<g id="XMLID_32_">
	<path id="XMLID_33_" class="st0" d="M-849,491h9.6c0.1,0.3,0.3,0.8,0.3,1.4c0,0.5-0.1,1.1-0.3,1.4h-6.3v3.8h5.8
		c0.1,0.3,0.3,0.8,0.3,1.4s-0.1,1.1-0.3,1.4h-5.8v5.7c-0.3,0.1-0.9,0.3-1.6,0.3c-0.8,0-1.3-0.1-1.6-0.3V491z"/>
	<path id="XMLID_35_" class="st0" d="M-833.1,500.5c0,2.3,1,3.3,3,3.3c2.3,0,3.2-1.3,3.2-3.4v-9.1c0.4-0.3,0.9-0.3,1.6-0.3
		c0.8,0,1.3,0.1,1.6,0.3v8.9c0,4-2,6.6-6.6,6.6c-4.2,0-6.2-2-6.2-5.9v-9.6c0.3-0.3,0.9-0.3,1.6-0.3c0.8,0,1.3,0.1,1.6,0.3V500.5
		L-833.1,500.5z"/>
	<path id="XMLID_37_" class="st0" d="M-813.2,493.8v12.1c-0.3,0.1-0.9,0.3-1.6,0.3s-1.3-0.1-1.6-0.3v-12.1h-4.3
		c-0.1-0.3-0.3-0.9-0.3-1.5c0-0.6,0.1-1.1,0.3-1.4h11.8c0.1,0.3,0.3,0.9,0.3,1.4s-0.1,1.1-0.3,1.5H-813.2z"/>
	<path id="XMLID_39_" class="st0" d="M-802.8,500.5c0,2.3,1,3.3,3,3.3c2.3,0,3.2-1.3,3.2-3.4v-9.1c0.3-0.1,0.9-0.3,1.5-0.3
		c0.8,0,1.3,0.1,1.6,0.3v8.9c0,4-2,6.6-6.6,6.6c-4.2,0-6.2-2-6.2-5.9v-9.6c0.5-0.3,1-0.4,1.8-0.4s1.3,0.1,1.6,0.3V500.5
		L-802.8,500.5z"/>
	<path id="XMLID_41_" class="st0" d="M-789.1,491.1c1.1-0.3,2.9-0.4,4.4-0.4c4.3,0,6.8,1.4,6.8,5c0,2.3-1,3.7-2.4,4.4l3.5,5.8
		c-0.3,0.3-0.9,0.3-1.8,0.3c-1,0-1.5-0.1-2-0.3l-2.9-5h-0.4c-0.8,0-1.8,0-2.3-0.1v5.2c-0.3,0.1-0.9,0.3-1.6,0.3s-1.3-0.1-1.6-0.3
		L-789.1,491.1L-789.1,491.1z M-785.9,493.7v4.4c0.5,0.1,1.3,0.1,1.9,0.1c1.9,0,3-0.6,3-2.3c0-1.8-1.3-2.4-3.3-2.4
		C-785,493.5-785.5,493.5-785.9,493.7z"/>
	<path id="XMLID_44_" class="st0" d="M-763.6,491c0.1,0.3,0.3,0.8,0.3,1.4c0,0.6-0.1,1.1-0.3,1.4h-6.8v3.4h6.4
		c0.1,0.3,0.3,0.8,0.3,1.4c0,0.5-0.1,1-0.3,1.4h-6.4v3.5h7.1c0.1,0.3,0.3,0.8,0.3,1.4s-0.1,1.1-0.3,1.4h-10.2V491L-763.6,491z"/>
	<path id="XMLID_46_" class="st0" d="M-741,498.4c0,5.4-2.9,8.2-7.2,8.2c-4.7,0-7.2-2.6-7.2-8.2c0-4.9,3-7.9,7.2-7.9
		C-744,490.5-741,493.3-741,498.4z M-748.3,503.9c2.5,0,3.9-2,3.9-5.4c0-3.2-1.5-5.2-3.9-5.2c-2.5,0-3.9,1.9-3.9,5.2
		C-752.2,501.8-750.7,503.9-748.3,503.9z"/>
	<path id="XMLID_49_" class="st0" d="M-737.4,491h9.6c0.1,0.3,0.3,0.8,0.3,1.4c0,0.5-0.1,1.1-0.3,1.4h-6.3v3.8h5.8
		c0.1,0.3,0.3,0.8,0.3,1.4s-0.1,1.1-0.3,1.4h-5.8v5.7c-0.3,0.1-0.9,0.3-1.6,0.3c-0.8,0-1.3-0.1-1.6-0.3V491z"/>
</g>
<g class="st1">
	<path class="st0" d="M-796.4,517.3l-10.9,63.4h-6.6l-8.8-50.4l-8.8,50.4h-6.6l-10.9-63.4h4.5l9.6,56.9l10.2-56.9h4l10.2,56.9
		l9.6-56.9H-796.4z"/>
	<path class="st0" d="M-768.9,580.7h-22.6v-63.4h22.6v4.5H-787v23.1h13.6v4.5H-787v26.7h18.1V580.7z"/>
	<path class="st0" d="M-735.7,540.2c0,3.7-1.7,6.2-4.5,6.9c2.8,0.8,4.5,3.4,4.5,6.9v17.5c0,5-4.1,9.1-9.1,9.1h-18.1v-63.4h18.1
		c5,0,9.1,4.1,9.1,9.1V540.2z M-740.2,526.3c0-2.5-2-4.5-4.5-4.5h-13.6v23.1h13.6c2.5,0,4.5-2,4.5-4.5V526.3z M-740.2,553.9
		c0-2.5-2-4.5-4.5-4.5h-13.6v26.7h13.6c2.5,0,4.5-2,4.5-4.5V553.9z"/>
	<path class="st0" d="M-681.4,580.7h-5.1l-2.1-11.3H-708l-2.3,11.3h-5.1l13.6-63.4h6.9L-681.4,580.7z M-689.6,564.8l-8.6-42l-8.9,42
		H-689.6z"/>
	<path class="st0" d="M-649.1,546.3c0,5-4,9.1-9.1,9.1h-13.6v25.3h-4.5v-63.4h18.1c5,0,9.1,4.1,9.1,9.1V546.3z M-653.7,526.3
		c0-2.5-2-4.5-4.5-4.5h-13.6v29h13.6c2.5,0,4.5-2,4.5-4.5V526.3z"/>
	<path class="st0" d="M-616,546.3c0,5-4,9.1-9.1,9.1h-13.6v25.3h-4.5v-63.4h18.1c5,0,9.1,4.1,9.1,9.1V546.3z M-620.6,526.3
		c0-2.5-2-4.5-4.5-4.5h-13.6v29h13.6c2.5,0,4.5-2,4.5-4.5V526.3z"/>
	<path class="st0" d="M-587.3,563.7c0-2.3-0.7-4.2-2.1-5.7l-16.8-16.7c-2.3-2.1-3.7-5.2-3.7-9.2v-5.9c0-5,4.1-9.1,9.1-9.1h9.1
		c5,0,9.1,4.1,9.1,9.1v9.1h-4.5v-9.1c0-2.5-2-4.5-4.5-4.5h-9.1c-2.4,0-4.5,2-4.5,4.5v5.9c0,2.3,0.7,4.2,2.1,5.7l16.7,16.7
		c2.3,2.1,3.7,5.2,3.7,9.2v7.9c0,5-4.1,9.1-9.1,9.1h-9.1c-5,0-9.1-4.1-9.1-9.1v-9.1h4.5v9.1c0,2.5,2.1,4.5,4.5,4.5h9.1
		c2.5,0,4.5-2,4.5-4.5v-7.9H-587.3z"/>
</g>
</svg>
