<?xml version="1.0" encoding="utf-8"?>
<!-- Generator: Adobe Illustrator 19.1.0, SVG Export Plug-In . SVG Version: 6.00 Build 0)  -->
<svg version="1.1" id="Layer_1" xmlns="http://www.w3.org/2000/svg" xmlns:xlink="http://www.w3.org/1999/xlink" x="0px" y="0px"
	 viewBox="-39 107.7 219.5 87.3" style="enable-background:new -39 107.7 219.5 87.3;" xml:space="preserve">
<style type="text/css">
	.st0{fill:#F7F9F9;}
</style>
<g id="XMLID_32_">
	<path id="XMLID_33_" class="st0" d="M36.7,108.1h7.6c0.1,0.2,0.2,0.6,0.2,1.1c0,0.4-0.1,0.9-0.2,1.1h-5v3h4.6
		c0.1,0.2,0.2,0.6,0.2,1.1s-0.1,0.9-0.2,1.1h-4.6v4.5c-0.2,0.1-0.7,0.2-1.3,0.2s-1-0.1-1.3-0.2V108.1z"/>
	<path id="XMLID_35_" class="st0" d="M49.3,115.6c0,1.8,0.8,2.6,2.4,2.6c1.8,0,2.5-1,2.5-2.7v-7.2c0.3-0.2,0.7-0.2,1.3-0.2
		c0.6,0,1,0.1,1.3,0.2v7.1c0,3.2-1.6,5.2-5.2,5.2c-3.3,0-4.9-1.6-4.9-4.7v-7.6c0.2-0.2,0.7-0.2,1.3-0.2c0.6,0,1,0.1,1.3,0.2
		L49.3,115.6L49.3,115.6z"/>
	<path id="XMLID_37_" class="st0" d="M65.1,110.3v9.6c-0.2,0.1-0.7,0.2-1.3,0.2c-0.6,0-1-0.1-1.3-0.2v-9.6h-3.4
		c-0.1-0.2-0.2-0.7-0.2-1.2s0.1-0.9,0.2-1.1h9.4c0.1,0.2,0.2,0.7,0.2,1.1s-0.1,0.9-0.2,1.2H65.1z"/>
	<path id="XMLID_39_" class="st0" d="M73.4,115.6c0,1.8,0.8,2.6,2.4,2.6c1.8,0,2.5-1,2.5-2.7v-7.2c0.2-0.1,0.7-0.2,1.2-0.2
		c0.6,0,1,0.1,1.3,0.2v7.1c0,3.2-1.6,5.2-5.2,5.2c-3.3,0-4.9-1.6-4.9-4.7v-7.6c0.4-0.2,0.8-0.3,1.4-0.3c0.6,0,1,0.1,1.3,0.2V115.6
		L73.4,115.6z"/>
	<path id="XMLID_41_" class="st0" d="M84.2,108.2c0.9-0.2,2.3-0.3,3.5-0.3c3.4,0,5.4,1.1,5.4,4c0,1.8-0.8,2.9-1.9,3.5L94,120
		c-0.2,0.2-0.7,0.2-1.4,0.2c-0.8,0-1.2-0.1-1.6-0.2l-2.3-4h-0.3c-0.6,0-1.4,0-1.8-0.1v4.1c-0.2,0.1-0.7,0.2-1.3,0.2s-1-0.1-1.3-0.2
		L84.2,108.2L84.2,108.2z M86.8,110.2v3.5c0.4,0.1,1,0.1,1.5,0.1c1.5,0,2.4-0.5,2.4-1.8c0-1.4-1-1.9-2.6-1.9
		C87.5,110.1,87.1,110.1,86.8,110.2z"/>
	<path id="XMLID_44_" class="st0" d="M104.4,108.1c0.1,0.2,0.2,0.6,0.2,1.1s-0.1,0.9-0.2,1.1h-5.4v2.7h5.1c0.1,0.2,0.2,0.6,0.2,1.1
		c0,0.4-0.1,0.8-0.2,1.1h-5.1v2.8h5.6c0.1,0.2,0.2,0.6,0.2,1.1s-0.1,0.9-0.2,1.1h-8.1v-12.1H104.4z"/>
</g>
<g>
	<path class="st0" d="M-31.2,132.3c0.7-0.4,2-0.6,3.6-0.6c1.7,0,2.9,0.2,3.6,0.6v33.3c-0.7,0.4-1.9,0.6-3.6,0.6
		c-1.7,0-2.9-0.2-3.6-0.6V132.3z"/>
	<path class="st0" d="M-10.7,165.6c-0.7,0.4-1.8,0.6-3.5,0.6c-1.6,0-2.7-0.2-3.4-0.6v-33.5c1.2-0.3,2.7-0.5,4.8-0.5
		c2.1,0,3.6,0.2,4.7,0.5L1.2,149c1.2,2.2,2.4,6,3,8.8h0.4v-25.5c0.7-0.4,1.7-0.6,3.4-0.6c1.6,0,2.7,0.2,3.4,0.6v33.5
		c-1,0.3-2.4,0.5-4.5,0.5c-2.1,0-3.6-0.2-4.5-0.5L-7.3,148c-1.1-2-2.3-5.4-3-8.7h-0.4V165.6z"/>
	<path class="st0" d="M26.5,161c4.3,0,6-1.6,6-4.2c0-7.1-16-3.3-16-15.6c0-6.9,4.5-10.5,11.9-10.5c3.2,0,6,0.7,8.4,2.1
		c1.1,1.7,1.6,4.5,1.3,6.6c-2.6-1.6-6-2.7-9.2-2.7c-3.6,0-5.1,1.3-5.1,3.5c0,6.6,15.9,3.1,15.9,15.6c0,8.4-5.8,11.2-13.1,11.2
		c-3.6,0-6.9-0.7-9.6-1.9c-1.2-1.9-1.6-4.9-1.3-7C18.4,159.8,22.9,161,26.5,161z"/>
	<path class="st0" d="M43.7,132.3c0.7-0.4,2-0.6,3.6-0.6c1.7,0,2.9,0.2,3.6,0.6v33.3c-0.7,0.4-1.9,0.6-3.6,0.6
		c-1.7,0-2.9-0.2-3.6-0.6V132.3z"/>
	<path class="st0" d="M72.9,167.1c-10.9,0-17.3-6.4-17.3-17.5c0-12,7.3-18.9,18.9-18.9c3.2,0,6,0.5,8.2,1.6c1.1,1.7,1.5,4.4,1.3,6.5
		c-2.5-1.2-5.4-1.8-8.5-1.8c-7.5,0-12.3,3.4-12.3,12.1c0,8.2,4.3,11.6,10.6,11.6c2,0,3.8-0.3,5.1-0.8v-7.6h-6.7
		c-0.3-0.6-0.5-1.8-0.5-3c0-1.2,0.2-2.4,0.5-3h13.3v18.2C82.3,166,77.5,167.1,72.9,167.1z"/>
	<path class="st0" d="M112.2,151.8H97.7v13.8c-0.7,0.4-1.9,0.6-3.6,0.6c-1.7,0-2.9-0.2-3.6-0.6v-33.3c0.7-0.4,1.9-0.6,3.6-0.6
		c1.7,0,2.9,0.2,3.6,0.6v13.2h14.4v-13.2c0.7-0.4,1.9-0.6,3.6-0.6c1.7,0,2.9,0.2,3.6,0.6v33.3c-0.7,0.4-1.9,0.6-3.6,0.6
		c-1.7,0-2.9-0.2-3.6-0.6V151.8z"/>
	<path class="st0" d="M139.9,138.3v27.3c-0.7,0.4-1.9,0.6-3.6,0.6c-1.7,0-2.9-0.2-3.6-0.6v-27.3H123c-0.3-0.6-0.5-1.9-0.5-3.2
		c0-1.3,0.2-2.5,0.5-3.2h26.5c0.3,0.6,0.5,1.9,0.5,3.2c0,1.3-0.2,2.6-0.5,3.2H139.9z"/>
	<path class="st0" d="M161.9,161c4.3,0,6-1.6,6-4.2c0-7.1-16-3.3-16-15.6c0-6.9,4.5-10.5,11.9-10.5c3.2,0,6,0.7,8.4,2.1
		c1.1,1.7,1.6,4.5,1.3,6.6c-2.6-1.6-6-2.7-9.2-2.7c-3.6,0-5.1,1.3-5.1,3.5c0,6.6,15.9,3.1,15.9,15.6c0,8.4-5.8,11.2-13.1,11.2
		c-3.6,0-6.9-0.7-9.6-1.9c-1.2-1.9-1.6-4.9-1.3-7C153.8,159.8,158.4,161,161.9,161z"/>
	<path class="st0" d="M49.7,195v-15.4c0.3-0.2,0.9-0.3,1.7-0.3c0.8,0,1.3,0.1,1.6,0.3v12.5h6.8c0.1,0.3,0.2,0.9,0.2,1.5
		c0,0.6-0.1,1.2-0.2,1.5H49.7z"/>
	<path class="st0" d="M61.6,179.6c0.3-0.2,0.9-0.3,1.7-0.3c0.8,0,1.3,0.1,1.7,0.3v15.2c-0.3,0.2-0.9,0.3-1.7,0.3
		c-0.8,0-1.3-0.1-1.7-0.3V179.6z"/>
	<path class="st0" d="M73.7,192.5c0.2-1.5,0.5-3,0.9-4.3l2.7-8.6c0.4-0.2,0.9-0.3,1.7-0.3c0.8,0,1.3,0.1,1.7,0.3l-5.2,15.3
		c-0.5,0.1-1.2,0.2-2,0.2c-0.8,0-1.6-0.1-2-0.2l-5.1-15.3c0.3-0.2,0.9-0.3,1.8-0.3c0.8,0,1.4,0.1,1.7,0.3l2.8,8.6
		c0.4,1.3,0.7,2.8,0.9,4.3H73.7z"/>
	<path class="st0" d="M92.4,179.4c0.1,0.3,0.2,0.8,0.2,1.4s-0.1,1.1-0.2,1.4h-7.1v3.5h6.5c0.1,0.3,0.2,0.8,0.2,1.4
		c0,0.6-0.1,1.1-0.2,1.4h-6.5v3.7h7.3c0.1,0.3,0.2,0.8,0.2,1.4c0,0.6-0.1,1.2-0.2,1.4H82v-15.6H92.4z"/>
</g>
</svg>
