<?xml version="1.0" encoding="utf-8"?>
<!-- Generator: Adobe Illustrator 19.1.0, SVG Export Plug-In . SVG Version: 6.00 Build 0)  -->
<svg version="1.1" id="Layer_1" xmlns="http://www.w3.org/2000/svg" xmlns:xlink="http://www.w3.org/1999/xlink" x="0px" y="0px"
	 viewBox="-39 107.7 219.5 87.3" style="enable-background:new -39 107.7 219.5 87.3;" xml:space="preserve">
<style type="text/css">
	.st0{fill:#F7F9F9;}
	.st1{fill:none;}
	.st2{enable-background:new    ;}
</style>
<g id="XMLID_32_">
	<path id="XMLID_33_" class="st0" d="M22.4,108.1H30c0.1,0.2,0.2,0.6,0.2,1.1c0,0.4-0.1,0.9-0.2,1.1h-5v3h4.6
		c0.1,0.2,0.2,0.6,0.2,1.1s-0.1,0.9-0.2,1.1H25v4.5c-0.2,0.1-0.7,0.2-1.3,0.2s-1-0.1-1.3-0.2C22.4,120,22.4,108.1,22.4,108.1z"/>
	<path id="XMLID_35_" class="st0" d="M35,115.6c0,1.8,0.8,2.6,2.4,2.6c1.8,0,2.5-1,2.5-2.7v-7.2c0.3-0.2,0.7-0.2,1.3-0.2
		s1,0.1,1.3,0.2v7.1c0,3.2-1.6,5.2-5.2,5.2c-3.3,0-4.9-1.6-4.9-4.7v-7.6c0.2-0.2,0.7-0.2,1.3-0.2s1,0.1,1.3,0.2L35,115.6L35,115.6z"
		/>
	<path id="XMLID_37_" class="st0" d="M50.8,110.3v9.6c-0.2,0.1-0.7,0.2-1.3,0.2s-1-0.1-1.3-0.2v-9.6h-3.4c-0.1-0.2-0.2-0.7-0.2-1.2
		s0.1-0.9,0.2-1.1h9.4c0.1,0.2,0.2,0.7,0.2,1.1s-0.1,0.9-0.2,1.2H50.8z"/>
	<path id="XMLID_39_" class="st0" d="M59.1,115.6c0,1.8,0.8,2.6,2.4,2.6c1.8,0,2.5-1,2.5-2.7v-7.2c0.2-0.1,0.7-0.2,1.2-0.2
		c0.6,0,1,0.1,1.3,0.2v7.1c0,3.2-1.6,5.2-5.2,5.2c-3.3,0-4.9-1.6-4.9-4.7v-7.6c0.4-0.2,0.8-0.3,1.4-0.3s1,0.1,1.3,0.2L59.1,115.6
		L59.1,115.6z"/>
	<path id="XMLID_41_" class="st0" d="M69.9,108.2c0.9-0.2,2.3-0.3,3.5-0.3c3.4,0,5.4,1.1,5.4,4c0,1.8-0.8,2.9-1.9,3.5l2.8,4.6
		c-0.2,0.2-0.7,0.2-1.4,0.2c-0.8,0-1.2-0.1-1.6-0.2l-2.3-4h-0.3c-0.6,0-1.4,0-1.8-0.1v4.1c-0.2,0.1-0.7,0.2-1.3,0.2s-1-0.1-1.3-0.2
		L69.9,108.2L69.9,108.2z M72.5,110.2v3.5c0.4,0.1,1,0.1,1.5,0.1c1.5,0,2.4-0.5,2.4-1.8c0-1.4-1-1.9-2.6-1.9
		C73.2,110.1,72.8,110.1,72.5,110.2z"/>
	<path id="XMLID_44_" class="st0" d="M90.2,108.1c0.1,0.2,0.2,0.6,0.2,1.1s-0.1,0.9-0.2,1.1h-5.4v2.7h5.1c0.1,0.2,0.2,0.6,0.2,1.1
		c0,0.4-0.1,0.8-0.2,1.1h-5.1v2.8h5.6c0.1,0.2,0.2,0.6,0.2,1.1s-0.1,0.9-0.2,1.1h-8.1v-12.1C82.3,108.1,90.2,108.1,90.2,108.1z"/>
	<path id="XMLID_46_" class="st0" d="M108.1,114c0,4.3-2.3,6.5-5.7,6.5c-3.7,0-5.7-2.1-5.7-6.5c0-3.9,2.4-6.3,5.7-6.3
		C105.8,107.7,108.1,109.9,108.1,114z M102.3,118.3c2,0,3.1-1.6,3.1-4.3c0-2.5-1.2-4.1-3.1-4.1c-2,0-3.1,1.5-3.1,4.1
		C99.2,116.7,100.4,118.3,102.3,118.3z"/>
	<path id="XMLID_49_" class="st0" d="M111,108.1h7.6c0.1,0.2,0.2,0.6,0.2,1.1c0,0.4-0.1,0.9-0.2,1.1h-5v3h4.6
		c0.1,0.2,0.2,0.6,0.2,1.1s-0.1,0.9-0.2,1.1h-4.6v4.5c-0.2,0.1-0.7,0.2-1.3,0.2s-1-0.1-1.3-0.2C111,120,111,108.1,111,108.1z"/>
</g>
<rect x="-39.1" y="132.8" class="st1" width="219.6" height="42.9"/>
<g class="st2">
	<path class="st0" d="M-15.9,132.8h13.6l4.6,14l4.6-14h8.8l4.6,14l4.6-14h13.6l-13.2,40h-10l-4-12.1l-4,12.1h-10L-15.9,132.8z
		 M3.3,168l8-25.1l8,25.1h1.5l10-30.4h-1.6L20,165.2l-8.8-27.7l-8.8,27.7l-9.1-27.7h-1.6l10,30.4H3.3z"/>
	<path class="st0" d="M37.3,152.8c0-2.9,0.5-5.6,1.6-8.2c1.1-2.6,2.6-4.8,4.5-6.7c1.9-1.9,4.1-3.4,6.7-4.5c2.6-1.1,5.3-1.7,8.2-1.7
		c2.9,0,5.6,0.6,8.2,1.7c2.6,1.1,4.8,2.6,6.7,4.5c1.9,1.9,3.4,4.1,4.5,6.7c1.1,2.6,1.7,5.3,1.7,8.2c0,2.9-0.6,5.6-1.7,8.2
		c-1.1,2.6-2.6,4.8-4.5,6.7c-1.9,1.9-4.1,3.4-6.7,4.5c-2.6,1.1-5.3,1.6-8.2,1.6c-2.9,0-5.6-0.5-8.2-1.6c-2.6-1.1-4.8-2.6-6.7-4.5
		c-1.9-1.9-3.4-4.1-4.5-6.7C37.9,158.4,37.3,155.7,37.3,152.8z M43,152.8c0,2.1,0.4,4.1,1.2,6c0.8,1.9,1.9,3.5,3.3,4.9
		c1.4,1.4,3,2.5,4.9,3.3c1.9,0.8,3.8,1.2,6,1.2c2.1,0,4.1-0.4,6-1.2c1.9-0.8,3.5-1.9,4.9-3.3c1.4-1.4,2.5-3,3.3-4.9
		c0.8-1.9,1.2-3.8,1.2-6c0-2.1-0.4-4.1-1.2-6c-0.8-1.9-1.9-3.5-3.3-4.9c-1.4-1.4-3-2.5-4.9-3.3s-3.9-1.2-6-1.2c-2.1,0-4.1,0.4-6,1.2
		s-3.5,1.9-4.9,3.3c-1.4,1.4-2.5,3-3.3,4.9C43.4,148.7,43,150.7,43,152.8z M58.3,166.6c-1.9,0-3.7-0.4-5.4-1.1
		c-1.7-0.7-3.1-1.7-4.4-3c-1.3-1.3-2.2-2.7-3-4.4c-0.7-1.7-1.1-3.4-1.1-5.4c0-1.9,0.4-3.7,1.1-5.4s1.7-3.1,3-4.4
		c1.3-1.3,2.7-2.2,4.4-3c1.7-0.7,3.4-1.1,5.4-1.1c1.9,0,3.7,0.4,5.4,1.1c1.7,0.7,3.1,1.7,4.4,3c1.3,1.3,2.2,2.7,3,4.4
		c0.7,1.7,1.1,3.4,1.1,5.4c0,1.9-0.4,3.7-1.1,5.4c-0.7,1.7-1.7,3.1-3,4.4c-1.3,1.3-2.7,2.2-4.4,3C62,166.2,60.3,166.6,58.3,166.6z
		 M49.9,152.8c0,1.2,0.2,2.2,0.7,3.3c0.4,1,1,1.9,1.8,2.7c0.8,0.8,1.7,1.4,2.7,1.8c1,0.4,2.1,0.7,3.3,0.7c1.2,0,2.2-0.2,3.3-0.7
		c1-0.4,1.9-1,2.7-1.8c0.8-0.8,1.4-1.7,1.8-2.7c0.4-1,0.7-2.1,0.7-3.3c0-1.2-0.2-2.2-0.7-3.3c-0.4-1-1-1.9-1.8-2.7
		c-0.8-0.8-1.6-1.4-2.7-1.8s-2.1-0.7-3.3-0.7c-1.2,0-2.2,0.2-3.3,0.7s-1.9,1-2.7,1.8c-0.8,0.8-1.4,1.7-1.8,2.7
		C50.2,150.5,49.9,151.6,49.9,152.8z"/>
</g>
<g class="st2">
	<path class="st0" d="M83.8,132.8h13.8c2.6,0,4.9,0.3,7.1,1c2.2,0.7,4.1,1.7,5.7,3c1.6,1.3,2.8,3,3.8,4.9c0.9,1.9,1.3,4.2,1.3,6.7
		c0,2-0.3,3.7-0.8,5.1c-0.6,1.4-1.2,2.6-1.9,3.5c-0.8,1-1.7,1.9-2.7,2.6l7.5,13.2h-15l-6-10.1v10.1H83.8V132.8z M96.3,158.9
		c1.6,0,3.1-0.2,4.6-0.5l5.7,9.6h1.9l-6-10.1c2.2-0.8,3.9-1.9,5.2-3.5c1.3-1.6,1.9-3.6,1.9-6.2c0-1.8-0.3-3.3-1-4.6
		s-1.6-2.4-2.8-3.3c-1.2-0.9-2.6-1.6-4.2-2c-1.6-0.5-3.3-0.7-5.2-0.7h-6.5V168h1.6v-9.1H96.3z M91.3,157.4V139h4.9
		c3.6,0,6.5,0.8,8.5,2.4c2.1,1.6,3.1,3.9,3.1,6.8c0,3-1,5.2-3.1,6.8c-2.1,1.6-4.9,2.4-8.5,2.4H91.3z M96.6,152.4h0.7
		c1.5,0,2.8-0.3,3.9-1c1.1-0.7,1.6-1.8,1.6-3.4c0-1.6-0.5-2.7-1.6-3.4c-1.1-0.7-2.4-1-3.9-1h-0.7V152.4z"/>
	<path class="st0" d="M121.8,132.8h13v9.2l7.6-9.2h15.7l-14.1,18.3l14.8,21.7h-15.4l-8.5-12.4v12.4h-13V132.8z M129.3,168v-8.1
		l6.2-7.7l10.9,15.8h1.9l-11.7-17.1l10.7-13.3h-1.9l-16.1,19.9v-19.9h-1.6V168H129.3z"/>
</g>
</svg>
