<?xml version="1.0" encoding="utf-8"?>
<!-- Generator: Adobe Illustrator 19.0.0, SVG Export Plug-In . SVG Version: 6.00 Build 0)  -->
<svg version="1.1" id="Layer_1" xmlns="http://www.w3.org/2000/svg" xmlns:xlink="http://www.w3.org/1999/xlink" x="0px" y="0px"
	 viewBox="0 0 500 186.9" style="enable-background:new 0 0 500 186.9;" xml:space="preserve">
<style type="text/css">
	.st0{fill:#F7F9F9;}
</style>
<g id="XMLID_25_">
	<path id="XMLID_26_" class="st0" d="M0,1.1h21.6c0.3,0.6,0.5,1.8,0.5,3.1c0,1.3-0.2,2.6-0.5,3.1H7.3v8.7h13.2
		c0.3,0.6,0.5,1.8,0.5,3.1c0,1.3-0.2,2.5-0.5,3.1H7.3v12.8c-0.7,0.4-1.9,0.6-3.6,0.6c-1.7,0-2.9-0.2-3.7-0.6V1.1z"/>
	<path id="XMLID_28_" class="st0" d="M36,22.5c0,5.1,2.1,7.5,7,7.5c5.2,0,7.3-2.9,7.3-7.7V1.5c0.7-0.4,1.9-0.6,3.5-0.6
		c1.7,0,2.9,0.2,3.6,0.6v20.3c0,9.2-4.4,14.7-14.7,14.7c-9.5,0-13.9-4.7-13.9-13.5V1.5c0.7-0.4,2-0.6,3.7-0.6c1.7,0,2.9,0.2,3.6,0.6
		V22.5z"/>
	<path id="XMLID_30_" class="st0" d="M81,7.5v27.5c-0.7,0.4-1.9,0.6-3.6,0.6c-1.7,0-2.9-0.2-3.7-0.6V7.5H64
		c-0.3-0.6-0.5-1.9-0.5-3.2c0-1.3,0.2-2.6,0.5-3.2h26.7C91,1.7,91.2,3,91.2,4.3c0,1.3-0.2,2.6-0.5,3.2H81z"/>
	<path id="XMLID_32_" class="st0" d="M104.8,22.5c0,5.1,2.1,7.5,7,7.5c5.2,0,7.3-2.9,7.3-7.7V1.5c0.7-0.4,1.9-0.6,3.5-0.6
		c1.7,0,2.9,0.2,3.6,0.6v20.3c0,9.2-4.4,14.7-14.7,14.7c-9.5,0-13.9-4.7-13.9-13.5V1.5c0.7-0.4,2-0.6,3.7-0.6c1.7,0,2.9,0.2,3.6,0.6
		V22.5z"/>
	<path id="XMLID_34_" class="st0" d="M135.5,1.5c2.6-0.6,6.5-0.9,10.1-0.9c9.7,0,15.5,3.2,15.5,11.3c0,5-2.1,8.3-5.5,10.1l8.1,13.1
		c-0.6,0.4-2,0.7-3.9,0.7c-2.1,0-3.5-0.2-4.5-0.7l-6.7-11.3h-0.8c-1.6,0-3.8-0.1-5-0.3v11.7c-0.7,0.4-1.9,0.6-3.6,0.6
		c-1.7,0-2.9-0.2-3.7-0.6V1.5z M142.8,7.1v10.1c1,0.2,2.8,0.3,4.2,0.3c4.2,0,6.8-1.5,6.8-5.3c0-3.9-2.7-5.5-7.5-5.5
		C145,6.8,143.8,6.9,142.8,7.1z"/>
	<path id="XMLID_37_" class="st0" d="M193.3,1.1c0.3,0.6,0.5,1.8,0.5,3.1c0,1.3-0.2,2.5-0.5,3.1h-15.6v7.8h14.4
		c0.3,0.6,0.5,1.7,0.5,3c0,1.3-0.2,2.4-0.5,3h-14.4v8.1h16c0.3,0.6,0.5,1.8,0.5,3.1c0,1.3-0.2,2.6-0.5,3.1h-23.2V1.1H193.3z"/>
	<path id="XMLID_39_" class="st0" d="M244.4,17.9c0,12.1-6.4,18.7-16.3,18.7c-10.5,0-16.4-6.1-16.4-18.7c0-11.3,6.9-17.9,16.4-17.9
		C237.8,0,244.4,6.2,244.4,17.9z M228.1,30.2c5.8,0,8.8-4.4,8.8-12.3c0-7.3-3.5-11.6-8.8-11.6c-5.8,0-8.8,4.3-8.8,11.6
		C219.2,25.8,222.4,30.2,228.1,30.2z"/>
	<path id="XMLID_42_" class="st0" d="M252.8,1.1h21.6c0.3,0.6,0.5,1.8,0.5,3.1c0,1.3-0.2,2.6-0.5,3.1h-14.3v8.7h13.2
		c0.3,0.6,0.5,1.8,0.5,3.1c0,1.3-0.2,2.5-0.5,3.1h-13.2v12.8c-0.7,0.4-1.9,0.6-3.6,0.6c-1.7,0-2.9-0.2-3.7-0.6V1.1z"/>
</g>
<g id="XMLID_3_">
	<path id="XMLID_5_" class="st0" d="M92.4,76.1l-19,110.8H61.9l-15.3-88l-15.3,88H19.6L0.6,76.1h7.9l16.8,99.4l17.9-99.4H50
		l17.9,99.4l16.9-99.4H92.4z"/>
	<path id="XMLID_8_" class="st0" d="M145.3,186.9h-39.6V76.1h39.6V84h-31.6v40.4h23.7v7.9h-23.7V179h31.6V186.9z"/>
	<path id="XMLID_10_" class="st0" d="M208.2,116.2c0,6.3-3,10.8-7.9,12.2c4.9,1.4,7.9,5.9,7.9,12.2v30.5c0,8.7-7.1,15.8-15.8,15.8
		h-31.6V76.1h31.6c8.7,0,15.8,7.1,15.8,15.8V116.2z M200.3,92c0-4.4-3.5-7.9-7.9-7.9h-23.7v40.4h23.7c4.4,0,7.9-3.5,7.9-7.9V92z
		 M200.3,140.2c0-4.4-3.5-7.9-7.9-7.9h-23.7V179h23.7c4.4,0,7.9-3.5,7.9-7.9V140.2z"/>
	<path id="XMLID_14_" class="st0" d="M313.1,186.9h-8.9l-3.8-19.8h-34l-4,19.8h-8.9l23.7-110.8h12L313.1,186.9z M298.7,159.2
		l-15-73.4l-15.5,73.4H298.7z"/>
	<path id="XMLID_17_" class="st0" d="M374.4,126.8c0,8.7-7,15.8-15.8,15.8h-23.7v44.3h-7.9V76.1h31.6c8.7,0,15.8,7.1,15.8,15.8
		V126.8z M366.5,92c0-4.4-3.5-7.9-7.9-7.9h-23.7v50.6h23.7c4.4,0,7.9-3.5,7.9-7.9V92z"/>
	<path id="XMLID_20_" class="st0" d="M437.2,126.8c0,8.7-7,15.8-15.8,15.8h-23.7v44.3h-7.9V76.1h31.6c8.7,0,15.8,7.1,15.8,15.8
		V126.8z M429.3,92c0-4.4-3.5-7.9-7.9-7.9h-23.7v50.6h23.7c4.4,0,7.9-3.5,7.9-7.9V92z"/>
	<path id="XMLID_23_" class="st0" d="M492.1,157.2c0-4-1.3-7.4-3.8-9.8L459,118.2c-4-3.8-6.5-9.2-6.5-16V92
		c0-8.7,7.1-15.8,15.8-15.8h15.8c8.7,0,15.8,7.1,15.8,15.8v15.8h-7.9V92c0-4.4-3.5-7.9-7.9-7.9h-15.8c-4.3,0-7.9,3.5-7.9,7.9v10.3
		c0,4,1.3,7.4,3.8,9.8l29.3,29.1c4,3.8,6.5,9.2,6.5,16v13.9c0,8.7-7.1,15.8-15.8,15.8h-15.8c-8.7,0-15.8-7.1-15.8-15.8v-15.8h7.9
		v15.8c0,4.4,3.6,7.9,7.9,7.9h15.8c4.4,0,7.9-3.5,7.9-7.9V157.2z"/>
</g>
</svg>
