<?xml version="1.0" encoding="utf-8"?>
<!-- Generator: Adobe Illustrator 19.1.0, SVG Export Plug-In . SVG Version: 6.00 Build 0)  -->
<svg version="1.1" id="Layer_1" xmlns="http://www.w3.org/2000/svg" xmlns:xlink="http://www.w3.org/1999/xlink" x="0px" y="0px"
	 viewBox="-39 107.7 219.5 87.3" style="enable-background:new -39 107.7 219.5 87.3;" xml:space="preserve">
<style type="text/css">
	.st0{fill:none;}
	.st1{fill:#F7F9F9;}
	.st2{font-family:'RefrigeratorDeluxe-Light';}
	.st3{font-size:64px;}
	.st4{letter-spacing:-2;}
</style>
<rect x="-39" y="132.4" class="st0" width="219.5" height="75.8"/>
<text transform="matrix(1 0 0 1 -24.4159 177.2109)" class="st1 st2 st3 st4">WEB APPS</text>
<g id="XMLID_32_">
	<path id="XMLID_33_" class="st1" d="M22.6,108.1h7.6c0.1,0.2,0.2,0.6,0.2,1.1c0,0.4-0.1,0.9-0.2,1.1h-5v3h4.6
		c0.1,0.2,0.2,0.6,0.2,1.1s-0.1,0.9-0.2,1.1h-4.6v4.5c-0.2,0.1-0.7,0.2-1.3,0.2s-1-0.1-1.3-0.2V108.1z"/>
	<path id="XMLID_35_" class="st1" d="M35.2,115.6c0,1.8,0.8,2.6,2.4,2.6c1.8,0,2.5-1,2.5-2.7v-7.2c0.3-0.2,0.7-0.2,1.3-0.2
		c0.6,0,1,0.1,1.3,0.2v7.1c0,3.2-1.6,5.2-5.2,5.2c-3.3,0-4.9-1.6-4.9-4.7v-7.6c0.2-0.2,0.7-0.2,1.3-0.2c0.6,0,1,0.1,1.3,0.2
		L35.2,115.6L35.2,115.6z"/>
	<path id="XMLID_37_" class="st1" d="M51,110.3v9.6c-0.2,0.1-0.7,0.2-1.3,0.2c-0.6,0-1-0.1-1.3-0.2v-9.6H45
		c-0.1-0.2-0.2-0.7-0.2-1.2s0.1-0.9,0.2-1.1h9.4c0.1,0.2,0.2,0.7,0.2,1.1s-0.1,0.9-0.2,1.2H51z"/>
	<path id="XMLID_39_" class="st1" d="M59.3,115.6c0,1.8,0.8,2.6,2.4,2.6c1.8,0,2.5-1,2.5-2.7v-7.2c0.2-0.1,0.7-0.2,1.2-0.2
		c0.6,0,1,0.1,1.3,0.2v7.1c0,3.2-1.6,5.2-5.2,5.2c-3.3,0-4.9-1.6-4.9-4.7v-7.6c0.4-0.2,0.8-0.3,1.4-0.3s1,0.1,1.3,0.2V115.6
		L59.3,115.6z"/>
	<path id="XMLID_41_" class="st1" d="M70.1,108.2c0.9-0.2,2.3-0.3,3.5-0.3c3.4,0,5.4,1.1,5.4,4c0,1.8-0.8,2.9-1.9,3.5l2.8,4.6
		c-0.2,0.2-0.7,0.2-1.4,0.2c-0.8,0-1.2-0.1-1.6-0.2l-2.3-4h-0.3c-0.6,0-1.4,0-1.8-0.1v4.1c-0.2,0.1-0.7,0.2-1.3,0.2s-1-0.1-1.3-0.2
		L70.1,108.2L70.1,108.2z M72.7,110.2v3.5c0.4,0.1,1,0.1,1.5,0.1c1.5,0,2.4-0.5,2.4-1.8c0-1.4-1-1.9-2.6-1.9
		C73.4,110.1,73,110.1,72.7,110.2z"/>
	<path id="XMLID_44_" class="st1" d="M90.4,108.1c0.1,0.2,0.2,0.6,0.2,1.1s-0.1,0.9-0.2,1.1H85v2.7h5.1c0.1,0.2,0.2,0.6,0.2,1.1
		c0,0.4-0.1,0.8-0.2,1.1H85v2.8h5.6c0.1,0.2,0.2,0.6,0.2,1.1s-0.1,0.9-0.2,1.1h-8.1v-12.1H90.4z"/>
	<path id="XMLID_46_" class="st1" d="M108.3,114c0,4.3-2.3,6.5-5.7,6.5c-3.7,0-5.7-2.1-5.7-6.5c0-3.9,2.4-6.3,5.7-6.3
		C105.9,107.7,108.3,109.9,108.3,114z M102.5,118.3c2,0,3.1-1.6,3.1-4.3c0-2.5-1.2-4.1-3.1-4.1c-2,0-3.1,1.5-3.1,4.1
		C99.4,116.7,100.6,118.3,102.5,118.3z"/>
	<path id="XMLID_49_" class="st1" d="M111.2,108.1h7.6c0.1,0.2,0.2,0.6,0.2,1.1c0,0.4-0.1,0.9-0.2,1.1h-5v3h4.6
		c0.1,0.2,0.2,0.6,0.2,1.1s-0.1,0.9-0.2,1.1h-4.6v4.5c-0.2,0.1-0.7,0.2-1.3,0.2s-1-0.1-1.3-0.2V108.1z"/>
</g>
</svg>
