<?xml version="1.0" encoding="utf-8"?>
<!-- Generator: Adobe Illustrator 19.1.0, SVG Export Plug-In . SVG Version: 6.00 Build 0)  -->
<svg version="1.1" id="Layer_1" xmlns="http://www.w3.org/2000/svg" xmlns:xlink="http://www.w3.org/1999/xlink" x="0px" y="0px"
	 viewBox="-187 166.2 219.5 87.3" style="enable-background:new -187 166.2 219.5 87.3;" xml:space="preserve">
<style type="text/css">
	.st0{enable-background:new    ;}
	.st1{fill:#F7F9F9;}
</style>
<g class="st0">
	<path class="st1" d="M-134.2,190.9l-7.7,44.8h-4.7l-6.2-35.6l-6.2,35.6h-4.7l-7.7-44.8h3.2l6.8,40.2l7.2-40.2h2.8l7.2,40.2
		l6.8-40.2H-134.2z"/>
	<path class="st1" d="M-114.8,235.7h-16v-44.8h16v3.2h-12.8v16.3h9.6v3.2h-9.6v18.9h12.8V235.7z"/>
	<path class="st1" d="M-91.3,207.1c0,2.6-1.2,4.4-3.2,4.9c2,0.6,3.2,2.4,3.2,4.9v12.4c0,3.5-2.9,6.4-6.4,6.4h-12.8v-44.8h12.8
		c3.5,0,6.4,2.9,6.4,6.4V207.1z M-94.5,197.3c0-1.8-1.4-3.2-3.2-3.2h-9.6v16.3h9.6c1.8,0,3.2-1.4,3.2-3.2V197.3z M-94.5,216.9
		c0-1.8-1.4-3.2-3.2-3.2h-9.6v18.9h9.6c1.8,0,3.2-1.4,3.2-3.2V216.9z"/>
	<path class="st1" d="M-52.8,235.7h-3.6l-1.5-8h-13.8l-1.6,8h-3.6l9.6-44.8h4.9L-52.8,235.7z M-58.7,224.5l-6.1-29.7l-6.3,29.7
		H-58.7z"/>
	<path class="st1" d="M-30.1,211.4c0,3.5-2.8,6.4-6.4,6.4h-9.6v17.9h-3.2v-44.8h12.8c3.5,0,6.4,2.9,6.4,6.4V211.4z M-33.3,197.3
		c0-1.8-1.4-3.2-3.2-3.2h-9.6v20.5h9.6c1.8,0,3.2-1.4,3.2-3.2V197.3z"/>
	<path class="st1" d="M-6.6,211.4c0,3.5-2.8,6.4-6.4,6.4h-9.6v17.9h-3.2v-44.8H-13c3.5,0,6.4,2.9,6.4,6.4V211.4z M-9.8,197.3
		c0-1.8-1.4-3.2-3.2-3.2h-9.6v20.5h9.6c1.8,0,3.2-1.4,3.2-3.2V197.3z"/>
	<path class="st1" d="M13.6,223.7c0-1.6-0.5-3-1.5-4L0.2,208c-1.6-1.5-2.6-3.7-2.6-6.5v-4.2c0-3.5,2.9-6.4,6.4-6.4h6.4
		c3.5,0,6.4,2.9,6.4,6.4v6.4h-3.2v-6.4c0-1.8-1.4-3.2-3.2-3.2H4c-1.7,0-3.2,1.4-3.2,3.2v4.2c0,1.6,0.5,3,1.5,4l11.8,11.8
		c1.6,1.5,2.6,3.7,2.6,6.5v5.6c0,3.5-2.9,6.4-6.4,6.4H4c-3.5,0-6.4-2.9-6.4-6.4v-6.4h3.2v6.4c0,1.8,1.5,3.2,3.2,3.2h6.4
		c1.8,0,3.2-1.4,3.2-3.2V223.7z"/>
</g>
<g id="XMLID_32_">
	<path id="XMLID_33_" class="st1" d="M-125.4,166.6h7.6c0.1,0.2,0.2,0.6,0.2,1.1c0,0.4-0.1,0.9-0.2,1.1h-5v3h4.6
		c0.1,0.2,0.2,0.6,0.2,1.1s-0.1,0.9-0.2,1.1h-4.6v4.5c-0.2,0.1-0.7,0.2-1.3,0.2s-1-0.1-1.3-0.2
		C-125.4,178.5-125.4,166.6-125.4,166.6z"/>
	<path id="XMLID_35_" class="st1" d="M-112.8,174.1c0,1.8,0.8,2.6,2.4,2.6c1.8,0,2.5-1,2.5-2.7v-7.2c0.3-0.2,0.7-0.2,1.3-0.2
		s1,0.1,1.3,0.2v7.1c0,3.2-1.6,5.2-5.2,5.2c-3.3,0-4.9-1.6-4.9-4.7v-7.6c0.2-0.2,0.7-0.2,1.3-0.2s1,0.1,1.3,0.2V174.1L-112.8,174.1z
		"/>
	<path id="XMLID_37_" class="st1" d="M-97,168.8v9.6c-0.2,0.1-0.7,0.2-1.3,0.2s-1-0.1-1.3-0.2v-9.6h-3.4c-0.1-0.2-0.2-0.7-0.2-1.2
		s0.1-0.9,0.2-1.1h9.4c0.1,0.2,0.2,0.7,0.2,1.1c0,0.4-0.1,0.9-0.2,1.2H-97z"/>
	<path id="XMLID_39_" class="st1" d="M-88.8,174.1c0,1.8,0.8,2.6,2.4,2.6c1.8,0,2.5-1,2.5-2.7v-7.2c0.2-0.1,0.7-0.2,1.2-0.2
		c0.6,0,1,0.1,1.3,0.2v7.1c0,3.2-1.6,5.2-5.2,5.2c-3.3,0-4.9-1.6-4.9-4.7v-7.6c0.4-0.2,0.8-0.3,1.4-0.3c0.6,0,1,0.1,1.3,0.2V174.1
		L-88.8,174.1z"/>
	<path id="XMLID_41_" class="st1" d="M-77.9,166.7c0.9-0.2,2.3-0.3,3.5-0.3c3.4,0,5.4,1.1,5.4,4c0,1.8-0.8,2.9-1.9,3.5l2.8,4.6
		c-0.2,0.2-0.7,0.2-1.4,0.2c-0.8,0-1.2-0.1-1.6-0.2l-2.3-4h-0.3c-0.6,0-1.4,0-1.8-0.1v4.1c-0.2,0.1-0.7,0.2-1.3,0.2s-1-0.1-1.3-0.2
		L-77.9,166.7L-77.9,166.7z M-75.3,168.7v3.5c0.4,0.1,1,0.1,1.5,0.1c1.5,0,2.4-0.5,2.4-1.8c0-1.4-1-1.9-2.6-1.9
		C-74.6,168.6-75,168.6-75.3,168.7z"/>
	<path id="XMLID_44_" class="st1" d="M-57.6,166.6c0.1,0.2,0.2,0.6,0.2,1.1s-0.1,0.9-0.2,1.1H-63v2.7h5.1c0.1,0.2,0.2,0.6,0.2,1.1
		c0,0.4-0.1,0.8-0.2,1.1H-63v2.8h5.6c0.1,0.2,0.2,0.6,0.2,1.1s-0.1,0.9-0.2,1.1h-8.1v-12.1C-65.5,166.6-57.6,166.6-57.6,166.6z"/>
	<path id="XMLID_46_" class="st1" d="M-39.7,172.5c0,4.3-2.3,6.5-5.7,6.5c-3.7,0-5.7-2.1-5.7-6.5c0-3.9,2.4-6.3,5.7-6.3
		S-39.7,168.4-39.7,172.5z M-45.5,176.8c2,0,3.1-1.6,3.1-4.3c0-2.5-1.2-4.1-3.1-4.1c-2,0-3.1,1.5-3.1,4.1
		C-48.6,175.2-47.4,176.8-45.5,176.8z"/>
	<path id="XMLID_49_" class="st1" d="M-36.8,166.6h7.6c0.1,0.2,0.2,0.6,0.2,1.1c0,0.4-0.1,0.9-0.2,1.1h-5v3h4.6
		c0.1,0.2,0.2,0.6,0.2,1.1s-0.1,0.9-0.2,1.1h-4.6v4.5c-0.2,0.1-0.7,0.2-1.3,0.2s-1-0.1-1.3-0.2C-36.9,178.5-36.9,166.6-36.8,166.6z"
		/>
</g>
</svg>
