<?xml version="1.0" encoding="utf-8"?>
<!-- Generator: Adobe Illustrator 19.1.0, SVG Export Plug-In . SVG Version: 6.00 Build 0)  -->
<svg version="1.1" id="Layer_1" xmlns="http://www.w3.org/2000/svg" xmlns:xlink="http://www.w3.org/1999/xlink" x="0px" y="0px"
	 viewBox="-78 365.4 219.5 100.5" style="enable-background:new -78 365.4 219.5 100.5;" xml:space="preserve">
<style type="text/css">
	.st0{enable-background:new    ;}
	.st1{fill:#F7F9F9;}
</style>
<g class="st0">
	<path class="st1" d="M-39.4,390.1l-7.7,44.8h-4.7l-6.2-35.6l-6.2,35.6h-4.7l-7.7-44.8h3.2l6.8,40.2l7.2-40.2h2.8l7.2,40.2l6.8-40.2
		H-39.4z"/>
	<path class="st1" d="M-20,434.9h-16v-44.8h16v3.2h-12.8v16.3h9.6v3.2h-9.6v18.9H-20V434.9z"/>
	<path class="st1" d="M3.5,406.3c0,2.6-1.2,4.4-3.2,4.9c2,0.6,3.2,2.4,3.2,4.9v12.4c0,3.5-2.9,6.4-6.4,6.4h-12.8v-44.8h12.8
		c3.5,0,6.4,2.9,6.4,6.4V406.3z M0.3,396.5c0-1.8-1.4-3.2-3.2-3.2h-9.6v16.3h9.6c1.8,0,3.2-1.4,3.2-3.2V396.5z M0.3,416
		c0-1.8-1.4-3.2-3.2-3.2h-9.6v18.9h9.6c1.8,0,3.2-1.4,3.2-3.2V416z"/>
	<path class="st1" d="M41.9,434.9h-3.6l-1.5-8H23.1l-1.6,8h-3.6l9.6-44.8h4.9L41.9,434.9z M36.1,423.7L30,394l-6.3,29.7H36.1z"/>
	<path class="st1" d="M64.7,410.6c0,3.5-2.8,6.4-6.4,6.4h-9.6v17.9h-3.2v-44.8h12.8c3.5,0,6.4,2.9,6.4,6.4V410.6z M61.5,396.5
		c0-1.8-1.4-3.2-3.2-3.2h-9.6v20.5h9.6c1.8,0,3.2-1.4,3.2-3.2V396.5z"/>
	<path class="st1" d="M88.1,410.6c0,3.5-2.8,6.4-6.4,6.4h-9.6v17.9h-3.2v-44.8h12.8c3.5,0,6.4,2.9,6.4,6.4V410.6z M84.9,396.5
		c0-1.8-1.4-3.2-3.2-3.2h-9.6v20.5h9.6c1.8,0,3.2-1.4,3.2-3.2V396.5z"/>
	<path class="st1" d="M108.4,422.9c0-1.6-0.5-3-1.5-4L95,407.1c-1.6-1.5-2.6-3.7-2.6-6.5v-4.2c0-3.5,2.9-6.4,6.4-6.4h6.4
		c3.5,0,6.4,2.9,6.4,6.4v6.4h-3.2v-6.4c0-1.8-1.4-3.2-3.2-3.2h-6.4c-1.7,0-3.2,1.4-3.2,3.2v4.2c0,1.6,0.5,3,1.5,4l11.8,11.8
		c1.6,1.5,2.6,3.7,2.6,6.5v5.6c0,3.5-2.9,6.4-6.4,6.4h-6.4c-3.5,0-6.4-2.9-6.4-6.4v-6.4h3.2v6.4c0,1.8,1.5,3.2,3.2,3.2h6.4
		c1.8,0,3.2-1.4,3.2-3.2V422.9z"/>
</g>
<g id="XMLID_32_">
	<path id="XMLID_33_" class="st1" d="M-77,365.8h7.6c0.1,0.2,0.2,0.6,0.2,1.1c0,0.4-0.1,0.9-0.2,1.1h-5v3h4.6
		c0.1,0.2,0.2,0.6,0.2,1.1s-0.1,0.9-0.2,1.1h-4.6v4.5c-0.2,0.1-0.7,0.2-1.3,0.2s-1-0.1-1.3-0.2C-77,377.7-77,365.8-77,365.8z"/>
	<path id="XMLID_35_" class="st1" d="M-64.4,373.3c0,1.8,0.8,2.6,2.4,2.6c1.8,0,2.5-1,2.5-2.7V366c0.3-0.2,0.7-0.2,1.3-0.2
		s1,0.1,1.3,0.2v7.1c0,3.2-1.6,5.2-5.2,5.2c-3.3,0-4.9-1.6-4.9-4.7V366c0.2-0.2,0.7-0.2,1.3-0.2s1,0.1,1.3,0.2V373.3L-64.4,373.3z"
		/>
	<path id="XMLID_37_" class="st1" d="M-48.6,368v9.6c-0.2,0.1-0.7,0.2-1.3,0.2s-1-0.1-1.3-0.2V368h-3.4c-0.1-0.2-0.2-0.7-0.2-1.2
		s0.1-0.9,0.2-1.1h9.4c0.1,0.2,0.2,0.7,0.2,1.1c0,0.4-0.1,0.9-0.2,1.2H-48.6z"/>
	<path id="XMLID_39_" class="st1" d="M-40.3,373.3c0,1.8,0.8,2.6,2.4,2.6c1.8,0,2.5-1,2.5-2.7V366c0.2-0.1,0.7-0.2,1.2-0.2
		c0.6,0,1,0.1,1.3,0.2v7.1c0,3.2-1.6,5.2-5.2,5.2c-3.3,0-4.9-1.6-4.9-4.7V366c0.4-0.2,0.8-0.3,1.4-0.3c0.6,0,1,0.1,1.3,0.2V373.3
		L-40.3,373.3z"/>
	<path id="XMLID_41_" class="st1" d="M-29.5,365.9c0.9-0.2,2.3-0.3,3.5-0.3c3.4,0,5.4,1.1,5.4,4c0,1.8-0.8,2.9-1.9,3.5l2.8,4.6
		c-0.2,0.2-0.7,0.2-1.4,0.2c-0.8,0-1.2-0.1-1.6-0.2l-2.3-4h-0.3c-0.6,0-1.4,0-1.8-0.1v4.1c-0.2,0.1-0.7,0.2-1.3,0.2s-1-0.1-1.3-0.2
		L-29.5,365.9L-29.5,365.9z M-26.9,367.9v3.5c0.4,0.1,1,0.1,1.5,0.1c1.5,0,2.4-0.5,2.4-1.8c0-1.4-1-1.9-2.6-1.9
		C-26.2,367.8-26.6,367.8-26.9,367.9z"/>
	<path id="XMLID_44_" class="st1" d="M-9.2,365.8c0.1,0.2,0.2,0.6,0.2,1.1s-0.1,0.9-0.2,1.1h-5.4v2.7h5.1c0.1,0.2,0.2,0.6,0.2,1.1
		c0,0.4-0.1,0.8-0.2,1.1h-5.1v2.8H-9c0.1,0.2,0.2,0.6,0.2,1.1s-0.1,0.9-0.2,1.1h-8.1v-12.1C-17.1,365.8-9.2,365.8-9.2,365.8z"/>
	<path id="XMLID_46_" class="st1" d="M8.7,371.7c0,4.3-2.3,6.5-5.7,6.5c-3.7,0-5.7-2.1-5.7-6.5c0-3.9,2.4-6.3,5.7-6.3
		S8.7,367.6,8.7,371.7z M2.9,376c2,0,3.1-1.6,3.1-4.3c0-2.5-1.2-4.1-3.1-4.1c-2,0-3.1,1.5-3.1,4.1C-0.2,374.4,1,376,2.9,376z"/>
	<path id="XMLID_49_" class="st1" d="M11.6,365.8h7.6c0.1,0.2,0.2,0.6,0.2,1.1c0,0.4-0.1,0.9-0.2,1.1h-5v3h4.6
		c0.1,0.2,0.2,0.6,0.2,1.1s-0.1,0.9-0.2,1.1h-4.6v4.5c-0.2,0.1-0.7,0.2-1.3,0.2s-1-0.1-1.3-0.2C11.6,377.7,11.6,365.8,11.6,365.8z"
		/>
</g>
</svg>
