<?xml version="1.0" encoding="utf-8"?>
<!-- Generator: Adobe Illustrator 19.1.0, SVG Export Plug-In . SVG Version: 6.00 Build 0)  -->
<svg version="1.1" id="Layer_1" xmlns="http://www.w3.org/2000/svg" xmlns:xlink="http://www.w3.org/1999/xlink" x="0px" y="0px"
	 viewBox="0 0 219.5 87.3" style="enable-background:new 0 0 219.5 87.3;" xml:space="preserve">
<style type="text/css">
	.st0{fill:#F7F9F9;}
</style>
<g id="XMLID_32_">
	<path id="XMLID_33_" class="st0" d="M61.6,0.4h7.6c0.1,0.2,0.2,0.6,0.2,1.1c0,0.4-0.1,0.9-0.2,1.1h-5v3h4.6
		c0.1,0.2,0.2,0.6,0.2,1.1s-0.1,0.9-0.2,1.1h-4.6v4.5c-0.2,0.1-0.7,0.2-1.3,0.2c-0.6,0-1-0.1-1.3-0.2V0.4z"/>
	<path id="XMLID_35_" class="st0" d="M74.2,7.9c0,1.8,0.8,2.6,2.4,2.6c1.8,0,2.5-1,2.5-2.7V0.6c0.3-0.2,0.7-0.2,1.3-0.2
		c0.6,0,1,0.1,1.3,0.2v7.1c0,3.2-1.6,5.2-5.2,5.2c-3.3,0-4.9-1.6-4.9-4.7V0.6c0.2-0.2,0.7-0.2,1.3-0.2c0.6,0,1,0.1,1.3,0.2V7.9z"/>
	<path id="XMLID_37_" class="st0" d="M90,2.6v9.6c-0.2,0.1-0.7,0.2-1.3,0.2c-0.6,0-1-0.1-1.3-0.2V2.6H84c-0.1-0.2-0.2-0.7-0.2-1.2
		s0.1-0.9,0.2-1.1h9.4c0.1,0.2,0.2,0.7,0.2,1.1s-0.1,0.9-0.2,1.2H90z"/>
	<path id="XMLID_39_" class="st0" d="M98.3,7.9c0,1.8,0.8,2.6,2.4,2.6c1.8,0,2.5-1,2.5-2.7V0.6c0.2-0.1,0.7-0.2,1.2-0.2
		c0.6,0,1,0.1,1.3,0.2v7.1c0,3.2-1.6,5.2-5.2,5.2c-3.3,0-4.9-1.6-4.9-4.7V0.6C96,0.4,96.4,0.3,97,0.3c0.6,0,1,0.1,1.3,0.2L98.3,7.9
		L98.3,7.9z"/>
	<path id="XMLID_41_" class="st0" d="M109.1,0.5c0.9-0.2,2.3-0.3,3.5-0.3c3.4,0,5.4,1.1,5.4,4c0,1.8-0.8,2.9-1.9,3.5l2.8,4.6
		c-0.2,0.2-0.7,0.2-1.4,0.2c-0.8,0-1.2-0.1-1.6-0.2l-2.3-4h-0.3c-0.6,0-1.4,0-1.8-0.1v4.1c-0.2,0.1-0.7,0.2-1.3,0.2s-1-0.1-1.3-0.2
		L109.1,0.5L109.1,0.5z M111.7,2.5V6c0.4,0.1,1,0.1,1.5,0.1c1.5,0,2.4-0.5,2.4-1.8c0-1.4-1-1.9-2.6-1.9C112.4,2.4,112,2.4,111.7,2.5
		z"/>
	<path id="XMLID_44_" class="st0" d="M129.4,0.4c0.1,0.2,0.2,0.6,0.2,1.1s-0.1,0.9-0.2,1.1h-5.4v2.7h5.1c0.1,0.2,0.2,0.6,0.2,1.1
		c0,0.4-0.1,0.8-0.2,1.1h-5.1v2.8h5.6c0.1,0.2,0.2,0.6,0.2,1.1c0,0.5-0.1,0.9-0.2,1.1h-8.1V0.4H129.4z"/>
	<path id="XMLID_46_" class="st0" d="M147.3,6.3c0,4.3-2.3,6.5-5.7,6.5c-3.7,0-5.7-2.1-5.7-6.5c0-3.9,2.4-6.3,5.7-6.3
		C144.9,0,147.3,2.2,147.3,6.3z M141.5,10.6c2,0,3.1-1.6,3.1-4.3c0-2.5-1.2-4.1-3.1-4.1c-2,0-3.1,1.5-3.1,4.1
		C138.4,9,139.6,10.6,141.5,10.6z"/>
	<path id="XMLID_49_" class="st0" d="M150.2,0.4h7.6c0.1,0.2,0.2,0.6,0.2,1.1c0,0.4-0.1,0.9-0.2,1.1h-5v3h4.6
		c0.1,0.2,0.2,0.6,0.2,1.1s-0.1,0.9-0.2,1.1h-4.6v4.5c-0.2,0.1-0.7,0.2-1.3,0.2c-0.6,0-1-0.1-1.3-0.2V0.4z"/>
</g>
<g id="XMLID_1_">
	<path id="XMLID_2_" class="st0" d="M4.1,64.6c-0.5,0.7-1.1,1-1.9,0.3c-2.2-2-2.7-4.4-1.7-8.7C2.8,46.5,7.9,32,11,26
		c0.5-1,1.1-1,1.6-0.3c1.1,1.8,1.2,4.1-0.6,9c-2.1,5.7-5.2,13.9-7.9,22.9C10,48,19.7,34.7,26.2,26.9c0.5-0.5,1.1-0.7,1.6,0
		c1.3,1.8,1.6,3.4,0,8.2c-2.1,5.9-4.7,13.7-7.1,22.9c6.4-10.4,18.6-26.7,24.2-32.6c0.8-0.8,1.4-0.6,1.5,0.3c0.4,2.2-0.5,4.9-3.7,9.2
		c-4.6,6.1-14,17.7-21.6,29.5c-0.5,0.8-1.1,1.1-1.9,0.3c-2.1-2-2.9-4.2-2-8.7c1-4.7,3.2-11.7,5.3-17.6C16.8,45.7,9.5,56,4.1,64.6z"
		/>
	<path id="XMLID_6_" class="st0" d="M43.1,63.1c5.3,0.3,9.8-4.8,12.6-9c0.3-0.5,0.8-0.5,1.1,0c0.3,0.5,0,2.3-1.1,3.9
		c-2.7,3.9-7.5,6.8-12.4,6.9c-8,0.1-10.8-7.8-6.7-15.9c4.1-8.2,10.6-11.4,13.7-9.6c1.6,1,2.7,1.9,3.7,3.3c1.1,1.5,0.6,5.4-2,8.6
		c-3.1,3.8-7.4,5.4-11.8,1.8C38.3,58.9,39.8,62.9,43.1,63.1z M48.4,48.5c2-2.7,3.4-5.9,2.5-6.6c-1.3-1.1-6.6,2.7-9.6,8.7
		c-0.2,0.4-0.4,0.8-0.5,1.1C44,53.7,46.5,50.9,48.4,48.5z"/>
	<path id="XMLID_9_" class="st0" d="M63.6,64.6c-3.4,0-5.5-1.7-6.6-4.5c-0.6,1.3-1.3,2.9-1.8,4.2c-0.3,0.6-0.6,0.7-1,0.2
		c-1-1.3-1.6-3.1-0.3-6.9c1.7-5.3,14.1-28.7,18.5-34.7c0.6-0.8,1.1-0.8,1.6,0c1,1.8,1,4.6-1.6,9.3c-1,1.8-3.7,6.1-5.6,9.6
		c1.8-1.6,3.8-2.7,5.4-2.7c5.4,0,5.6,7.4,2.1,15.2C71.1,61,67.2,64.6,63.6,64.6z M66.4,44.3c-2.9,3-5.9,8.2-8.2,13.1
		c0.1,1.8,1,3.9,2.7,4.2c2.2,0.5,5.1-1.4,8.8-8.7c3.6-7.2,2.9-11,1.4-11.1C69.7,41.6,68.3,42.3,66.4,44.3z"/>
	<path id="XMLID_12_" class="st0" d="M95.7,29.6c-0.3-0.7-0.2-1.1,0.6-1.2c4.4-0.6,7.5-3.1,11.7-3.7c4-0.6,7.2,1.5,9.6,5.6
		c5.8,10.1-5.4,28.6-22.4,34.2c-1.8,0.6-3,0.5-4-0.5c-0.8-0.6-1.8-1.5-2.7-2.7c-1.2-1.6-1.5-2.6-0.2-6.7c2-5.9,7.2-15.8,11.6-22.3
		C97.4,32.1,96.1,30.5,95.7,29.6z M101.6,38.2c-3.2,5.6-8.3,14-10.1,19.9c-0.8,2.7-0.4,3.5,1.5,2.9c17.3-6.6,25.2-24.7,21.5-30.6
		c-2.2-3.5-6.9-0.2-11.3,1.3C103.5,33.2,103.2,35.4,101.6,38.2z"/>
	<path id="XMLID_15_" class="st0" d="M124.8,63.1c5.3,0.3,9.8-4.8,12.6-9c0.3-0.5,0.8-0.5,1.1,0c0.3,0.5,0,2.3-1.1,3.9
		c-2.7,3.9-7.5,6.8-12.4,6.9c-8,0.1-10.8-7.8-6.7-15.9c4.1-8.2,10.6-11.4,13.7-9.6c1.6,1,2.7,1.9,3.7,3.3c1.1,1.5,0.6,5.4-2,8.6
		c-3.1,3.8-7.4,5.4-11.8,1.8C119.9,58.9,121.4,62.9,124.8,63.1z M130,48.5c2-2.7,3.4-5.9,2.5-6.6c-1.3-1.1-6.6,2.7-9.6,8.7
		c-0.2,0.4-0.4,0.8-0.5,1.1C125.6,53.7,128.2,50.9,130,48.5z"/>
	<path id="XMLID_20_" class="st0" d="M145.8,42.6c0.3-2.5,1-3.7,2.3-4.9c1.4-1.3,2.9-1.5,3.4-1c0.6,0.6,0.3,1.3-0.5,2.8
		c-0.3,0.4-0.5,0.8-0.7,1.2c-0.5,5.8,0.8,10.8,0.6,15.1c-0.1,2.5-0.6,5.1-2.9,6.6c4.2-1.6,6.9-5.4,8.5-8.8c0.3-0.7,1-0.5,1.2,0
		c0.3,0.6,0.2,2.2-0.9,4.2c-2.4,4.4-6.7,6.8-11.2,6.9c-3.7,0.1-7.2-0.8-9.3-4.8c-1.5-2.9-1.3-7,0.8-8.8c0.8-0.6,1.3-0.4,1.3,0.6
		c0,0.5,0,1,0.1,1.5C141.1,50,144,45.9,145.8,42.6z M139.1,56.9c1,3.7,2.8,6.3,4.9,5.6c2.9-0.9,2-10.8,1.7-15.9
		C143.8,50,141.5,53.5,139.1,56.9z"/>
	<path id="XMLID_23_" class="st0" d="M155.3,55.6c1.6-4.6,5.8-12.1,8.1-15.4c0.6-0.8,1-1,1.5-0.4c1,1,1.5,3.7,0,6.9
		c-1.3,2.8-4,7.1-5.3,10.3c-1.5,3.7-1.4,6.1,0.6,6c2.9-0.1,6.3-4.3,8.2-8.7c0.3-0.6,0.8-0.5,1,0c0.5,1,0.3,2.4-0.5,3.9
		c-1.9,3.9-5.9,6.6-9.4,6.6C154.7,64.9,153.5,60.8,155.3,55.6z M169.4,39.1c-0.8,0.9-2.6,0.7-3.5-1c-1-1.7-0.7-3.6,0.3-4.7
		c1-1.1,2.9-0.3,3.7,1.4C170.6,36.5,170.2,38.2,169.4,39.1z"/>
	<path id="XMLID_26_" class="st0" d="M181.8,66.5c-3.5,8.5-8,18.5-13.1,20.6c-1.3,0.5-2.5,0.3-3.7-1.3c-1.3-1.9-2.5-4.1-1.3-7.8
		c1.8-5.7,7.3-9.6,13.5-11.9c0.6-1.4,1.2-2.9,1.8-4.4c-1.8,1.8-4,3.2-6.4,3.2c-5.8,0-6.9-7.9-1.8-15.5c4.9-7.4,10.1-10.2,13.3-10.2
		c2.5,0,3.8,2,3.7,4.2c0.8-1.3,1.5-2.4,2.1-3.5c0.5-0.9,1.1-1,1.6-0.4c1,1.1,1.5,3.9-0.1,6.9c-1.9,3.8-5.9,11.4-8.5,17.6
		c5.3-2.7,8.8-6.1,11.3-9.5c0.4-0.5,1-0.5,1.1,0.1c0.1,0.6-0.2,2-1.3,3.7C191.6,62.1,187.1,64.6,181.8,66.5z M166.3,83.5
		c0.8,1.2,5.8-5.4,9.9-15C168,73.3,165.3,82,166.3,83.5z M185.2,42.3c-2-0.1-6.6,3.9-10.1,9.4c-3.4,5.4-4.1,11-1.6,11.1
		c2.5,0,5.7-3.9,8.9-9.5C186.5,46.3,187,42.4,185.2,42.3z"/>
	<path id="XMLID_30_" class="st0" d="M212.6,39.1c2.1,0.3,4,3.4,2.5,6.7c-1.3,2.8-4.4,7.4-5.9,10.8c-1.6,3.7-1.3,6.6,1,6.5
		c2.6-0.1,5.7-4.3,8.1-8.7c0.3-0.6,0.8-0.6,1.1,0c0.5,0.7,0.3,2.1-0.6,4c-1.7,3.5-5.7,6.8-9.3,6.8c-5.4,0-6.6-3.9-4.8-9.4
		c2.1-6.2,7.7-12.9,6.5-13.4c-0.6-0.3-4.3,1.5-8.3,5.9c-3.7,4-6.5,10.1-9.3,16.1c-0.3,0.6-0.6,0.8-1.2,0.3c-1.3-1.3-1.6-3.4-0.6-6.5
		c1.3-4,6.1-12.8,10.1-18.6c0.5-0.7,1-0.6,1.3,0c1,1.6,0.9,3.7,0.2,6C206.2,42.3,210.5,38.8,212.6,39.1z"/>
</g>
</svg>
