<?xml version="1.0" encoding="utf-8"?>
<!-- Generator: Adobe Illustrator 19.1.0, SVG Export Plug-In . SVG Version: 6.00 Build 0)  -->
<svg version="1.1" id="Layer_1" xmlns="http://www.w3.org/2000/svg" xmlns:xlink="http://www.w3.org/1999/xlink" x="0px" y="0px"
	 viewBox="0 0 219.5 85.1" style="enable-background:new 0 0 219.5 85.1;" xml:space="preserve">
<style type="text/css">
	.st0{fill:#F7F9F9;}
</style>
<g id="XMLID_32_">
	<path id="XMLID_33_" class="st0" d="M10.7,0.3h6.2C17,0.5,17,0.8,17,1.2c0,0.4-0.1,0.7-0.1,0.9h-4.1v2.5h3.8
		c0.1,0.2,0.1,0.5,0.1,0.9c0,0.4-0.1,0.7-0.1,0.9h-3.8V10c-0.2,0.1-0.6,0.2-1,0.2c-0.5,0-0.8-0.1-1-0.2V0.3z"/>
	<path id="XMLID_35_" class="st0" d="M21,6.4c0,1.5,0.6,2.1,2,2.1c1.5,0,2.1-0.8,2.1-2.2V0.5c0.2-0.1,0.6-0.2,1-0.2
		c0.5,0,0.8,0.1,1,0.2v5.8c0,2.6-1.3,4.2-4.2,4.2c-2.7,0-4-1.3-4-3.9V0.5c0.2-0.1,0.6-0.2,1-0.2s0.8,0.1,1,0.2V6.4z"/>
	<path id="XMLID_37_" class="st0" d="M33.9,2.1V10c-0.2,0.1-0.6,0.2-1,0.2c-0.5,0-0.8-0.1-1-0.2V2.1H29c-0.1-0.2-0.2-0.6-0.2-0.9
		s0.1-0.7,0.2-0.9h7.7c0.1,0.2,0.2,0.6,0.2,0.9s-0.1,0.7-0.2,0.9H33.9z"/>
	<path id="XMLID_39_" class="st0" d="M40.7,6.4c0,1.5,0.6,2.1,2,2.1c1.5,0,2.1-0.8,2.1-2.2V0.5c0.2-0.1,0.6-0.2,1-0.2
		c0.5,0,0.8,0.1,1,0.2v5.8c0,2.6-1.3,4.2-4.2,4.2c-2.7,0-4-1.3-4-3.9V0.5c0.2-0.1,0.6-0.2,1-0.2s0.8,0.1,1,0.2L40.7,6.4L40.7,6.4z"
		/>
	<path id="XMLID_41_" class="st0" d="M49.5,0.4c0.7-0.2,1.9-0.3,2.9-0.3c2.8,0,4.4,0.9,4.4,3.2c0,1.4-0.6,2.4-1.6,2.9l2.3,3.7
		c-0.2,0.1-0.6,0.2-1.1,0.2c-0.6,0-1-0.1-1.3-0.2l-1.9-3.2H53c-0.5,0-1.1,0-1.4-0.1V10c-0.2,0.1-0.6,0.2-1,0.2s-0.8-0.1-1-0.2
		L49.5,0.4L49.5,0.4z M51.6,2v2.9C51.9,5,52.4,5,52.8,5c1.2,0,1.9-0.4,1.9-1.5c0-1.1-0.8-1.6-2.1-1.6C52.2,1.9,51.9,2,51.6,2z"/>
	<path id="XMLID_44_" class="st0" d="M66,0.3c0.1,0.2,0.1,0.5,0.1,0.9S66.1,1.9,66,2.1h-4.5v2.2h4.1c0.1,0.2,0.1,0.5,0.1,0.9
		c0,0.4-0.1,0.7-0.1,0.9h-4.1v2.3h4.6c0.1,0.2,0.1,0.5,0.1,0.9c0,0.4-0.1,0.7-0.1,0.9h-6.6V0.3H66z"/>
	<path id="XMLID_46_" class="st0" d="M80.7,5.1c0,3.5-1.9,5.3-4.7,5.3c-3,0-4.7-1.8-4.7-5.3C71.3,1.9,73.2,0,76,0
		C78.8,0,80.7,1.8,80.7,5.1z M76,8.6c1.7,0,2.5-1.3,2.5-3.5c0-2.1-1-3.3-2.5-3.3c-1.7,0-2.5,1.2-2.5,3.3C73.4,7.4,74.4,8.6,76,8.6z"
		/>
	<path id="XMLID_49_" class="st0" d="M83.1,0.3h6.2c0.1,0.2,0.1,0.5,0.1,0.9c0,0.4-0.1,0.7-0.1,0.9h-4.1v2.5h3.8
		C89,4.8,89,5.1,89,5.5c0,0.4-0.1,0.7-0.1,0.9h-3.8V10c-0.2,0.1-0.6,0.2-1,0.2s-0.8-0.1-1-0.2V0.3z"/>
</g>
<g id="XMLID_1_">
	<path id="XMLID_2_" class="st0" d="M4.1,62.4c-0.5,0.7-1.1,1-1.9,0.3c-2.2-2-2.7-4.4-1.7-8.7C2.8,44.3,7.9,29.8,11,23.9
		c0.5-1,1.1-1,1.6-0.3c1.1,1.8,1.2,4.1-0.6,9c-2.1,5.7-5.2,13.9-7.9,22.9c5.9-9.6,15.6-22.9,22.1-30.8c0.5-0.5,1.1-0.7,1.6,0
		c1.3,1.8,1.6,3.4,0,8.2c-2.1,5.9-4.7,13.7-7.1,22.9c6.4-10.4,18.6-26.7,24.2-32.6c0.8-0.8,1.4-0.6,1.5,0.3c0.4,2.2-0.5,4.9-3.7,9.2
		c-4.6,6.1-14,17.7-21.6,29.5c-0.5,0.8-1.1,1.1-1.9,0.3c-2.1-2-2.9-4.2-2-8.7c1-4.7,3.2-11.7,5.3-17.6C16.8,43.5,9.5,53.8,4.1,62.4z
		"/>
	<path id="XMLID_6_" class="st0" d="M43.1,60.9c5.3,0.3,9.8-4.8,12.6-9c0.3-0.5,0.8-0.5,1.1,0c0.3,0.5,0,2.3-1.1,3.9
		c-2.7,3.9-7.5,6.8-12.4,6.9c-8,0.1-10.8-7.8-6.7-15.9c4.1-8.2,10.6-11.4,13.7-9.6c1.6,1,2.7,1.9,3.7,3.3c1.1,1.5,0.6,5.4-2,8.6
		c-3.1,3.8-7.4,5.4-11.8,1.8C38.3,56.7,39.8,60.7,43.1,60.9z M48.4,46.4c2-2.7,3.4-5.9,2.5-6.6c-1.3-1.1-6.6,2.7-9.6,8.7
		c-0.2,0.4-0.4,0.8-0.5,1.1C44,51.5,46.5,48.8,48.4,46.4z"/>
	<path id="XMLID_9_" class="st0" d="M63.6,62.4c-3.4,0-5.5-1.7-6.6-4.5c-0.6,1.3-1.3,2.9-1.8,4.2c-0.3,0.6-0.6,0.7-1,0.2
		c-1-1.3-1.6-3.1-0.3-6.9c1.7-5.3,14.1-28.7,18.5-34.7c0.6-0.8,1.1-0.8,1.6,0c1,1.8,1,4.6-1.6,9.3c-1,1.8-3.7,6.1-5.6,9.6
		C68.4,38,70.4,37,72,37c5.4,0,5.6,7.4,2.1,15.2C71.1,58.8,67.2,62.4,63.6,62.4z M66.4,42.1c-2.9,3-5.9,8.2-8.2,13.1
		c0.1,1.8,1,3.9,2.7,4.2c2.2,0.5,5.1-1.4,8.8-8.7c3.6-7.2,2.9-11,1.4-11.1C69.7,39.5,68.3,40.2,66.4,42.1z"/>
	<path id="XMLID_12_" class="st0" d="M95.7,27.4c-0.3-0.7-0.2-1.1,0.6-1.2c4.4-0.6,7.5-3.1,11.7-3.7c4-0.6,7.2,1.5,9.6,5.6
		c5.8,10.1-5.4,28.6-22.4,34.2c-1.8,0.6-3,0.5-4-0.5c-0.8-0.6-1.8-1.5-2.7-2.7c-1.2-1.6-1.5-2.6-0.2-6.7c2-5.9,7.2-15.8,11.6-22.3
		C97.4,29.9,96.1,28.4,95.7,27.4z M101.6,36.1c-3.2,5.6-8.3,14-10.1,19.9c-0.8,2.7-0.4,3.5,1.5,2.9c17.3-6.6,25.2-24.7,21.5-30.6
		c-2.2-3.5-6.9-0.2-11.3,1.3C103.5,31,103.2,33.3,101.6,36.1z"/>
	<path id="XMLID_15_" class="st0" d="M124.8,60.9c5.3,0.3,9.8-4.8,12.6-9c0.3-0.5,0.8-0.5,1.1,0c0.3,0.5,0,2.3-1.1,3.9
		c-2.7,3.9-7.5,6.8-12.4,6.9c-8,0.1-10.8-7.8-6.7-15.9c4.1-8.2,10.6-11.4,13.7-9.6c1.6,1,2.7,1.9,3.7,3.3c1.1,1.5,0.6,5.4-2,8.6
		c-3.1,3.8-7.4,5.4-11.8,1.8C119.9,56.7,121.4,60.7,124.8,60.9z M130,46.4c2-2.7,3.4-5.9,2.5-6.6c-1.3-1.1-6.6,2.7-9.6,8.7
		c-0.2,0.4-0.4,0.8-0.5,1.1C125.6,51.5,128.2,48.8,130,46.4z"/>
	<path id="XMLID_20_" class="st0" d="M145.8,40.5c0.3-2.5,1-3.7,2.3-4.9c1.4-1.3,2.9-1.5,3.4-1c0.6,0.6,0.3,1.3-0.5,2.8
		c-0.3,0.4-0.5,0.8-0.7,1.2c-0.5,5.8,0.8,10.8,0.6,15.1c-0.1,2.5-0.6,5.1-2.9,6.6c4.2-1.6,6.9-5.4,8.5-8.8c0.3-0.7,1-0.5,1.2,0
		c0.3,0.6,0.2,2.2-0.9,4.2c-2.4,4.4-6.7,6.8-11.2,6.9c-3.7,0.1-7.2-0.8-9.3-4.8c-1.5-2.9-1.3-7,0.8-8.8c0.8-0.6,1.3-0.4,1.3,0.6
		c0,0.5,0,1,0.1,1.5C141.1,47.8,144,43.7,145.8,40.5z M139.1,54.8c1,3.7,2.8,6.3,4.9,5.6c2.9-0.9,2-10.8,1.7-15.9
		C143.8,47.9,141.5,51.4,139.1,54.8z"/>
	<path id="XMLID_23_" class="st0" d="M155.3,53.4c1.6-4.6,5.8-12.1,8.1-15.4c0.6-0.8,1-1,1.5-0.4c1,1,1.5,3.7,0,6.9
		c-1.3,2.8-4,7.1-5.3,10.3c-1.5,3.7-1.4,6.1,0.6,6c2.9-0.1,6.3-4.3,8.2-8.7c0.3-0.6,0.8-0.5,1,0c0.5,1,0.3,2.4-0.5,3.9
		c-1.9,3.9-5.9,6.6-9.4,6.6C154.7,62.7,153.5,58.6,155.3,53.4z M169.4,36.9c-0.8,0.9-2.6,0.7-3.5-1c-1-1.7-0.7-3.6,0.3-4.7
		c1-1.1,2.9-0.3,3.7,1.4C170.6,34.3,170.2,36.1,169.4,36.9z"/>
	<path id="XMLID_26_" class="st0" d="M181.8,64.3c-3.5,8.5-8,18.5-13.1,20.6c-1.3,0.5-2.5,0.3-3.7-1.3c-1.3-1.9-2.5-4.1-1.3-7.8
		c1.8-5.7,7.3-9.6,13.5-11.9c0.6-1.4,1.2-2.9,1.8-4.4c-1.8,1.8-4,3.2-6.4,3.2c-5.8,0-6.9-7.9-1.8-15.5c4.9-7.4,10.1-10.2,13.3-10.2
		c2.5,0,3.8,2,3.7,4.2c0.8-1.3,1.5-2.4,2.1-3.5c0.5-0.9,1.1-1,1.6-0.4c1,1.1,1.5,3.9-0.1,6.9c-1.9,3.8-5.9,11.4-8.5,17.6
		c5.3-2.7,8.8-6.1,11.3-9.5c0.4-0.5,1-0.5,1.1,0.1c0.1,0.6-0.2,2-1.3,3.7C191.6,59.9,187.1,62.4,181.8,64.3z M166.3,81.4
		c0.8,1.2,5.8-5.4,9.9-15C168,71.1,165.3,79.8,166.3,81.4z M185.2,40.1c-2-0.1-6.6,3.9-10.1,9.4c-3.4,5.4-4.1,11-1.6,11.1
		c2.5,0,5.7-3.9,8.9-9.5C186.5,44.1,187,40.2,185.2,40.1z"/>
	<path id="XMLID_30_" class="st0" d="M212.6,36.9c2.1,0.3,4,3.4,2.5,6.7c-1.3,2.8-4.4,7.4-5.9,10.8c-1.6,3.7-1.3,6.6,1,6.5
		c2.6-0.1,5.7-4.3,8.1-8.7c0.3-0.6,0.8-0.6,1.1,0c0.5,0.7,0.3,2.1-0.6,4c-1.7,3.5-5.7,6.8-9.3,6.8c-5.4,0-6.6-3.9-4.8-9.4
		c2.1-6.2,7.7-12.9,6.5-13.4c-0.6-0.3-4.3,1.5-8.3,5.9c-3.7,4-6.5,10.1-9.3,16.1c-0.3,0.6-0.6,0.8-1.2,0.3c-1.3-1.3-1.6-3.4-0.6-6.5
		c1.3-4,6.1-12.8,10.1-18.6c0.5-0.7,1-0.6,1.3,0c1,1.6,0.9,3.7,0.2,6C206.2,40.1,210.5,36.6,212.6,36.9z"/>
</g>
</svg>
