<?xml version="1.0" encoding="utf-8"?>
<!-- Generator: Adobe Illustrator 19.1.0, SVG Export Plug-In . SVG Version: 6.00 Build 0)  -->
<svg version="1.1" id="Layer_1" xmlns="http://www.w3.org/2000/svg" xmlns:xlink="http://www.w3.org/1999/xlink" x="0px" y="0px"
	 viewBox="-39 96.7 219.5 96.5" style="enable-background:new -39 96.7 219.5 96.5;" xml:space="preserve">
<style type="text/css">
	.st0{fill:#F7F9F9;}
	.st1{fill:#F7F9F9;stroke:#292929;stroke-width:10;}
</style>
<g>
	<g>
		<path class="st0" d="M154.3,186.9v-5.3h6.3c1,0,1.7,0.3,2.2,0.8c0.5,0.5,0.7,1.2,0.7,1.9c0,0.8-0.3,1.5-0.8,2
			c-0.5,0.4-1.2,0.7-2.1,0.7H154.3L154.3,186.9z M154.3,177.3v-5h6.1c0.8,0,1.5,0.3,2,0.7c0.4,0.4,0.7,1.1,0.7,1.8
			c0,0.7-0.3,1.3-0.7,1.8s-1.2,0.7-2,0.7H154.3z M161.9,191.1c1.1,0,2-0.2,2.9-0.4c0.8-0.4,1.5-0.8,2-1.3c0.5-0.5,1-1.2,1.2-2
			c0.3-0.7,0.4-1.5,0.4-2.4c0-0.7-0.1-1.4-0.4-2s-0.5-1.2-1-1.7c-0.4-0.5-0.9-0.9-1.4-1.2s-1.1-0.5-1.7-0.6c0.5-0.1,1.1-0.4,1.5-0.6
			c0.4-0.3,0.9-0.6,1.2-1.1s0.6-1,0.9-1.6c0.2-0.6,0.3-1.2,0.3-2c0-0.7-0.2-1.5-0.4-2.2c-0.3-0.7-0.7-1.3-1.2-1.9
			c-0.5-0.5-1.2-1-2-1.2c-0.8-0.4-1.8-0.4-2.9-0.4h-11.9v22.9L161.9,191.1L161.9,191.1z M145,191.1v-4.3h-11.3v-5.2h11v-4.3h-11
			v-4.8H145v-4.3h-16.2v22.9L145,191.1L145,191.1z M118.9,191.1l6.5-22.9h-5.5l-4,16.6l-4.4-16.6h-3.8l-4.4,16.6l-4-16.6h-5.4
			l6.6,22.9h5.2l4-15.8l4,15.8H118.9L118.9,191.1z"/>
		<path class="st0" d="M168,158.7V127h-6.8v20l-14.7-20h-6.9v31.7h6.8V138l15.1,20.7L168,158.7L168,158.7z M114.3,152.5
			c-1.2-0.5-2.2-1.2-3-2.2c-0.8-0.9-1.4-2-2-3.3c-0.4-1.2-0.7-2.7-0.7-4.1c0-1.5,0.3-2.9,0.7-4.1c0.4-1.2,1.1-2.4,2-3.3
			c0.8-0.9,1.9-1.7,3-2.2c1.2-0.5,2.5-0.8,4-0.8c1.4,0,2.8,0.3,4,0.8c1.2,0.5,2.2,1.2,3,2.2c0.8,0.9,1.5,2,2,3.3
			c0.4,1.2,0.7,2.7,0.7,4.1c0,1.5-0.3,2.9-0.7,4.1c-0.4,1.2-1.1,2.4-2,3.3c-0.8,0.9-1.9,1.6-3,2.2c-1.2,0.5-2.5,0.8-4,0.8
			C116.8,153.3,115.5,153,114.3,152.5 M124.9,158.1c2-0.8,3.7-2,5.3-3.4s2.6-3.2,3.5-5.2c0.8-2,1.2-4.2,1.2-6.6
			c0-2.4-0.4-4.5-1.2-6.6c-0.8-2-2-3.7-3.5-5.2s-3.2-2.6-5.3-3.4c-2-0.8-4.3-1.2-6.7-1.2s-4.5,0.4-6.6,1.2c-2,0.8-3.7,2-5.3,3.4
			c-1.5,1.4-2.6,3.2-3.5,5.2c-0.8,2-1.2,4.2-1.2,6.6c0,2.4,0.4,4.5,1.2,6.6c0.8,2,2,3.7,3.5,5.2c1.5,1.4,3.2,2.6,5.3,3.4
			c2,0.8,4.2,1.2,6.6,1.2C120.6,159.3,122.9,158.9,124.9,158.1 M74.9,152.8V133h5.8c1.6,0,3,0.3,4.3,0.8c1.2,0.5,2.3,1.2,3.1,2
			c0.8,0.9,1.4,2,1.9,3.1c0.4,1.2,0.6,2.5,0.6,3.9c0,1.3-0.2,2.6-0.6,3.8c-0.4,1.2-1.1,2.2-2,3.1s-1.9,1.6-3.1,2.1
			c-1.2,0.5-2.7,0.8-4.2,0.8L74.9,152.8L74.9,152.8z M80.6,158.7c2.5,0,4.7-0.4,6.9-1.2c2-0.8,3.8-1.9,5.3-3.2s2.6-3,3.5-5
			c0.8-2,1.2-4.1,1.2-6.5c0-2.4-0.4-4.5-1.2-6.5c-0.8-2-2-3.7-3.5-5c-1.5-1.3-3.3-2.4-5.3-3.2c-2-0.8-4.4-1.2-6.9-1.2H68.2v31.7
			L80.6,158.7L80.6,158.7z M61.4,158.7V127h-6.8v20l-14.7-20h-7v31.7h6.8V138l15.1,20.7L61.4,158.7L61.4,158.7z M-6.9,158.7v-6
			h-13.4V127H-27v31.7C-27,158.7-6.9,158.7-6.9,158.7z"/>
	</g>
	<path class="st0" d="M73.4,117.8v-3h-7.8v-3.6h7.7v-2.9h-7.7v-3.4h7.8V102H62.2v15.9H73.4z M58.4,117.8V102H55v6.2h-7.5V102h-3.4
		v15.9h3.4v-6.7H55v6.7H58.4z M36.6,117.8v-12.9h4.6V102H28.6v2.9h4.6v12.9H36.6L36.6,117.8z"/>
	<g>
		<path class="st0" d="M27.3,179.8l6.5-6.5l-4.2-4.2l-6.5,6.5l-7.8-7.8c-0.4-0.4-0.5-1.2-0.5-1.3v-4.4c-1,0.2-2,0.3-3,0.3
			s-2-0.1-2.9-0.2v4.4c0,0.4,0.1,3.3,2.2,5.4l20.9,21.2l4.3-4.2L27.3,179.8z"/>
		<path class="st0" d="M8.8,119.2v3.7c1-0.2,1.9-0.2,2.9-0.2c1.1,0,2,0.1,3,0.3v-3.7c0-3-1.9-5.2-2.1-5.4l-2.9-3.1l6.5-6.5l-4-4.2
			l-6.3,6.3l-8.6-9.5l-4.4,4l15.5,17C8.3,117.7,8.8,118.4,8.8,119.2z"/>
	</g>
	<path class="st0" d="M11.8,125.9c-9.1,0-16.5,7.4-16.5,16.5c0,3.7,1.2,7,3.2,9.8l14.6-14.6H7c-4,0-3.7-5.3-3.7-5.3h9.8
		c9.1,0,9.1,8.8,9.1,8.8v10.1c-5.3,0-5.3-3.3-5.3-3.3v-6.5L2.3,156c2.7,1.9,6,3,9.5,3c9.1,0,16.5-7.4,16.5-16.5
		C28.2,133.3,20.9,125.9,11.8,125.9"/>
	<path class="st1" d="M36.8,146.2"/>
</g>
</svg>
