<?xml version="1.0" encoding="utf-8"?>
<!-- Generator: Adobe Illustrator 19.1.0, SVG Export Plug-In . SVG Version: 6.00 Build 0)  -->
<svg version="1.1" id="Layer_1" xmlns="http://www.w3.org/2000/svg" xmlns:xlink="http://www.w3.org/1999/xlink" x="0px" y="0px"
	 viewBox="-39 97.7 219.5 86.1" style="enable-background:new -39 97.7 219.5 86.1;" xml:space="preserve">
<style type="text/css">
	.st0{fill:#D9E4E8;}
</style>
<g>
	<path id="B_bottom_2_" class="st0" d="M-14.1,173.4c-9.8,0-18.1-6.8-20.3-16l-1.2,1.6c-0.6,0.8-1.8,1-2.7,0.4
		c-0.8-0.6-1-1.8-0.4-2.7l4-5.3c0,0,0-0.1,0.1-0.1c0.2-0.2,0.4-0.4,0.6-0.5c0.2-0.1,0.5-0.2,0.8-0.2c0.3,0,0.5,0,0.7,0.1
		c0,0,0,0,0,0l0,0c0.2,0.1,0.4,0.2,0.5,0.3l5.3,4c0.8,0.6,1,1.8,0.4,2.7c-0.6,0.8-1.8,1-2.7,0.4l-1.8-1.4
		c1.9,7.4,8.6,12.9,16.5,12.9c6.1,0,11.7-3.3,14.8-8.5c0.5-0.9,1.7-1.2,2.6-0.7c0.9,0.5,1.2,1.7,0.7,2.6
		C0.2,169.4-6.7,173.4-14.1,173.4z"/>
	<path id="B_top_2_" class="st0" d="M4.8,154.5c-0.2,0-0.4,0-0.7-0.1c0,0,0,0,0,0l0,0c-0.2-0.1-0.3-0.2-0.5-0.3l-5.3-4
		c-0.8-0.6-1-1.8-0.4-2.7c0.6-0.8,1.8-1,2.7-0.4l1.8,1.4c-1.2-4.8-4.4-8.8-9-11.1c-0.6-0.3-1-0.9-1-1.5c-0.1-0.7,0.2-1.3,0.8-1.7
		c3.1-2.3,5-6,5-9.9c0-6.8-5.5-12.3-12.3-12.3h-17.1v31.3c0,1-0.8,1.9-1.9,1.9c-1,0-1.9-0.8-1.9-1.9v-33.2c0-1,0.8-1.9,1.9-1.9h18.9
		c8.9,0,16.1,7.2,16.1,16.1c0,4.2-1.6,8.2-4.5,11.1c4.4,2.9,7.4,7.3,8.6,12.4l1.2-1.6c0.6-0.8,1.8-1,2.7-0.4c0.8,0.6,1,1.8,0.4,2.7
		l-4,5.3c0,0,0,0.1-0.1,0.1c-0.2,0.2-0.4,0.4-0.6,0.5C5.5,154.4,5.2,154.4,4.8,154.5C4.9,154.5,4.9,154.5,4.8,154.5z"/>
	<g id="Text_1_">
		<path class="st0" d="M24.7,122.9V135h-2.2v-26.9h9.1c2.9,0,5.2,0.6,6.7,1.9c1.5,1.2,2.3,3.1,2.3,5.6c0,1.5-0.4,2.7-1.2,3.8
			c-0.8,1.1-2,1.9-3.5,2.4v0.1c1.7,0.4,2.8,1.2,3.5,2.2c0.7,1.1,1,2.4,1,4.1v2.5c0,0.9,0.1,1.6,0.3,2.3c0.2,0.7,0.5,1.2,1,1.6v0.4
			h-2.3c-0.5-0.5-0.8-1.1-1-1.9c-0.2-0.8-0.3-1.6-0.3-2.5v-2.5c0-1.7-0.5-3-1.5-3.9c-1-0.9-2.5-1.4-4.5-1.4H24.7z M24.7,121h6.6
			c2.5,0,4.3-0.5,5.4-1.4c1.1-1,1.6-2.3,1.6-4c0-1.8-0.5-3.2-1.6-4.1c-1.1-0.9-2.8-1.4-5.1-1.4h-6.9V121z"/>
		<path class="st0" d="M62.7,122h-13v11.2h14.9v1.9H47.5v-26.9h17v1.9H49.7v10.1h13V122z"/>
		<path class="st0" d="M84.7,122.4H71.6V135h-2.2v-26.9h17.2v1.9h-15v10.5h13.1V122.4z"/>
		<path class="st0" d="M93.4,122.9V135h-2.2v-26.9h9.1c2.9,0,5.2,0.6,6.7,1.9c1.5,1.2,2.3,3.1,2.3,5.6c0,1.5-0.4,2.7-1.2,3.8
			c-0.8,1.1-2,1.9-3.5,2.4v0.1c1.7,0.4,2.8,1.2,3.5,2.2c0.7,1.1,1,2.4,1,4.1v2.5c0,0.9,0.1,1.6,0.3,2.3c0.2,0.7,0.5,1.2,1,1.6v0.4
			h-2.3c-0.5-0.5-0.8-1.1-1-1.9c-0.2-0.8-0.3-1.6-0.3-2.5v-2.5c0-1.7-0.5-3-1.5-3.9c-1-0.9-2.5-1.4-4.5-1.4H93.4z M93.4,121h6.6
			c2.5,0,4.3-0.5,5.4-1.4c1.1-1,1.6-2.3,1.6-4c0-1.8-0.5-3.2-1.6-4.1c-1.1-0.9-2.8-1.4-5.1-1.4h-6.9V121z"/>
		<path class="st0" d="M131.3,122h-13v11.2h14.9v1.9h-17.1v-26.9h17v1.9h-14.8v10.1h13V122z"/>
		<path class="st0" d="M153.4,128.4c0-1.5-0.5-2.7-1.6-3.6c-1.1-0.9-3-1.7-5.8-2.5c-3-0.8-5.3-1.7-6.7-2.9c-1.5-1.2-2.2-2.8-2.2-4.8
			c0-2.1,0.8-3.8,2.5-5.1c1.7-1.3,3.9-1.9,6.6-1.9c2.8,0,5.1,0.8,6.8,2.3c1.7,1.5,2.5,3.5,2.5,5.8h-2.2c0-1.8-0.6-3.3-1.9-4.5
			c-1.3-1.1-3-1.7-5.2-1.7c-2.2,0-3.9,0.5-5.1,1.4c-1.2,1-1.8,2.2-1.8,3.6c0,1.4,0.5,2.5,1.6,3.4c1.1,0.9,3,1.7,5.8,2.4
			c2.9,0.8,5.2,1.7,6.7,3c1.5,1.2,2.2,2.9,2.2,5c0,2.2-0.9,3.9-2.6,5.2c-1.7,1.2-4,1.9-6.8,1.9c-2.8,0-5.1-0.7-7.1-2
			c-2-1.3-3-3.4-3-6h2.2c0,2.1,0.8,3.7,2.3,4.7c1.5,1,3.4,1.5,5.6,1.5c2.2,0,3.9-0.5,5.2-1.4S153.4,130,153.4,128.4z"/>
		<path class="st0" d="M180.5,135h-2.2v-12.4H163V135h-2.2v-26.9h2.2v12.7h15.3v-12.7h2.2V135z"/>
		<path class="st0" d="M22.6,173.4v-26.9h7.9c2.8,0,5,0.6,6.6,1.7c1.5,1.2,2.3,2.9,2.3,5.3c0,1.4-0.4,2.6-1.1,3.6
			c-0.8,1-1.8,1.7-3.1,2.1v0.1c1.6,0.3,2.9,1.1,3.9,2.3c1,1.2,1.5,2.7,1.5,4.3c0,2.5-0.8,4.3-2.3,5.6c-1.5,1.3-3.6,1.9-6.3,1.9H22.6
			z M24.8,158.5H31c2,0,3.5-0.4,4.6-1.3c1-0.8,1.6-2.1,1.6-3.8c0-1.7-0.6-3-1.7-3.9c-1.1-0.8-2.8-1.3-5-1.3h-5.7V158.5z M24.8,160.4
			v11.1h7.1c2,0,3.6-0.5,4.7-1.4c1.1-1,1.7-2.3,1.7-4.1c0-1.7-0.5-3-1.5-4c-1-1-2.5-1.5-4.5-1.5H24.8z"/>
		<path class="st0" d="M65.9,162.1c0,3.5-1,6.3-2.9,8.4c-1.9,2.2-4.5,3.2-7.7,3.2c-3.2,0-5.7-1.1-7.6-3.2c-1.9-2.2-2.8-5-2.8-8.4
			v-4.4c0-3.5,0.9-6.3,2.8-8.4c1.9-2.2,4.4-3.2,7.6-3.2c3.2,0,5.8,1.1,7.7,3.2c1.9,2.2,2.9,5,2.9,8.4V162.1z M63.7,157.7
			c0-2.9-0.7-5.2-2.2-7c-1.5-1.8-3.5-2.7-6.1-2.7c-2.6,0-4.5,0.9-6,2.7c-1.4,1.8-2.2,4.1-2.2,7v4.4c0,2.9,0.7,5.3,2.2,7.1
			c1.4,1.8,3.4,2.7,6,2.7c2.6,0,4.7-0.9,6.1-2.7c1.5-1.8,2.2-4.1,2.2-7.1V157.7z"/>
		<path class="st0" d="M87.3,166.8c0-1.5-0.5-2.7-1.6-3.6c-1.1-0.9-3-1.7-5.8-2.5c-3-0.8-5.3-1.7-6.7-2.9c-1.5-1.2-2.2-2.8-2.2-4.8
			c0-2.1,0.8-3.8,2.5-5.1c1.7-1.3,3.9-1.9,6.6-1.9c2.8,0,5.1,0.8,6.8,2.3c1.7,1.5,2.5,3.5,2.5,5.8h-2.2c0-1.8-0.6-3.3-1.9-4.5
			c-1.3-1.1-3-1.7-5.2-1.7c-2.2,0-3.9,0.5-5.1,1.4c-1.2,1-1.8,2.2-1.8,3.6c0,1.4,0.5,2.5,1.6,3.4c1.1,0.9,3,1.7,5.8,2.4
			c2.9,0.8,5.2,1.7,6.7,3c1.5,1.2,2.2,2.9,2.2,5c0,2.2-0.9,3.9-2.6,5.2c-1.7,1.2-4,1.9-6.8,1.9c-2.8,0-5.1-0.7-7.1-2
			c-2-1.3-3-3.4-3-6h2.2c0,2.1,0.8,3.7,2.3,4.7c1.5,1,3.4,1.5,5.6,1.5c2.2,0,3.9-0.5,5.2-1.4C86.6,169.6,87.3,168.4,87.3,166.8z"/>
		<path class="st0" d="M112.7,148.3h-9.1v25.1h-2.2v-25.1h-9.1v-1.9h20.5V148.3z"/>
		<path class="st0" d="M136.6,162.1c0,3.5-1,6.3-2.9,8.4c-1.9,2.2-4.5,3.2-7.7,3.2c-3.2,0-5.7-1.1-7.6-3.2c-1.9-2.2-2.8-5-2.8-8.4
			v-4.4c0-3.5,0.9-6.3,2.8-8.4c1.9-2.2,4.4-3.2,7.6-3.2c3.2,0,5.8,1.1,7.7,3.2c1.9,2.2,2.9,5,2.9,8.4V162.1z M134.3,157.7
			c0-2.9-0.7-5.2-2.2-7c-1.5-1.8-3.5-2.7-6.1-2.7c-2.6,0-4.5,0.9-6,2.7c-1.4,1.8-2.2,4.1-2.2,7v4.4c0,2.9,0.7,5.3,2.2,7.1
			c1.4,1.8,3.4,2.7,6,2.7c2.6,0,4.7-0.9,6.1-2.7c1.5-1.8,2.2-4.1,2.2-7.1V157.7z"/>
		<path class="st0" d="M162.4,173.4h-2.2l-15.4-23.3l-0.1,0v23.2h-2.2v-26.9h2.2l15.4,23.2l0.1,0v-23.2h2.2V173.4z"/>
	</g>
</g>
</svg>
