<?xml version="1.0" encoding="utf-8"?>
<!-- Generator: Adobe Illustrator 19.0.0, SVG Export Plug-In . SVG Version: 6.00 Build 0)  -->
<svg version="1.1" id="Layer_1" xmlns="http://www.w3.org/2000/svg" xmlns:xlink="http://www.w3.org/1999/xlink" x="0px" y="0px"
	 viewBox="0 0 168 122.4" style="enable-background:new 0 0 168 122.4;" xml:space="preserve">
<style type="text/css">
	.st0{fill:none;}
	.st1{fill:#3C3C3B;}
</style>
<g id="XMLID_2_">
	<path id="XMLID_3_" class="st0" d="M94.6,8.4c-0.5,0.2-0.9,0.5-1.4,0.8c0.4-0.2,0.8-0.4,1.2-0.6C94.4,8.5,94.5,8.5,94.6,8.4z"/>
	<path id="XMLID_16_" class="st0" d="M19.3,3.5c0.5,0.2,1,0.4,1.4,0.6C20.3,3.9,19.8,3.7,19.3,3.5z"/>
	<path id="XMLID_17_" class="st0" d="M88.4,12.3c0.7-0.5,1.4-1,2.1-1.5C89.8,11.3,89.1,11.8,88.4,12.3z"/>
	<path id="XMLID_18_" class="st0" d="M21.6,4.3c-0.1,0-0.1,0-0.2-0.1C21.5,4.3,21.6,4.3,21.6,4.3C21.6,4.3,21.6,4.3,21.6,4.3z"/>
	<path id="XMLID_19_" class="st0" d="M91.1,10.5c0.5-0.3,1.1-0.7,1.6-1C92.1,9.8,91.6,10.1,91.1,10.5z"/>
	<path id="XMLID_20_" class="st0" d="M75.5,9.1c0.1,0,0.1,0.1,0.2,0.1C75.6,9.1,75.6,9.1,75.5,9.1z"/>
	<path id="XMLID_21_" class="st0" d="M150.2,3.3c0.7-0.3,1.4-0.6,2.1-1C151.6,2.7,150.9,3,150.2,3.3z"/>
	<path id="XMLID_22_" class="st0" d="M16.7,2.3L16.7,2.3c0.7,0.3,1.4,0.7,2.1,1C18,3,17.4,2.7,16.7,2.3z"/>
	<path id="XMLID_23_" class="st0" d="M148.2,4.1c0.5-0.2,0.9-0.4,1.4-0.5C149.1,3.7,148.6,3.9,148.2,4.1z"/>
	<path id="XMLID_24_" class="st0" d="M147.5,4.3c-0.1,0-0.1,0-0.2,0.1c0,0,0,0,0,0C147.3,4.3,147.4,4.3,147.5,4.3z"/>
	<path id="XMLID_25_" class="st0" d="M76.2,9.5c0.5,0.3,1.1,0.6,1.6,1C77.3,10.1,76.8,9.8,76.2,9.5z"/>
	<path id="XMLID_26_" class="st0" d="M78.4,10.9c0.7,0.5,1.4,0.9,2.1,1.5C79.8,11.8,79.1,11.3,78.4,10.9z"/>
	<path id="XMLID_27_" class="st0" d="M75.8,9.2C75.7,9.2,75.7,9.2,75.8,9.2C75.7,9.2,75.7,9.2,75.8,9.2C75.7,9.2,75.8,9.2,75.8,9.2z
		"/>
	<path id="XMLID_28_" class="st1" d="M37,97.8c-0.2,0-0.3,0-0.5,0.1C36.7,97.8,36.8,97.8,37,97.8z"/>
	<path id="XMLID_29_" class="st1" d="M137.3,98.1c0.1,0,0.1,0,0.2,0c-0.2,0-0.3,0-0.5,0C137.1,98.1,137.2,98.1,137.3,98.1z"/>
	<path id="XMLID_30_" class="st1" d="M140.9,97.9c-0.3,0-0.5,0-0.8,0.1C140.3,98,140.6,97.9,140.9,97.9z"/>
	<path id="XMLID_31_" class="st1" d="M25.3,97.5c-0.3-0.1-0.5-0.1-0.8-0.2C24.7,97.4,25,97.4,25.3,97.5z"/>
	<path id="XMLID_32_" class="st1" d="M139.2,98.1c-0.3,0-0.5,0-0.8,0C138.6,98.1,138.9,98.1,139.2,98.1z"/>
	<path id="XMLID_33_" class="st1" d="M107.2,97.2c-0.2,0-0.4,0.1-0.6,0.1C106.8,97.2,107,97.2,107.2,97.2z"/>
	<path id="XMLID_34_" class="st1" d="M144.4,97.3c-0.3,0.1-0.5,0.1-0.8,0.2C143.9,97.4,144.2,97.4,144.4,97.3z"/>
	<path id="XMLID_35_" class="st1" d="M23.4,97c-0.3-0.1-0.5-0.1-0.8-0.2C22.9,96.9,23.2,97,23.4,97z"/>
	<path id="XMLID_36_" class="st1" d="M105,97.7c-0.2,0-0.4,0.1-0.6,0.1C104.6,97.8,104.8,97.7,105,97.7z"/>
	<path id="XMLID_37_" class="st1" d="M142.6,97.7c-0.3,0-0.5,0.1-0.8,0.1C142.1,97.8,142.4,97.7,142.6,97.7z"/>
	<path id="XMLID_38_" class="st1" d="M39.3,97.5c-0.1,0-0.2,0-0.4,0C39.1,97.5,39.2,97.5,39.3,97.5z"/>
	<path id="XMLID_39_" class="st1" d="M121.8,96.5c-0.7-0.1-1.5-0.1-2.2-0.2C120.3,96.4,121,96.4,121.8,96.5z"/>
	<path id="XMLID_40_" class="st1" d="M124.6,96.8c-0.8-0.1-1.5-0.2-2.3-0.3C123.1,96.6,123.9,96.7,124.6,96.8z"/>
	<path id="XMLID_41_" class="st1" d="M31.6,98.1c0.1,0,0.2,0,0.3,0c-0.2,0-0.3,0-0.5,0C31.5,98.1,31.6,98.1,31.6,98.1z"/>
	<path id="XMLID_42_" class="st1" d="M109.4,96.8c-0.1,0-0.2,0-0.3,0C109.2,96.8,109.3,96.8,109.4,96.8z"/>
	<path id="XMLID_43_" class="st1" d="M115.7,96.2c-0.1,0-0.3,0-0.4,0C115.4,96.2,115.5,96.2,115.7,96.2z"/>
	<path id="XMLID_44_" class="st1" d="M113.5,96.3c-0.1,0-0.2,0-0.4,0C113.3,96.3,113.4,96.3,113.5,96.3z"/>
	<path id="XMLID_45_" class="st1" d="M111.6,96.5c-0.2,0-0.4,0-0.6,0.1C111.3,96.5,111.4,96.5,111.6,96.5z"/>
	<path id="XMLID_46_" class="st1" d="M34.3,98c-0.1,0-0.3,0-0.4,0C34,98,34.2,98,34.3,98z"/>
	<path id="XMLID_47_" class="st1" d="M27.1,97.8c-0.3,0-0.5-0.1-0.8-0.1C26.5,97.7,26.8,97.8,27.1,97.8z"/>
	<path id="XMLID_48_" class="st1" d="M132.4,97.8c-0.2,0-0.3,0-0.5-0.1C132.1,97.8,132.2,97.8,132.4,97.8z"/>
	<path id="XMLID_49_" class="st1" d="M135,98c-0.1,0-0.3,0-0.4,0C134.7,98,134.9,98,135,98z"/>
	<path id="XMLID_50_" class="st1" d="M28.9,98c-0.3,0-0.5,0-0.8-0.1C28.3,97.9,28.6,98,28.9,98z"/>
	<path id="XMLID_51_" class="st1" d="M127.1,97.2c-0.7-0.1-1.4-0.2-2.1-0.3C125.8,97,126.4,97.1,127.1,97.2z"/>
	<path id="XMLID_52_" class="st1" d="M30.6,98.1c-0.3,0-0.5,0-0.8,0C30,98.1,30.3,98.1,30.6,98.1z"/>
	<path id="XMLID_53_" class="st1" d="M146.3,96.8c-0.3,0.1-0.5,0.1-0.8,0.2C145.8,97,146,96.9,146.3,96.8z"/>
	<path id="XMLID_54_" class="st1" d="M130,97.5c-0.1,0-0.3,0-0.4,0C129.7,97.5,129.9,97.5,130,97.5z"/>
	<path id="XMLID_55_" class="st1" d="M66.8,5.4c-0.5-0.1-1-0.3-1.5-0.4C65.8,5.1,66.3,5.3,66.8,5.4z"/>
	<path id="XMLID_56_" class="st1" d="M58.9,4C58.3,4,57.7,4,57.1,4C57.7,4,58.3,4,58.9,4z"/>
	<path id="XMLID_57_" class="st1" d="M53,4c-0.1,0-0.2,0-0.3,0C52.8,4,52.9,4,53,4z"/>
	<path id="XMLID_58_" class="st1" d="M40.9,5.3c-0.8,0.1-1.5,0.2-2.3,0.3C39.4,5.5,40.2,5.4,40.9,5.3z"/>
	<path id="XMLID_59_" class="st1" d="M50.3,4.2c-0.2,0-0.4,0-0.6,0.1C49.9,4.3,50.1,4.3,50.3,4.2z"/>
	<path id="XMLID_60_" class="st1" d="M62.7,4.5c-0.5-0.1-1-0.2-1.5-0.2C61.7,4.3,62.2,4.4,62.7,4.5z"/>
	<path id="XMLID_61_" class="st1" d="M44.2,4.9c-0.9,0.1-1.8,0.2-2.7,0.3C42.4,5.2,43.3,5.1,44.2,4.9z"/>
	<path id="XMLID_62_" class="st1" d="M47.1,4.6c-0.2,0-0.4,0-0.5,0.1C46.8,4.6,46.9,4.6,47.1,4.6z"/>
	<path id="XMLID_63_" class="st1" d="M60.7,4.2c-0.5-0.1-1-0.1-1.5-0.1C59.7,4.1,60.2,4.2,60.7,4.2z"/>
	<path id="XMLID_64_" class="st1" d="M73.3,7.9c-0.5-0.3-1.1-0.5-1.6-0.7C72.3,7.4,72.8,7.7,73.3,7.9z"/>
	<path id="XMLID_65_" class="st1" d="M75.7,9.2C75.7,9.2,75.7,9.2,75.7,9.2C75.7,9.2,75.7,9.2,75.7,9.2c-0.1-0.1-0.2-0.1-0.2-0.1
		c-0.6-0.3-1.2-0.6-1.7-0.9C74.4,8.5,75.1,8.8,75.7,9.2z"/>
	<path id="XMLID_66_" class="st1" d="M71.2,6.9c-0.6-0.2-1.2-0.5-1.7-0.7C70,6.5,70.6,6.7,71.2,6.9z"/>
	<path id="XMLID_67_" class="st1" d="M102.3,98.4c-0.1,0-0.2,0.1-0.3,0.1C102.1,98.5,102.2,98.4,102.3,98.4z"/>
	<path id="XMLID_68_" class="st1" d="M64.9,4.9c-0.6-0.1-1.2-0.3-1.8-0.4C63.7,4.6,64.3,4.8,64.9,4.9z"/>
	<path id="XMLID_69_" class="st1" d="M69.2,6.2c-0.6-0.2-1.3-0.4-1.9-0.6C68,5.7,68.6,5.9,69.2,6.2z"/>
	<path id="XMLID_70_" class="st1" d="M150.2,95.4c-0.2,0.1-0.4,0.2-0.7,0.3C149.7,95.6,150,95.5,150.2,95.4z"/>
	<path id="XMLID_71_" class="st1" d="M19.4,95.7c-0.2-0.1-0.4-0.2-0.7-0.3C18.9,95.5,19.2,95.6,19.4,95.7z"/>
	<path id="XMLID_72_" class="st1" d="M55.6,4c0.3,0,0.7,0,1,0c-0.2,0-0.5,0-0.7,0C55.8,3.9,55.7,4,55.6,4z"/>
	<path id="XMLID_73_" class="st1" d="M22.7,4.7c-0.4-0.1-0.7-0.2-1.1-0.3c0,0,0,0,0,0C22,4.5,22.4,4.6,22.7,4.7z"/>
	<path id="XMLID_74_" class="st1" d="M49.7,96.3c0.8,0,1.7-0.1,2.5-0.1C51.3,96.2,50.5,96.3,49.7,96.3z"/>
	<path id="XMLID_75_" class="st1" d="M148.2,96.2c-0.3,0.1-0.5,0.2-0.8,0.3C147.7,96.4,147.9,96.3,148.2,96.2z"/>
	<path id="XMLID_76_" class="st1" d="M21.5,96.4c-0.3-0.1-0.5-0.2-0.8-0.3C21,96.3,21.2,96.4,21.5,96.4z"/>
	<path id="XMLID_77_" class="st1" d="M38.2,5.6c-0.8,0.1-1.7,0.1-2.5,0.2C36.5,5.8,37.4,5.7,38.2,5.6z"/>
	<path id="XMLID_78_" class="st1" d="M30.5,5.9c-0.3,0-0.7,0-1.1-0.1C29.8,5.9,30.2,5.9,30.5,5.9z"/>
	<path id="XMLID_79_" class="st1" d="M24.7,5.2c-0.4-0.1-0.8-0.2-1.2-0.3C23.9,5,24.3,5.1,24.7,5.2z"/>
	<path id="XMLID_80_" class="st1" d="M35.1,5.9c-0.8,0-1.6,0.1-2.4,0.1C33.5,5.9,34.3,5.9,35.1,5.9z"/>
	<path id="XMLID_81_" class="st1" d="M32.4,5.9c-0.3,0-0.7,0-1,0C31.8,5.9,32.1,5.9,32.4,5.9z"/>
	<path id="XMLID_82_" class="st1" d="M26.7,5.5c-0.4-0.1-0.8-0.1-1.2-0.2C25.9,5.4,26.3,5.5,26.7,5.5z"/>
	<path id="XMLID_83_" class="st1" d="M28.6,5.8c-0.4,0-0.7-0.1-1.1-0.1C27.9,5.7,28.2,5.7,28.6,5.8z"/>
	<path id="XMLID_84_" class="st1" d="M122.3,4.6c-0.2,0-0.4,0-0.5-0.1C122,4.6,122.2,4.6,122.3,4.6z"/>
	<path id="XMLID_85_" class="st1" d="M64.5,97.8c-0.2-0.1-0.4-0.1-0.6-0.2C64.1,97.7,64.3,97.8,64.5,97.8z"/>
	<path id="XMLID_86_" class="st1" d="M116.2,4.1c-0.1,0-0.2,0-0.3,0C116,4,116.1,4,116.2,4.1z"/>
	<path id="XMLID_87_" class="st1" d="M119.2,4.3c-0.2,0-0.4,0-0.6-0.1C118.8,4.3,119,4.3,119.2,4.3z"/>
	<path id="XMLID_88_" class="st1" d="M111.8,4c-0.6,0-1.2,0-1.8,0.1C110.6,4,111.2,4,111.8,4z"/>
	<path id="XMLID_89_" class="st1" d="M62.3,97.3c-0.2,0-0.4-0.1-0.6-0.1C61.9,97.2,62.1,97.2,62.3,97.3z"/>
	<path id="XMLID_90_" class="st1" d="M66.9,98.5c-0.1,0-0.2-0.1-0.3-0.1C66.7,98.4,66.8,98.5,66.9,98.5z"/>
	<path id="XMLID_91_" class="st1" d="M136.2,5.9c-0.8,0-1.6,0-2.4-0.1C134.6,5.9,135.4,5.9,136.2,5.9z"/>
	<path id="XMLID_92_" class="st1" d="M133.2,5.8c-0.8-0.1-1.7-0.1-2.5-0.2C131.5,5.7,132.4,5.8,133.2,5.8z"/>
	<path id="XMLID_93_" class="st1" d="M109.7,4.1c-0.5,0-1,0.1-1.5,0.1C108.7,4.2,109.2,4.1,109.7,4.1z"/>
	<path id="XMLID_94_" class="st1" d="M57.8,96.5c-0.2,0-0.4,0-0.6-0.1C57.5,96.5,57.6,96.5,57.8,96.5z"/>
	<path id="XMLID_95_" class="st1" d="M130.2,5.6c-0.8-0.1-1.5-0.2-2.3-0.3C128.7,5.4,129.5,5.5,130.2,5.6z"/>
	<path id="XMLID_96_" class="st1" d="M59.8,96.8c-0.1,0-0.2,0-0.3,0C59.6,96.8,59.7,96.8,59.8,96.8z"/>
	<path id="XMLID_97_" class="st1" d="M127.4,5.3c-0.9-0.1-1.8-0.2-2.7-0.3C125.6,5.1,126.5,5.2,127.4,5.3z"/>
	<path id="XMLID_98_" class="st1" d="M101.6,5.6c-0.6,0.2-1.3,0.4-1.9,0.6C100.3,5.9,101,5.7,101.6,5.6z"/>
	<path id="XMLID_99_" class="st1" d="M107.7,4.3c-0.5,0.1-1,0.1-1.5,0.2C106.7,4.4,107.2,4.3,107.7,4.3z"/>
	<path id="XMLID_100_" class="st1" d="M75.1,101.7c-0.2-0.1-0.4-0.2-0.6-0.3C74.6,101.5,74.9,101.6,75.1,101.7z"/>
	<path id="XMLID_101_" class="st1" d="M77.8,103c-0.3-0.1-0.5-0.3-0.8-0.4C77.3,102.8,77.6,102.9,77.8,103z"/>
	<path id="XMLID_102_" class="st1" d="M97.2,7.2c-0.5,0.2-1.1,0.5-1.6,0.7C96.1,7.7,96.6,7.4,97.2,7.2z"/>
	<path id="XMLID_103_" class="st1" d="M95.2,8.1c-0.2,0.1-0.4,0.2-0.6,0.3c-0.1,0-0.1,0.1-0.2,0.1C94.6,8.4,94.9,8.3,95.2,8.1z"/>
	<path id="XMLID_105_" class="st1" d="M112.3,4c0.3,0,0.7,0,1,0c-0.1,0-0.2,0-0.3,0C112.7,3.9,112.5,4,112.3,4z"/>
	<path id="XMLID_106_" class="st1" d="M105.9,4.5c-0.6,0.1-1.2,0.2-1.8,0.4C104.6,4.8,105.3,4.6,105.9,4.5z"/>
	<path id="XMLID_107_" class="st1" d="M69.6,99.4c-0.2-0.1-0.5-0.2-0.7-0.2C69.1,99.2,69.4,99.3,69.6,99.4z"/>
	<path id="XMLID_108_" class="st1" d="M103.6,5c-0.5,0.1-1,0.2-1.5,0.4C102.6,5.3,103.1,5.1,103.6,5z"/>
	<path id="XMLID_109_" class="st1" d="M99.5,6.3c-0.6,0.2-1.2,0.4-1.7,0.7C98.3,6.7,98.9,6.5,99.5,6.3z"/>
	<path id="XMLID_110_" class="st1" d="M72,100.3c-0.2-0.1-0.3-0.1-0.5-0.2C71.6,100.2,71.8,100.3,72,100.3z"/>
	<path id="XMLID_111_" class="st1" d="M137.5,5.9c-0.3,0-0.7,0-1,0C136.8,5.9,137.2,5.9,137.5,5.9z"/>
	<path id="XMLID_112_" class="st1" d="M91.8,102.6c-0.2,0.1-0.5,0.2-0.8,0.4C91.3,102.9,91.6,102.8,91.8,102.6z"/>
	<path id="XMLID_113_" class="st1" d="M147.2,4.3C147.2,4.3,147.2,4.3,147.2,4.3c-0.4,0.1-0.7,0.2-1.1,0.3
		C146.5,4.6,146.9,4.5,147.2,4.3z"/>
	<path id="XMLID_114_" class="st1" d="M116.8,96.2c0.9,0,1.7,0,2.5,0.1C118.4,96.3,117.6,96.2,116.8,96.2z"/>
	<path id="XMLID_115_" class="st1" d="M49.4,96.3c-0.8,0-1.5,0.1-2.2,0.2C47.9,96.4,48.6,96.4,49.4,96.3z"/>
	<path id="XMLID_116_" class="st1" d="M53.7,96.2c-0.1,0-0.3,0-0.4,0C53.4,96.2,53.5,96.2,53.7,96.2z"/>
	<path id="XMLID_117_" class="st1" d="M145.4,4.9c-0.4,0.1-0.8,0.2-1.2,0.3C144.6,5.1,145,5,145.4,4.9z"/>
	<path id="XMLID_118_" class="st1" d="M43.8,96.9c-0.7,0.1-1.3,0.2-2,0.3C42.5,97.1,43.1,97,43.8,96.9z"/>
	<path id="XMLID_119_" class="st1" d="M100,99.2c-0.2,0.1-0.5,0.2-0.7,0.2C99.6,99.3,99.8,99.2,100,99.2z"/>
	<path id="XMLID_120_" class="st1" d="M143.4,5.3c-0.4,0.1-0.8,0.2-1.2,0.2C142.6,5.5,143,5.4,143.4,5.3z"/>
	<path id="XMLID_121_" class="st1" d="M46.6,96.6c-0.8,0.1-1.5,0.2-2.3,0.3C45,96.7,45.8,96.6,46.6,96.6z"/>
	<path id="XMLID_122_" class="st1" d="M97.4,100.1c-0.2,0.1-0.3,0.1-0.5,0.2C97.1,100.3,97.3,100.2,97.4,100.1z"/>
	<path id="XMLID_123_" class="st1" d="M94.5,101.4c-0.2,0.1-0.4,0.2-0.6,0.3C94.1,101.6,94.3,101.5,94.5,101.4z"/>
	<path id="XMLID_124_" class="st1" d="M141.4,5.6c-0.4,0-0.7,0.1-1.1,0.1C140.7,5.7,141,5.7,141.4,5.6z"/>
	<path id="XMLID_125_" class="st1" d="M55.8,96.4c-0.1,0-0.2,0-0.4,0C55.5,96.3,55.7,96.3,55.8,96.4z"/>
	<path id="XMLID_126_" class="st1" d="M139.4,5.8c-0.4,0-0.7,0.1-1.1,0.1C138.7,5.9,139.1,5.9,139.4,5.8z"/>
	<g id="XMLID_1_">
		<path id="XMLID_4_" class="st0" d="M148.4,4.4c0.8,0,1.7,0,2.4,0C150.1,4.3,149.3,4.4,148.4,4.4z"/>
		<path id="XMLID_7_" d="M78,10.5c-0.5-0.3-1.1-0.7-1.7-1c-0.2-0.1-0.4-0.2-0.5-0.3c0,0,0,0,0,0C77.2,10,78.6,11,80,12
			c-1.4-1-2.9-2-4.3-2.8c-0.7-0.4-1.3-0.7-2-1.1c-0.1-0.1-0.3-0.1-0.4-0.2c-0.5-0.3-1.1-0.5-1.6-0.7c-0.2-0.1-0.4-0.2-0.6-0.2
			c-0.6-0.2-1.2-0.5-1.7-0.7c-0.1,0-0.1-0.1-0.2-0.1c-0.6-0.2-1.3-0.4-1.9-0.6c-0.2-0.1-0.3-0.1-0.5-0.1c-0.5-0.1-1-0.3-1.5-0.4
			c-0.2,0-0.3-0.1-0.5-0.1c-0.6-0.1-1.2-0.3-1.8-0.4c-0.1,0-0.2,0-0.3,0c-0.5-0.1-1-0.2-1.5-0.2c-0.2,0-0.3,0-0.5-0.1
			c-0.5-0.1-1-0.1-1.5-0.1c-0.1,0-0.2,0-0.3,0C58.3,4,57.7,4,57.1,4c-0.2,0-0.3,0-0.5,0c-0.3,0-0.7,0-1,0C54.7,4,53.9,4,53,4
			c-0.1,0-0.2,0-0.3,0c-0.8,0-1.6,0.1-2.5,0.2c-0.2,0-0.4,0-0.6,0.1c-0.9,0.1-1.7,0.2-2.6,0.3c-0.2,0-0.4,0-0.5,0.1
			c-0.8,0.1-1.6,0.2-2.3,0.3c-0.9,0.1-1.8,0.2-2.7,0.3c-0.2,0-0.4,0-0.5,0.1c-0.8,0.1-1.5,0.2-2.3,0.3c-0.2,0-0.3,0-0.5,0
			c-0.8,0.1-1.7,0.1-2.5,0.2c-0.2,0-0.4,0-0.6,0c-0.8,0-1.6,0.1-2.4,0.1c-0.1,0-0.1,0-0.2,0c0,0,0,0-0.1,0c-0.3,0-0.7,0-1,0
			c-0.3,0-0.6,0-0.9,0c-0.3,0-0.7,0-1.1-0.1c-0.3,0-0.6,0-0.9-0.1c-0.4,0-0.7-0.1-1.1-0.1c-0.3,0-0.5-0.1-0.8-0.1
			c-0.4-0.1-0.8-0.1-1.2-0.2c-0.3-0.1-0.5-0.1-0.8-0.1c-0.4-0.1-0.8-0.2-1.2-0.3c-0.3-0.1-0.5-0.1-0.8-0.2c-0.4-0.1-0.6-0.2-0.9-0.3
			c-0.1,0-0.2,0-0.3-0.1c-0.2-0.1-0.5-0.1-0.7-0.2c-0.5-0.2-1-0.4-1.5-0.6c-0.2-0.1-0.2-0.1-0.4-0.2C18.2,3,17,2.7,17,2.3
			c0,0.6,0,1.3,0,1.9c0,30.1,0,60.1,0,90.2c0,0.4,1.2,0.7,1.9,1c0.2,0.1,0.4,0.2,0.6,0.3c0.4,0.2,0.8,0.4,1.3,0.5
			c0.3,0.1,0.5,0.2,0.8,0.3c0.4,0.1,0.8,0.3,1.1,0.4c0.3,0.1,0.5,0.1,0.8,0.2c0.3,0.1,0.7,0.2,1,0.3c0.3,0.1,0.5,0.1,0.8,0.2
			c0.3,0.1,0.7,0.1,1,0.2c0.3,0,0.5,0.1,0.8,0.1c0.3,0,0.6,0.1,0.9,0.1c0.3,0,0.5,0,0.8,0.1c0.3,0,0.6,0.1,0.9,0.1
			c0.3,0,0.5,0,0.8,0c0.3,0,0.6,0,0.9,0c0.2,0,0.3,0,0.5,0c0.6,0,1.3,0,1.9-0.1c0.1,0,0.3,0,0.4,0c0.7,0,1.5-0.1,2.2-0.2
			c0.2,0,0.3,0,0.5-0.1c0.6-0.1,1.3-0.1,1.9-0.2c0.1,0,0.2,0,0.4,0c0.8-0.1,1.7-0.2,2.5-0.3c0.6-0.1,1.3-0.2,2-0.3
			c0.2,0,0.3,0,0.5-0.1c0.7-0.1,1.5-0.2,2.3-0.3c0.2,0,0.4,0,0.6-0.1c0.7-0.1,1.5-0.1,2.2-0.2c0.1,0,0.2,0,0.3,0
			c0.8,0,1.7-0.1,2.5-0.1c0.1,0,0.2,0,0.3,0c0.2,0,0.5,0,0.8,0c0.1,0,0.3,0,0.4,0c0.6,0,1.2,0,1.8,0.1c0.1,0,0.2,0,0.4,0
			c0.5,0,1,0.1,1.5,0.1c0.2,0,0.4,0,0.6,0.1c0.5,0.1,1.1,0.1,1.6,0.2c0.1,0,0.2,0,0.3,0c0.6,0.1,1.3,0.2,2,0.4
			c0.2,0,0.4,0.1,0.6,0.1c0.5,0.1,1,0.2,1.6,0.4c0.2,0,0.4,0.1,0.6,0.2c0.7,0.2,1.4,0.4,2.1,0.6c0.1,0,0.2,0.1,0.3,0.1
			c0.6,0.2,1.3,0.4,1.9,0.6c0.2,0.1,0.5,0.2,0.7,0.2c0.6,0.2,1.3,0.5,1.9,0.7c0.2,0.1,0.3,0.1,0.5,0.2c0.8,0.3,1.6,0.7,2.4,1.1
			c0.2,0.1,0.4,0.2,0.6,0.3c0.7,0.3,1.3,0.6,2,1c0.3,0.1,0.7,0.2,1,0.4c0.9,0.4,1.9,0.9,2.9,1.4c0-28.4,0-56.7,0-85.1
			c0-2.4,0-4.7,0-7.1c-1-0.5-1.6-1-2.3-1.5C78.5,10.7,78.2,10.6,78,10.5z"/>
		<path id="XMLID_13_" d="M150.1,3.3c-0.2,0.1-0.3,0.2-0.6,0.2c-0.5,0.2-0.9,0.4-1.4,0.5c-0.2,0.1-0.5,0.2-0.7,0.2
			c-0.1,0-0.3,0.1-0.3,0.1c0,0,0,0,0,0c-0.4,0-0.7,0.2-1,0.3c-0.3,0.1-0.5,0.1-0.7,0.2c-0.4,0.1-0.8,0.2-1.2,0.3
			c-0.3,0.1-0.5,0.1-0.8,0.1c-0.4,0.1-0.8,0.2-1.1,0.2c-0.3,0-0.6,0.1-0.8,0.1c-0.4,0-0.7,0.1-1.1,0.1c-0.3,0-0.6,0-0.9,0.1
			c-0.4,0-0.7,0.1-1.1,0.1c-0.3,0-0.6,0-0.9,0c-0.3,0-0.7,0-1,0c0,0,0,0-0.1,0c-0.1,0-0.1,0-0.2,0c-0.8,0-1.6,0-2.4-0.1
			c-0.2,0-0.4,0-0.6,0c-0.8-0.1-1.7-0.1-2.5-0.2c-0.2,0-0.3,0-0.5,0c-0.8-0.1-1.5-0.2-2.3-0.3c-0.2,0-0.4,0-0.5-0.1
			c-0.9-0.1-1.8-0.2-2.7-0.3c-0.8-0.1-1.6-0.2-2.3-0.3c-0.2,0-0.4,0-0.5-0.1c-0.8-0.1-1.7-0.2-2.6-0.3c-0.2,0-0.4,0-0.6-0.1
			c-0.8-0.1-1.6-0.1-2.5-0.2c-0.1,0-0.2,0-0.3,0c-0.9,0-1.8-0.1-2.6-0.1c-0.3,0-0.7,0-1,0c-0.2,0-0.3,0-0.5,0c-0.6,0-1.2,0-1.8,0.1
			c-0.1,0-0.2,0-0.3,0c-0.5,0-1,0.1-1.5,0.1c-0.2,0-0.4,0-0.5,0.1c-0.5,0.1-1,0.1-1.5,0.2c-0.1,0-0.2,0-0.3,0
			c-0.6,0.1-1.2,0.2-1.8,0.4c-0.2,0-0.3,0.1-0.5,0.1c-0.5,0.1-1,0.2-1.5,0.4c-0.2,0-0.3,0.1-0.5,0.1c-0.6,0.2-1.3,0.4-1.9,0.6
			c-0.1,0-0.1,0.1-0.2,0.1c-0.6,0.2-1.2,0.4-1.7,0.7c-0.2,0.1-0.4,0.2-0.6,0.2c-0.5,0.2-1.1,0.5-1.6,0.7c-0.1,0.1-0.3,0.1-0.4,0.2
			c-0.3,0.1-0.5,0.3-0.8,0.4c-0.4,0.2-0.8,0.4-1.2,0.6c-0.2,0.1-0.3,0.2-0.5,0.3c-0.5,0.3-1.1,0.6-1.6,1c-0.2,0.1-0.6,0.2-0.8,0.4
			c-0.7,0.5-1.3,0.9-2.3,1.5c0,2.4,0,4.7,0,7.1c0,28.4,0,56.7,0,85.1c1-0.5,2-1,2.9-1.4c0.3-0.1,0.6-0.2,0.8-0.4
			c0.7-0.3,1.4-0.7,2.1-1c0.2-0.1,0.4-0.2,0.6-0.3c0.8-0.4,1.7-0.7,2.5-1.1c0.2-0.1,0.3-0.1,0.5-0.2c0.6-0.3,1.3-0.5,1.9-0.7
			c0.2-0.1,0.5-0.2,0.7-0.2c0.7-0.2,1.3-0.5,2-0.7c0.1,0,0.2-0.1,0.3-0.1c0.7-0.2,1.4-0.4,2.2-0.6c0.2-0.1,0.4-0.1,0.6-0.1
			c0.5-0.1,1.1-0.3,1.6-0.4c0.2,0,0.4-0.1,0.6-0.1c0.7-0.1,1.3-0.3,2-0.4c0.1,0,0.2,0,0.3,0c0.6-0.1,1.1-0.2,1.6-0.2
			c0.2,0,0.4,0,0.6-0.1c0.5-0.1,1-0.1,1.5-0.1c0.1,0,0.2,0,0.4,0c0.6,0,1.2-0.1,1.8-0.1c0.1,0,0.3,0,0.4,0c0.3,0,0.5,0,0.8,0
			c0.1,0,0.2,0,0.3,0c0.9,0,1.7,0,2.5,0.1c0.1,0,0.2,0,0.3,0c0.8,0,1.5,0.1,2.2,0.2c0.2,0,0.4,0,0.6,0.1c0.8,0.1,1.5,0.2,2.3,0.3
			c0.1,0,0.3,0,0.4,0.1c0.7,0.1,1.4,0.2,2.1,0.3c0.8,0.1,1.7,0.2,2.5,0.3c0.1,0,0.3,0,0.4,0c0.6,0.1,1.3,0.2,1.9,0.2
			c0.2,0,0.3,0,0.5,0.1c0.7,0.1,1.5,0.1,2.2,0.2c0.1,0,0.3,0,0.4,0c0.6,0,1.3,0.1,1.9,0.1c0.2,0,0.3,0,0.5,0c0.3,0,0.6,0,0.9,0
			c0.3,0,0.5,0,0.8,0c0.3,0,0.6,0,0.9-0.1c0.3,0,0.5,0,0.8-0.1c0.3,0,0.6-0.1,0.9-0.1c0.3,0,0.5-0.1,0.8-0.1c0.3-0.1,0.7-0.1,1-0.2
			c0.3-0.1,0.5-0.1,0.8-0.2c0.3-0.1,0.7-0.2,1-0.3c0.3-0.1,0.5-0.1,0.8-0.2c0.4-0.1,0.8-0.2,1.1-0.4c0.3-0.1,0.5-0.2,0.8-0.3
			c0.4-0.2,0.9-0.3,1.3-0.5c0.2-0.1,0.3-0.2,0.6-0.3c0.7-0.3,1.9-0.6,1.9-1c0-30.1,0-60.1,0-90.2c0-0.6,0-1.3,0-1.9
			C152,2.7,150.7,3,150.1,3.3z M148.4,4.4c0.8,0,1.7,0,2.4,0C150.1,4.3,149.3,4.4,148.4,4.4z"/>
	</g>
</g>
<path id="XMLID_8_" d="M159,3.2v91.3c0,2.7-1.5,5.2-3.9,6.4c-5.9,3-11.6,4.3-17.9,4.3c-3.7,0-7.2-0.5-10.6-1
	c-3.4-0.5-6.6-0.9-10.2-0.9c-4.9,0-12.7,0.7-24.7,7.3c-1,0.6-2.2,0.8-3.4,0.8h-7.8l0,0c0,0,0,0,0,0c-1.2,0-2.3-0.3-3.4-0.8
	c-12-6.6-19.9-7.3-24.7-7.3c-3.6,0-6.8,0.5-10.2,0.9c-3.4,0.5-6.9,1-10.6,1c-6.3,0-11.8-1.4-17.7-4.3c-2.4-1.2-4-3.7-4-6.4l0-91.1
	C7,2.6,3.3,1.6,0,0v110.5c27.6,13.1,38.7-9,78.2,11.1c1.2,0.6,2.5,0.9,3.8,0.9l4.7-0.1c1.3,0,2.6-0.3,3.7-0.9
	c39.8-20.4,51,2.1,77.6-11V0C165,1.5,162,2.5,159,3.2z"/>
</svg>
