<?xml version="1.0" encoding="utf-8"?>
<!-- Generator: Adobe Illustrator 19.0.0, SVG Export Plug-In . SVG Version: 6.00 Build 0)  -->
<svg version="1.1" id="Layer_1" xmlns="http://www.w3.org/2000/svg" xmlns:xlink="http://www.w3.org/1999/xlink" x="0px" y="0px"
	 viewBox="0 0 180 180" enable-background="new 0 0 180 180" xml:space="preserve">
<g>
	<path fill="none" stroke="#202123" stroke-width="7" stroke-linecap="round" stroke-linejoin="round" stroke-miterlimit="10" d="
		M175.1,70.5c0.4,3.1,0.7,6.3,0.7,9.5c0,19-7.9,36.4-21,49.7l9.7,42.1l-43.2-21.2c-9.7,3.4-20.2,5.2-31.3,5.2
		c-34,0-85.8-25.9-85.8-75.8c0-7.6,1.5-15.8,3.8-22.7l81.4,79.4c3.5,3.5,8.4,3.5,12.7,0l38.2-32.1c3.5-3.5,3.5-9.2,0-12.7L88.5,41.1
		l8.1-8.1L69.9,22.5L56.2,10.3c10.4-3.9,25.3-7.8,44.5-5.6"/>
	
		<line fill="none" stroke="#202123" stroke-width="7" stroke-linecap="round" stroke-linejoin="round" stroke-miterlimit="10" x1="114.5" y1="91.1" x2="133.6" y2="110.2"/>
	
		<line fill="none" stroke="#202123" stroke-width="7" stroke-linecap="round" stroke-linejoin="round" stroke-miterlimit="10" x1="103.2" y1="102.4" x2="120.6" y2="119.8"/>
	
		<line fill="none" stroke="#202123" stroke-width="7" stroke-linecap="round" stroke-linejoin="round" stroke-miterlimit="10" x1="92" y1="115.2" x2="108.1" y2="131.4"/>
	
		<line fill="#FFFFFF" stroke="#202123" stroke-width="7" stroke-linecap="round" stroke-linejoin="round" stroke-miterlimit="10" x1="171.5" y1="52.5" x2="137.8" y2="85.4"/>
	
		<path fill="#FFFFFF" stroke="#202123" stroke-width="7" stroke-linecap="round" stroke-linejoin="round" stroke-miterlimit="10" d="
		M111,53.3l-7.7-0.3c-2.4-0.1-4.7,0.8-6.3,2.5l-3.7,3.7c-3.3,3.3-8.7,3.3-12,0l0,0c-3.3-3.3-3.3-8.7,0-12l6.4-6.4l31.9-29"/>
	
		<path fill="#FFFFFF" stroke="#202123" stroke-width="7" stroke-linecap="round" stroke-linejoin="round" stroke-miterlimit="10" d="
		M38.9,90.4l5.2-5.6c3.9-4.1,10.4-4.2,14.4-0.2l9.3,9.3c0.4,0.4,0.8,0.9,1.2,1.5l18,26.5c2.7,4,2.2,9.3-1.2,12.7l0,0
		c-3.1,3.1-8,3.2-11.2,0.2l-35.3-33C36.1,98.7,35.9,93.6,38.9,90.4z"/>
	
		<line fill="none" stroke="#202123" stroke-width="7" stroke-linejoin="round" stroke-miterlimit="10" x1="63.6" y1="90.4" x2="45.9" y2="108"/>
	
		<line fill="none" stroke="#202123" stroke-width="7" stroke-linejoin="round" stroke-miterlimit="10" x1="73.5" y1="103.1" x2="57.9" y2="118.7"/>
	
		<line fill="none" stroke="#202123" stroke-width="7" stroke-linejoin="round" stroke-miterlimit="10" x1="84.1" y1="116.5" x2="71.4" y2="129.3"/>
</g>
</svg>
