<?xml version="1.0" encoding="utf-8"?>
<!-- Generator: Adobe Illustrator 19.1.0, SVG Export Plug-In . SVG Version: 6.00 Build 0)  -->
<svg version="1.1" id="Layer_1" xmlns="http://www.w3.org/2000/svg" xmlns:xlink="http://www.w3.org/1999/xlink" x="0px" y="0px"
	 viewBox="523 -172.1 1345.1 645.1" style="enable-background:new 523 -172.1 1345.1 645.1;" xml:space="preserve">
<style type="text/css">
	.st0{fill:#F7F9F9;}
	.st1{fill:none;stroke:#F7F9F9;stroke-width:2;stroke-miterlimit:10;stroke-dasharray:12,12;}
</style>
<polygon class="st0" points="1075.1,67.8 1075.1,-59 1161.4,4.4 "/>
<polygon class="st0" points="1161.4,131.2 1161.4,4.4 1247.7,67.8 "/>
<polygon class="st0" points="1075.1,194.6 1075.1,67.8 1161.4,131.2 "/>
<polygon class="st0" points="1075.1,321.3 1075.1,194.6 1161.4,258 "/>
<polygon class="st0" points="1075.1,448.1 1075.1,321.3 1161.4,384.7 "/>
<polygon class="st0" points="1161.4,258 1161.4,131.2 1247.7,194.6 "/>
<polygon class="st0" points="1247.7,321.3 1247.7,194.6 1333.9,258 "/>
<polygon class="st0" points="1333.9,258 1333.9,131.2 1420.2,194.6 "/>
<polygon class="st0" points="1420.2,321.3 1420.2,194.6 1506.5,258 "/>
<line class="st1" x1="523" y1="85.9" x2="1704" y2="-172.1"/>
<line class="st1" x1="941" y1="472" x2="1867.1" y2="10.9"/>
<polygon class="st0" points="523,-59 523,-172.1 600,-115.5 "/>
<polygon class="st0" points="523,54.1 523,-59 600,-2.4 "/>
<polygon class="st0" points="600,110.7 600,-2.4 677,54.1 "/>
<polygon class="st0" points="1665.9,-45.3 1665.9,-172.1 1752.2,-108.7 "/>
<polygon class="st0" points="1752.2,18.1 1752.2,-108.7 1838.5,-45.3 "/>
</svg>
